<svg width="379" height="284" viewBox="0 0 379 284" fill="none" xmlns="http://www.w3.org/2000/svg">
<g clip-path="url(#clip0_255_13)">
<path d="M332.228 99.1934C331.566 97.8935 330.614 97.0639 328.743 95.478C324.838 92.1534 321.246 90.3511 320.068 89.8125C311.02 85.6618 301.725 82.4389 301.725 82.4389C290.642 78.585 285.097 76.6652 279.578 73.8769C272.749 70.4231 273.498 69.8166 263.971 64.4035C255.505 59.5911 249.313 56.0639 241.113 53.6492C236.438 52.2706 229.151 50.1411 219.714 50.9023C217.882 51.0488 211.563 51.6581 203.899 54.8247C199.337 56.7053 194.133 59.5576 179.948 72.2925C169.793 81.4048 162.575 88.8247 160.832 90.6143C151.645 100.079 147.571 105.109 139.016 114.659C133.747 120.537 126.703 127.828 112.759 142.569C110.348 145.108 104.233 151.576 97.0904 160.983C96.6925 161.512 94.3042 163.244 94.7101 164.179C95.1266 165.146 97.9875 164.133 101.606 164.364C103.14 164.459 109.579 165.095 113.728 170.122C113.993 170.447 118.934 176.368 117.286 181.083C116.419 183.57 114.444 183.629 112.526 187.475C111.303 189.92 111.653 190.787 110.857 192.863C108.362 199.356 100.945 201.073 101.299 202.024C101.618 202.866 107.108 200.756 114.378 200.202C120.103 199.761 124.425 200.478 129.556 201.333C136.396 202.469 138.841 203.65 148.218 206.179C156.984 208.544 161.383 209.673 165.494 210.265C167.945 210.62 172.645 211.166 187.212 210.485C199.745 209.893 206.038 209.801 211.665 208.605C219.796 206.874 220.908 205.386 230.573 203.679C238.579 202.267 246 201.858 246.069 202.283C246.113 202.523 243.91 202.754 240.916 203.956C235.705 206.047 231.283 209.797 231.677 210.59C232.015 211.28 236.387 209.061 247.137 205.572C251.229 204.243 253.28 203.578 253.321 203.564C256.007 202.995 257.253 203.112 258.474 201.891C259.61 200.759 259.486 199.709 260.855 198.695C262.021 197.832 263.251 197.76 263.946 197.692C263.957 197.688 263.946 197.692 272.192 195.015C282.488 191.673 282.416 191.696 282.498 191.669C286.903 189.973 289.836 188.161 294.155 185.462C299.042 182.41 303.721 179.485 308.866 174.629C315.056 168.778 318.602 163.278 321.798 158.314C322.738 156.858 327.301 149.682 331.602 139.381C336.457 127.736 335.696 124.724 337.958 120.354C338.218 119.858 339.006 118.391 338.951 116.397C338.896 114.331 337.949 112.712 337.528 112.012C336.122 109.682 335.185 110.023 334.044 108.297C332.031 105.255 334.074 102.811 332.228 99.1934Z" fill="#3548FF" stroke="#3548FF" stroke-miterlimit="10"/>
<path d="M113.035 169.741C108.83 169.809 108.238 171.213 103.403 171.656C99.2019 172.05 96.2714 171.305 90.2867 169.856C84.537 168.463 78.7543 167.214 73.0109 165.77C59.7309 162.448 53.0925 160.774 45.0359 160.312C35.3859 159.749 27.1007 160.863 27.1221 161.28C27.1346 161.495 29.2828 161.233 31.9564 162.134C33.6442 162.701 37.0552 164.26 41.6986 171.088C43.0983 173.154 45.2115 176.576 48.3856 184.669C50.4664 189.991 52.4408 195.021 54.0787 202.207C56.2399 211.708 57.3256 216.456 56.005 222.18C54.3838 229.188 50.1312 234.022 50.9622 234.721C51.4802 235.159 53.3727 233.478 54.729 232.287C59.1461 228.381 63.7588 224.727 68.0539 220.692C73.0011 216.032 72.5343 217.929 83.796 209.523C90.3369 204.65 88.9871 205.124 99.1823 197.259C108.475 190.087 112.863 186.76 112.863 186.76C113.574 186.214 114.505 185.5 115.599 184.66C125.706 176.872 126.28 176.08 126.188 175.164C125.893 172.255 118.938 169.642 113.035 169.741Z" fill="black" stroke="black" stroke-miterlimit="10"/>
<path d="M285.254 94.45C284.559 94.2394 279.458 93.6174 269.257 92.3732C269.257 92.3732 259.045 91.1323 248.992 91.6814C235.013 92.4512 224.597 96.5835 217.351 99.5295C217.351 99.5295 205.13 104.49 188.911 117.243C188.05 117.922 186.087 119.492 184.65 122.261C182.375 126.622 181.713 133.356 185.009 137.896C187.921 141.918 192.726 142.54 198.523 143.202C207.409 144.219 214.185 142.492 222.342 140.316C234.13 137.181 240.022 135.607 245.444 131.606C246.306 130.962 248.793 129.077 252.551 128.087C254.201 127.661 260.983 125.883 263.569 129.357C265.596 132.091 264.086 136.774 262.149 139.511C259.947 142.625 256.954 143.512 252.193 145.166C252.193 145.166 241.862 148.75 233.348 152.495C224.944 156.192 225.468 157.561 217.348 161.324C213.893 162.93 209.361 164.728 198.147 167.557C185.034 170.856 181.201 170.913 168.282 173.616C157.039 175.97 156.281 176.688 135.579 181.809C118.02 186.152 108.889 189.819 108.204 188.272C107.569 186.843 113.777 180.344 121.004 176.847C122.108 176.319 123.961 175.5 123.843 174.714C123.58 172.885 113.209 174.349 112.113 171.252C111.399 169.23 115.081 166.533 120.645 161.213C124.653 157.379 128.211 153.074 132.017 149.04C142.073 138.396 141.612 137.395 148.365 130.405C153.823 124.756 152.847 126.733 168.621 112.925C179.738 103.197 182.534 100.193 189.948 95.0968C195.76 91.1019 200.538 88.4845 202.743 87.3085C210.409 83.2328 220.074 78.193 233.317 76.172C241.597 74.9017 246.278 74.1942 252.164 76.1123C258.116 78.0574 259.495 80.7964 265.678 81.4185C270.733 81.9344 272.585 80.3759 278.474 80.8996C283.014 81.3038 286.001 82.5393 288.787 83.61C293.268 85.3419 295.521 86.2463 296.251 88.4571C297.05 90.8509 295.859 94.0244 293.763 95.3229C291.457 96.7497 288.704 95.4988 285.233 94.4567L285.254 94.45Z" fill="black" stroke="black" stroke-miterlimit="10"/>
<path d="M297.412 98.9847C293.428 100.278 289.083 97.8914 287.707 93.6537C286.331 89.4161 288.446 84.9323 292.431 83.6388C296.415 82.3454 300.761 84.7322 302.136 88.9698C303.512 93.2074 301.397 97.6913 297.412 98.9847Z" fill="#0F0064" stroke="#0F0064" stroke-miterlimit="10"/>
<path d="M296.618 96.819C293.818 97.7281 290.789 96.1291 289.854 93.2475C288.918 90.3659 290.43 87.293 293.231 86.3839C296.031 85.4748 299.06 87.0738 299.995 89.9554C300.931 92.837 299.419 95.9099 296.618 96.819Z" fill="black" stroke="black" stroke-miterlimit="10"/>
<path d="M297.41 89.292C296.409 89.6172 295.364 89.1643 295.077 88.2805C294.79 87.3966 295.37 86.4165 296.371 86.0913C297.373 85.7661 298.418 86.2189 298.705 87.1028C298.992 87.9866 298.412 88.9668 297.41 89.292Z" fill="white" stroke="white" stroke-miterlimit="10"/>
<path d="M321.559 134.765C321.548 134.696 319.576 135.009 317.081 135.007C315.816 135.006 311.348 134.93 303.608 132.111C298.492 130.246 294.406 128.083 291.486 126.353C281.243 120.312 275.689 114.118 275.167 114.687C274.765 115.133 277.829 119.203 281.106 122.453C282.168 123.513 286.739 127.942 294.296 131.499C297.645 133.077 303.161 135.612 310.541 135.919C316.5 136.165 321.574 134.882 321.559 134.765Z" fill="black" stroke="black" stroke-miterlimit="10"/>
<path d="M246.873 111.755C247.274 111.165 250.082 112.725 252.063 113.705C256.342 115.83 257.595 115.726 262.444 117.606C265.063 118.621 272.57 121.601 280.468 127.506C287.504 132.758 288.939 135.915 289.535 137.891C289.913 139.125 290.784 142.126 289.609 145.137C288.211 148.728 284.751 150.106 281.4 151.436C278.544 152.569 276.395 153.424 273.83 152.682C271.832 152.107 270.389 150.54 267.572 147.443C266.635 146.415 264.556 144.048 261.634 139.678C259.915 137.122 258.859 135.272 256.726 131.578C254.021 126.895 254.888 128.092 251.106 121.286C249.604 118.587 248.903 115.446 247.229 112.851C247.092 112.641 246.686 112.022 246.873 111.755Z" fill="#002BA7" stroke="#002BA7" stroke-miterlimit="10"/>
<path d="M243.192 54.7916C243.187 55.2659 240.33 55.3813 236.653 55.7028C236.653 55.7028 230.237 56.2588 224.604 57.1908C219.384 58.0614 215.749 59.6047 211.205 61.5402C206.489 63.5435 199.074 67.1985 189.279 74.7159C186.498 76.8544 183.942 78.9808 170.838 91.607C160.379 101.678 151.851 110.117 144.899 116.99C134.785 126.998 129.672 131.99 128.519 133.212C114.118 148.404 113.022 152.225 107.378 155.826C106.707 156.25 103.601 158.191 103.967 159.356C104.192 160.047 105.444 159.798 107.771 160.545C109.704 161.165 110.072 161.737 114.703 164.353C116.322 165.269 117.422 165.288 117.476 165.876C117.554 166.711 115.663 167.555 114.74 167.976C113.745 168.42 113.248 168.642 112.679 168.645C110.856 168.643 110.298 166.679 108.164 165.264C106.293 164.029 104.442 164.012 100.912 163.983C97.6789 163.954 95.8239 165.259 95.4032 164.56C95.1649 164.177 95.5617 163.539 96.7529 161.698C98.5923 158.872 99.5085 157.447 99.808 157.072C102.618 153.445 106.085 149.981 109.01 146.815C112.812 142.697 112.341 142.825 116.507 138.323C117.056 137.733 119.579 135.011 123.329 131.262C128.137 126.454 129.809 125.111 132.887 122.101C136.113 118.946 136.116 118.605 143.795 110.079C148.86 104.448 148.398 105.095 156.408 96.2909C165.609 86.1679 164.738 86.9595 167.316 84.2686C171.116 80.3211 176.034 75.2228 183.021 69.4774C187.715 65.6154 192.138 62.0106 198.764 58.3091C207.675 53.3323 213.474 52.1404 214.898 51.8598C219.463 50.9717 223.196 50.9957 224.886 51.041C227.658 51.1226 231.561 51.9516 239.389 53.603C241.579 54.0674 243.202 54.4369 243.192 54.7916Z" fill="#281F00" stroke="#281F00" stroke-miterlimit="10"/>
<path d="M263.376 141.536C264.347 141.402 264.824 139.575 265.4 137.244C266.185 134.081 266.692 132.026 266.358 129.663C265.369 122.654 257.84 119.112 251.744 116.232C250.923 115.845 249.726 115.349 249.327 115.805C248.864 116.343 249.755 117.896 250.395 119.094C252.625 123.228 250.619 120.523 254.272 127.528C255.516 129.923 256.856 132.19 259.536 136.724C261.685 140.364 262.502 141.65 263.376 141.536Z" fill="#F8FF35" stroke="#F8FF35" stroke-miterlimit="10"/>
<path d="M123.771 174.737C123.282 173.478 118.507 175.404 110.336 175.464C105.676 175.498 100.391 174.766 89.9678 172.382C68.9277 167.581 71.681 170.903 59.9315 167.593C52.1814 165.408 46.7042 164.714 35.7601 163.323C34.4901 163.166 31.4876 162.796 31.2817 163.565C31.079 164.309 34.2321 165.249 37.1834 167.708C38.4939 168.797 40.2632 170.597 44.5452 179.857C46.8748 184.893 48.1734 187.525 49.4899 191.58C51.2619 197.039 50.3707 196.504 52.7291 205.068C54.0392 209.841 54.8104 211.796 54.9009 215.268C55.0058 219.487 53.9438 222.849 53.9438 222.849C53.0449 225.976 51.8161 227.841 52.2751 228.237C52.7377 228.644 54.4149 227.143 56.0419 225.803C60.1301 222.428 59.1695 223.891 65.2811 219.168C69.1525 216.179 70.5894 214.78 76.9005 209.338C82.8904 204.171 85.8904 201.586 88.52 199.508C93.4713 195.599 97.9028 192.089 104.262 188.34C108.123 186.057 109.467 185.597 113.857 182.802C118.775 179.667 124.309 176.15 123.771 174.737Z" fill="#F8FF35"/>
</g>
<defs>
<clipPath id="clip0_255_13">
<rect width="337" height="189" fill="white" transform="matrix(-0.951142 0.308755 0.308755 0.951142 320.535 0)"/>
</clipPath>
</defs>
</svg>
