<?xml version="1.0" encoding="UTF-8"?>
<svg xmlns="http://www.w3.org/2000/svg" xmlns:xlink="http://www.w3.org/1999/xlink" viewBox="0 0 984.52 932.64">
  <defs>
    <style>
      .cls-1 {
        fill: #ff6f3c;
        font-family: MyriadPro-Regular, 'Myriad Pro';
        font-size: 60px;
      }

      .cls-2 {
        fill: url(#linear-gradient);
      }

      .cls-2, .cls-3, .cls-4, .cls-5, .cls-6, .cls-7, .cls-8, .cls-9, .cls-10, .cls-11, .cls-12, .cls-13, .cls-14, .cls-15, .cls-16, .cls-17, .cls-18, .cls-19, .cls-20, .cls-21, .cls-22, .cls-23, .cls-24, .cls-25, .cls-26, .cls-27, .cls-28, .cls-29, .cls-30, .cls-31, .cls-32, .cls-33, .cls-34, .cls-35, .cls-36, .cls-37 {
        stroke-width: 0px;
      }

      .cls-38, .cls-39 {
        mix-blend-mode: overlay;
      }

      .cls-38, .cls-40, .cls-41, .cls-42, .cls-43, .cls-44, .cls-45, .cls-46, .cls-47, .cls-48 {
        stroke-miterlimit: 10;
      }

      .cls-38, .cls-40, .cls-41, .cls-42, .cls-44, .cls-48 {
        stroke: #fff;
      }

      .cls-38, .cls-40, .cls-32 {
        fill: #fff;
      }

      .cls-3 {
        fill: url(#linear-gradient-11);
      }

      .cls-4 {
        fill: url(#linear-gradient-12);
      }

      .cls-5 {
        fill: url(#linear-gradient-13);
      }

      .cls-6 {
        fill: url(#linear-gradient-10);
      }

      .cls-7 {
        fill: url(#linear-gradient-14);
      }

      .cls-41 {
        fill: #3c71aa;
      }

      .cls-42 {
        fill: #4fa9c9;
      }

      .cls-43 {
        stroke: #013755;
        stroke-width: 2px;
      }

      .cls-43, .cls-44, .cls-45, .cls-46, .cls-47, .cls-48 {
        fill: none;
      }

      .cls-44 {
        stroke-width: 4px;
      }

      .cls-45 {
        stroke: #000;
      }

      .cls-46 {
        stroke: #ee6b4c;
      }

      .cls-47 {
        stroke: #714fed;
      }

      .cls-48 {
        stroke-width: 8px;
      }

      .cls-8 {
        fill: url(#linear-gradient-4);
      }

      .cls-9 {
        fill: url(#linear-gradient-2);
      }

      .cls-10 {
        fill: url(#linear-gradient-3);
      }

      .cls-11 {
        fill: url(#linear-gradient-8);
      }

      .cls-12 {
        fill: url(#linear-gradient-9);
      }

      .cls-13 {
        fill: url(#linear-gradient-7);
      }

      .cls-14 {
        fill: url(#linear-gradient-5);
      }

      .cls-15 {
        fill: url(#linear-gradient-6);
      }

      .cls-49 {
        isolation: isolate;
      }

      .cls-17 {
        fill: #f4b545;
      }

      .cls-18 {
        fill: #4b7f96;
      }

      .cls-19 {
        fill: #44acf2;
      }

      .cls-20 {
        fill: #291ec1;
      }

      .cls-21 {
        fill: #281227;
      }

      .cls-22 {
        fill: #878787;
      }

      .cls-23 {
        fill: #36b8b9;
      }

      .cls-24 {
        fill: #3e97ce;
      }

      .cls-25 {
        fill: #d0eaef;
      }

      .cls-26 {
        fill: #d62b2b;
      }

      .cls-27 {
        fill: #dbdddd;
      }

      .cls-28 {
        fill: #bf0029;
      }

      .cls-29 {
        fill: #b8c13d;
      }

      .cls-30 {
        fill: #98c8d3;
      }

      .cls-31 {
        fill: #7f5539;
      }

      .cls-33 {
        fill: #e9c46a;
      }

      .cls-34 {
        fill: #e46d65;
      }

      .cls-35 {
        fill: #fcc762;
      }

      .cls-36 {
        fill: #0029bc;
      }

      .cls-37 {
        fill: #00b6df;
      }
    </style>
    <linearGradient id="linear-gradient" x1="380.13" y1="182.83" x2="380.13" y2="184.72" gradientUnits="userSpaceOnUse">
      <stop offset=".23" stop-color="#219ebc"/>
      <stop offset=".65" stop-color="#0179b6"/>
      <stop offset=".98" stop-color="#0077b6"/>
    </linearGradient>
    <linearGradient id="linear-gradient-2" x1="503.16" y1="191.69" x2="502.08" y2="541.53" gradientUnits="userSpaceOnUse">
      <stop offset=".16" stop-color="#8ecae6"/>
      <stop offset=".59" stop-color="#219ebc"/>
    </linearGradient>
    <linearGradient id="linear-gradient-3" x1="500.4" y1="403.4" x2="500.4" y2="610.67" xlink:href="#linear-gradient"/>
    <linearGradient id="linear-gradient-4" x1="495.73" y1="592.84" x2="501.56" y2="927.16" gradientUnits="userSpaceOnUse">
      <stop offset=".23" stop-color="#0077b6"/>
      <stop offset=".37" stop-color="#006295"/>
      <stop offset=".58" stop-color="#01476b"/>
      <stop offset=".74" stop-color="#013650"/>
      <stop offset=".84" stop-color="#023047"/>
    </linearGradient>
    <linearGradient id="linear-gradient-5" x1="346.43" y1="864.89" x2="346.4" y2="873.61" xlink:href="#linear-gradient-2"/>
    <linearGradient id="linear-gradient-6" x1="369.2" y1="895.65" x2="369.18" y2="903.1" xlink:href="#linear-gradient-2"/>
    <linearGradient id="linear-gradient-7" x1="516.37" y1="902" x2="516.36" y2="906.01" xlink:href="#linear-gradient-2"/>
    <linearGradient id="linear-gradient-8" x1="508.88" y1="917.23" x2="508.87" y2="919.64" xlink:href="#linear-gradient-2"/>
    <linearGradient id="linear-gradient-9" x1="629.53" y1="913.72" x2="629.51" y2="920.94" xlink:href="#linear-gradient-2"/>
    <linearGradient id="linear-gradient-10" x1="595.98" y1="896.47" x2="595.97" y2="900.14" xlink:href="#linear-gradient-2"/>
    <linearGradient id="linear-gradient-11" x1="652.6" y1="879.53" x2="652.6" y2="882.17" xlink:href="#linear-gradient-2"/>
    <linearGradient id="linear-gradient-12" x1="456.33" y1="895.44" x2="456.32" y2="899.16" xlink:href="#linear-gradient-2"/>
    <linearGradient id="linear-gradient-13" x1="460.05" y1="898.99" x2="460.04" y2="901.63" xlink:href="#linear-gradient-2"/>
    <linearGradient id="linear-gradient-14" x1="413.68" y1="896.87" x2="413.67" y2="901.23" xlink:href="#linear-gradient-2"/>
  </defs>
  <g class="cls-49">
    <g id="Layer_2" data-name="Layer 2">
      <g id="Layer_2-2" data-name="Layer 2">
        <g>
          <g>
            <ellipse class="cls-40" cx="510.17" cy="894.71" rx="3.56" ry="5.95" transform="translate(-517.49 826.24) rotate(-56.5)"/>
            <rect class="cls-40" x="520.83" y="892.64" width="1.02" height="18.92" transform="translate(-518.65 838.87) rotate(-56.5)"/>
          </g>
          <path class="cls-32" d="m641.43,915.91s3.31-.92,6.17-3.01c.54-.4-.88-2.87-.97-3.49-.23-1.59.11-3.21-.75-5.66,0,0,0-.01-.01-.02-.12-.24-2.43-4.92-3.75-6.14-.04-.03-.09-.05-.11-.09l-2.26-4.95c-.26-.56-.95-.86-1.6-.7h0c-.74.18-1.16.87-.93,1.52.78,2.16,2.33,6.6,2.33,7.56,0,.86-1.92,1.28-3.18,1.46-.69.1-1.36.29-1.99.56-1.07.46-2.45.88-2.89.42-.7-.73-2.77-5-3.76-7.09-.3-.63-1.12-.91-1.82-.62h0c-.62.26-.92.88-.71,1.46l1.8,4.93c.04.12.18.28.17.4-.05,1.75,1.42,6.32,1.55,6.69,0,.02.01.03.01.05,0,0,2.1,3.7,4.02,5.42.32.29,1.75,1.32,2.2,1.32,2.69.02,3.9.57,5.17.2.54-.15.8-.13,1.45-.26"/>
          <g>
            <path class="cls-30" d="m360.26,901.78l-.26-.41c-.27-.43-.18-.93.19-1.11l1.02-.5c.38-.19.91.01,1.18.44l.26.41c.27.43.18.93-.19,1.11l-1.02.5c-.38.19-.91-.01-1.18-.44Z"/>
            <path class="cls-30" d="m346.39,908.72l-.22-.34c-1.18-1.87-.8-4.04.85-4.85l9.15-4.5c1.65-.81,3.95.05,5.13,1.92l.22.34c1.18,1.87.8,4.04-.85,4.85l-9.15,4.5c-1.65.81-3.95-.05-5.13-1.92Z"/>
            <path class="cls-36" d="m361.7,901.88l-1.04-1.65c-.27-.43-.18-.93.19-1.11h0c.38-.19.91.01,1.18.44l1.04,1.65c.27.43.18.93-.19,1.11h0c-.38.19-.91-.01-1.18-.44Z"/>
            <path class="cls-27" d="m353.91,900.14s.41,3.29,4.5,7.12l-2.87,1.41s-2.4-1.94-4.46-7.14l2.82-1.39Z"/>
            <path class="cls-18" d="m357.33,898.46s.59,1.79,1.74,3.5l-1.74-3.5Z"/>
            <path class="cls-18" d="m356.09,899.07s.5,1.56,1.51,3.05l-1.51-3.05Z"/>
            <path class="cls-18" d="m355.27,899.47s.41,1.5,1.36,2.9l-1.36-2.9Z"/>
            <path class="cls-18" d="m354.33,899.94s.37,1.34,1.22,2.6l-1.22-2.6Z"/>
            <path class="cls-18" d="m350.18,901.97s.46,1.58,1.47,3.07l-1.47-3.07Z"/>
            <path class="cls-18" d="m349.24,902.43s.46,1.58,1.47,3.07l-1.47-3.07Z"/>
            <path class="cls-18" d="m348.3,902.9s.46,1.58,1.47,3.07l-1.47-3.07Z"/>
            <path class="cls-18" d="m347.36,903.36s.46,1.58,1.47,3.07l-1.47-3.07Z"/>
            <path class="cls-18" d="m361.88,905.57s-1.19-1.29-1.95-2.9l1.95,2.9Z"/>
            <path class="cls-18" d="m360.29,906.61s-1.14-1.3-1.9-2.89l1.9,2.89Z"/>
            <path class="cls-18" d="m359.49,906.89s-1.14-1.2-1.85-2.7l1.85,2.7Z"/>
            <path class="cls-18" d="m358.63,907.25s-1.02-1.07-1.66-2.42l1.66,2.42Z"/>
            <path class="cls-18" d="m354.32,909.36s-1.18-1.28-1.94-2.87l1.94,2.87Z"/>
            <path class="cls-18" d="m353.43,909.8s-1.18-1.28-1.94-2.87l1.94,2.87Z"/>
            <path class="cls-18" d="m352.49,910.17s-1.18-1.28-1.94-2.87l1.94,2.87Z"/>
            <path class="cls-18" d="m351.58,910.61s-1.18-1.28-1.94-2.87l1.94,2.87Z"/>
            <path class="cls-18" d="m346.46,903.8s.46,1.58,1.47,3.07l-1.47-3.07Z"/>
            <path class="cls-18" d="m345.52,904.26s.46,1.58,1.47,3.07l-1.47-3.07Z"/>
            <path class="cls-18" d="m350.64,911.07s-1.18-1.28-1.94-2.87l1.94,2.87Z"/>
            <path class="cls-18" d="m349.74,911.52s-1.18-1.28-1.94-2.87l1.94,2.87Z"/>
          </g>
          <g>
            <g>
              <g>
                <g>
                  <text class="cls-1" transform="translate(856.02 205.66)"><tspan x="0" y="0">5%</tspan></text>
                  <text class="cls-1" transform="translate(55.66 704.84)"><tspan x="0" y="0">95%</tspan></text>
                  <g>
                    <path class="cls-2" d="m381.46,184.71h-.01c-1.29-.85-2.17-1.5-2.64-1.85l.04-.03,2.61,1.88Z"/>
                    <g>
                      <g>
                        <path class="cls-9" d="m666.1,334.05h0c-1.04-7.11-10.63-15.86-14.79-19.36-.87-.73-.7-2.09.31-2.63,10.22-5.45,13.26-13.6,14.16-18.19h0c-.04-2.92-.07-5.81-.12-8.67v-.02l-31.07-98.11c-10.79-6.18-20.71-12.66-20.71-12.66-42.76,42.81-116.66-.87-116.66-.87-56.21,30.02-101.45,9.27-117.35-.28-1.19-.72-2.23-1.38-3.09-1.94-.18.39-4.98,10.22-10.82,22.28-.01.01-.01.02-.02.03l-2.26,6.68v.03s-20.31,60.08-20.31,60.08h0s-1.04,39.56-1.04,39.56h0c2.06,3.75,5.52,7.79,11.35,10.97,1,.55,1.16,1.9.28,2.63-3.01,2.49-8.87,7.68-12.33,13.04l-2,76.3-.4,15.23-.41,15.76h327.09s.26-29.57.26-67.77c0-10.21-.02-21.04-.07-32.09Z"/>
                        <path class="cls-10" d="m339,403.4v119.79c1.8,3.64,5.19,8.17,11.55,11.46,1.03.53,1.21,1.93.31,2.66-2.99,2.45-8.63,7.41-11.86,12.35v61.01h322.81v-56.05c-2.06-6-9.91-13.08-13.62-16.18-.89-.74-.7-2.13.33-2.66,9.31-4.71,12.35-12.11,13.29-15.55v-116.83h-322.81Z"/>
                        <rect class="cls-8" x="334.3" y="595.66" width="328.68" height="328.68"/>
                        <path class="cls-33" d="m336.89,856.51s24.97-3.75,126.05,32.51c0,0,67.59,15.84,88.3,11.67,20.7-4.17,52.37-16.25,52.37-16.25,0,0,25.58-10,56.02-8.34,0,0,3.04,38.34-3.04,41.26,0,0-3.65,11.67-27.4,6.67-23.75-5-56.91-15.93-56.91-15.93,0,0-15.16-7.74-38.37,7.11,0,0-21.52,14.1-35.26,13.13,0,0-11.1,0-25.93-6.63-8.02-3.58-12.91-9.18-17.14-11.08-3.93-1.77-9.59-2.96-13.9-3.16-4.42-.2-10.74-.3-16.11.16-10.32.88-32.39,8.93-32.39,8.93l-19.35,4.41-12.25,1.77s-9.24,1.62-14.83-1.91-6.88-7.21-6.88-7.21l-2.98-7.21v-49.89Z"/>
                        <path class="cls-48" d="m500.41,85.68l42.95,2.04c7.96,0,13.38-7.24,18.03,5.59.88,2.43,1.73,5.59,2.57,9.66.68,3.28,1.99,5.81,2.8,6.48,2.43,2.02,31.17,33.2,31.17,33.2l27.28,34.52,5.78,10.38,9.25,16.61,13.88,37,6.17,29.68,1.42,14.82v.02l.5,5.2s.04,1.35-.38,3.46h0c-.89,4.6-3.9,12.75-14,18.2-1,.54-1.17,1.9-.31,2.63,4.11,3.5,13.59,12.25,14.62,19.35h0c.1.64.12,1.25.07,1.85v181.98s-.08.71-.4,1.88c-.94,3.44-3.98,10.84-13.29,15.55-1.03.53-1.22,1.92-.33,2.66,3.71,3.1,11.56,10.18,13.62,16.18.45,1.31.63,2.57.43,3.72v37.39s.04,119.39.04,119.39l.04,181.19s.93,7.55-3.08,15.66h0c-2.12,4.28-5.59,8.69-11.29,12.25h0c-.1.07-.2.14-.31.2-.95.58-1.96,1.14-3.04,1.67l-14.32-.92c-1.76-.12-3.52-.36-5.24-.75-1.72-.38-3.42-.9-5.06-1.55l-6.83-2.68h-.02s-39.52-15.53-39.52-15.53c0,0-24.87-.8-28.4.53-2.58.97-19.63,12.66-27.53,18.12-.58.4-1.19.78-1.81,1.11-.52.29-1.04.56-1.59.79-.01,0-.03,0-.04.02-.99.44-2.01.8-3.06,1.08-.02,0-.05.01-.08.02-.78.2-1.58.36-2.38.47-2.21.3-4.99.67-8.02,1.05-1.12.14-2.29.28-3.46.42h-.02c-.14,0-.29.03-.44.05h-.02c-.17.02-.35.04-.53.06-.36.04-.7-.06-.98-.26h0s-.03-.02-.04-.04c-.33-.25-.55-.66-.55-1.12"/>
                        <path class="cls-48" d="m502.77,85.93l-42.96,1.64c-7.93-.08-13.28-7.31-18.03,5.28-.93,2.45-1.83,5.64-2.72,9.78-.7,3.27-2.04,5.79-2.85,6.45-2.4,1.96-30.28,31.64-31.44,32.88-.03.02-.05.05-.07.08l-25.52,31.7-1.96,2.43c-.05.07-.1.14-.14.21l-15.16,26.63c-.04.07-.07.14-.1.22l-14.13,36.65c-.03.07-.05.15-.07.23l-4.52,20.79h0s-1.87,8.63-1.87,8.63c0,.05-.02.11-.03.17l-2.09,19.87s-.01.09-.01.14c0,.64.05,5.38,2.97,10.75h0c2.04,3.75,5.46,7.79,11.22,10.97.99.55,1.15,1.9.28,2.63-2.98,2.49-8.77,7.68-12.19,13.04-1.75,2.74-2.88,5.53-2.7,8.02l-1.66,181.87c0,.07,0,.14,0,.21.07.53.46,2.94,1.97,5.99,1.8,3.64,5.19,8.17,11.55,11.46,1.03.53,1.21,1.93.31,2.66-2.99,2.45-8.63,7.41-11.86,12.35-1.7,2.6-2.74,5.19-2.38,7.42l-.36,38.65-1.11,118.12-.85,90.56-.85,90.55s0,.1-.01.15c-.06.57-.45,4.63.86,9.83,1.56,6.24,5.57,14.09,15.53,19.48.22.12.45.24.68.36.26.13.55.19.84.18l9.68-.54,3.95-.22c3.7-.2,7.35-.98,10.81-2.3l8.89-3.4h.02s37.13-14.21,37.13-14.21c.17-.06.36-.1.54-.1,2.73-.06,24.82-.47,28.11.8,2.54.98,19.08,12.53,27.06,18.15.66.46,1.34.89,2.04,1.28.01.01.02.01.03.02,2.34,1.3,4.91,2.16,7.58,2.55,2.24.33,5.03.72,8.04,1.13h0c.5.06,1.01.13,1.52.2h.01c.82.1,1.64.21,2.48.31.36.04.71-.06.99-.25.19-.14.35-.32.45-.53.1-.19.15-.4.15-.63"/>
                        <path class="cls-37" d="m421.02,13.94v74.95s82.6,19.32,161.31,0l2.96-74.95h-164.27Z"/>
                        <ellipse class="cls-32" cx="503.13" cy="13.94" rx="82.15" ry="13.94"/>
                      </g>
                      <ellipse class="cls-14" cx="346.42" cy="867.67" rx="2.76" ry="3.27"/>
                      <circle class="cls-15" cx="369.2" cy="898.02" r="2.8"/>
                      <ellipse class="cls-31" cx="413.07" cy="880.67" rx="2.24" ry="2.84"/>
                      <circle class="cls-31" cx="481.53" cy="913.22" r="3.01"/>
                      <circle class="cls-13" cx="516.37" cy="903.28" r="1.51"/>
                      <circle class="cls-11" cx="508.87" cy="918" r=".9"/>
                      <ellipse class="cls-31" cx="628.36" cy="891.09" rx="4.99" ry="5.86"/>
                      <circle class="cls-12" cx="629.52" cy="916.02" r="2.71"/>
                      <circle class="cls-6" cx="595.98" cy="897.63" r="1.38"/>
                      <circle class="cls-3" cx="652.6" cy="880.37" r=".99"/>
                      <circle class="cls-31" cx="650.14" cy="910.65" r="4.04"/>
                      <circle class="cls-4" cx="456.32" cy="896.62" r="1.4"/>
                      <circle class="cls-5" cx="460.05" cy="899.83" r=".99"/>
                      <circle class="cls-7" cx="413.67" cy="898.26" r="1.64"/>
                      <ellipse class="cls-31" cx="355.12" cy="915.72" rx="7.32" ry="4.65"/>
                      <circle class="cls-31" cx="340.19" cy="896.74" r="1.52"/>
                    </g>
                    <polyline class="cls-44" points="681.89 265.6 773.19 265.6 825.4 227.16 984.52 227.16"/>
                    <polyline class="cls-44" points="312.12 772.99 217.96 772.99 164.11 734.55 0 734.55"/>
                    <g>
                      <rect class="cls-43" x="434.34" y="31.46" width="1.68" height="60.03" rx=".84" ry=".84"/>
                      <rect class="cls-43" x="458.09" y="35.51" width="1.68" height="58.75" rx=".84" ry=".84"/>
                      <rect class="cls-43" x="480.46" y="37.57" width="1.68" height="58.75" rx=".84" ry=".84"/>
                      <rect class="cls-43" x="501.99" y="37.57" width="1.68" height="58.75" rx=".84" ry=".84"/>
                      <rect class="cls-43" x="524.49" y="37.57" width="1.68" height="58.75" rx=".84" ry=".84"/>
                      <rect class="cls-43" x="546.61" y="35.51" width="1.68" height="58.75" rx=".84" ry=".84"/>
                      <rect class="cls-43" x="569.47" y="31.46" width="1.68" height="58.75" rx=".84" ry=".84"/>
                    </g>
                  </g>
                </g>
                <g>
                  <path class="cls-34" d="m394.05,332.24v17.37c0,2.01.85,2.69,2.5,1.56l12.87-7.91c2.52-1.15,2.12-1.79.11-3.05l-12.87-9.46c-1.11-.81-2.61.04-2.61,1.49Z"/>
                  <g>
                    <path class="cls-35" d="m360.11,359.68s38-45.54,82.93,0"/>
                    <path class="cls-35" d="m360.11,359.68s38,45.54,82.93,0"/>
                  </g>
                  <path class="cls-34" d="m344.09,351.23v16.17c0,1.29,1.38,2.09,2.5,1.45l12.87-7.36c1.07-.61,1.13-2.14.11-2.84l-12.87-8.8c-1.11-.76-2.61.04-2.61,1.38Z"/>
                  <path class="cls-46" d="m380.14,353.06s-7.66,2.09.22,4.18"/>
                  <path class="cls-46" d="m393.2,347.54s-7.66,2.09.22,4.18"/>
                  <path class="cls-46" d="m388.96,355.88s-7.66,2.09.22,4.18"/>
                  <path class="cls-46" d="m400.62,352.43s-7.66,2.09.22,4.18"/>
                  <path class="cls-46" d="m402.39,343.36s-7.66,2.09.22,4.18"/>
                  <path class="cls-46" d="m384.3,365.7s-7.66,2.09.22,4.18"/>
                  <path class="cls-46" d="m407.67,355.88s-7.66,2.09.22,4.18"/>
                  <path class="cls-46" d="m408.81,348.26s-7.66,2.09.22,4.18"/>
                  <path class="cls-46" d="m422.81,345.88s-6.62,6.51-2.84,21.9"/>
                  <path class="cls-45" d="m425.4,357.32s4.05-8.59,8.39,0"/>
                  <ellipse class="cls-32" cx="429.59" cy="358.6" rx="3.44" ry="3.46"/>
                  <ellipse class="cls-16" cx="430.13" cy="358.32" rx="2.91" ry="2.92"/>
                  <path class="cls-34" d="m393.47,363.98v18.51c0,2.15.88,2.87,2.58,1.67l13.3-8.43c2.6-1.23,2.2-1.91.12-3.25l-13.3-10.08c-1.15-.87-2.7.04-2.7,1.58Z"/>
                </g>
                <g>
                  <path class="cls-29" d="m617.07,625.51l-.14,11.28c-.02,1.31-.52,1.74-1.49,1l-7.57-5.23c-1.49-.77-1.25-1.18-.04-1.98l7.71-6.05c.66-.52,1.55.05,1.54.98Z"/>
                  <g>
                    <path class="cls-20" d="m636.99,643.58s-22.19-29.85-49.23-.61"/>
                    <path class="cls-20" d="m636.99,643.58s-22.92,29.29-49.23-.61"/>
                  </g>
                  <path class="cls-29" d="m646.57,638.21l-.13,10.5c-.01.83-.84,1.35-1.49.93l-7.58-4.88c-.63-.41-.66-1.4-.04-1.84l7.71-5.62c.66-.48,1.55.04,1.54.92Z"/>
                  <path class="cls-47" d="m625.16,639.13s4.53,1.41-.16,2.71"/>
                  <path class="cls-47" d="m617.45,635.45s4.53,1.41-.16,2.71"/>
                  <path class="cls-47" d="m619.9,640.9s4.53,1.41-.16,2.71"/>
                  <path class="cls-47" d="m613.01,638.57s4.53,1.41-.16,2.71"/>
                  <path class="cls-47" d="m612.03,632.67s4.53,1.41-.16,2.71"/>
                  <path class="cls-47" d="m622.59,647.31s4.53,1.41-.16,2.71"/>
                  <path class="cls-47" d="m608.79,640.76s4.53,1.41-.16,2.71"/>
                  <path class="cls-47" d="m608.18,635.8s4.53,1.41-.16,2.71"/>
                  <path class="cls-47" d="m599.88,634.16s3.87,4.28,1.51,14.24"/>
                  <path class="cls-45" d="m598.25,641.99s-2.34-5.61-4.98-.06"/>
                  <ellipse class="cls-32" cx="595.76" cy="642.37" rx="2.24" ry="2.04" transform="translate(-53.96 1230.1) rotate(-89.29)"/>
                  <ellipse class="cls-16" cx="595.35" cy="642.37" rx="1.89" ry="1.73" transform="translate(-54.36 1229.69) rotate(-89.29)"/>
                  <path class="cls-29" d="m617.16,646.12l-.15,12.02c-.02,1.39-.54,1.85-1.54,1.06l-7.83-5.57c-1.54-.82-1.29-1.25-.04-2.11l7.98-6.45c.69-.56,1.6.05,1.59,1.05Z"/>
                </g>
                <g>
                  <path class="cls-17" d="m411.33,783.71v2.14c0,1.13.01,2.26.01,3.39,0,.25.02.5,0,.75-.69-.62-1.57-1.13-2.38-1.58-.42-.23-.88-.47-1.36-.57-.2-.04-.62-.09-.68.2,3.21,8.62.74,8.33.74,8.33-.52,0-1.04,0-1.56-.01-1.17,0-2.34-.02-3.51-.03l-4.87-.04c-.49,0-.98,0-1.47.02-.1,0-.2,0-.3,0-.46,0-.9-.15-1.33-.26-.47-.12-3.5-2.16-4.87-3.6-.36-.38-.74-.75-1.06-1.18-.07-.1-.18-.28-.21-.44-.03-.12-.04-.25-.05-.37,0-.14,0-.28,0-.42v-1.05c0-.74,0-1.48,0-2.22v-.95s0,1.85,0,.92c0-.5-.69-.88-1.06-1.09-.52-.3-1.07-.54-1.63-.75-.16-.06-.37-.11-.29-.28.25-.33,1.98-.72,2.67-1.4.15-.15.31-.34.31-.56,0-.92,0,.92,0,.92,0-.9,0-1.8,0-2.69,0-.55,0-1.1,0-1.65,0-.19-.03-.37,0-.56.05-.37.29-.58.47-.8.3-.38.82-.91,1.25-1.35.84-.87,1.75-1.66,2.74-2.34.59-.4,1.23-.77,1.92-.99.8-.27,1.54-.09,2.35-.1h1.17c1.23-.02,2.45-.04,3.68-.05l3.78-.04,1.87-.02s2.47-.3-.72,8.33c-.07.19.37.24.45.23.34-.01.69-.16,1-.3.67-.31,1.29-.71,1.9-1.12.34-.23.7-.59,1.07-.75.1.43,0,.91,0,1.35v4.9"/>
                  <circle class="cls-32" cx="391.23" cy="783.05" r="2.13"/>
                  <circle class="cls-21" cx="390.37" cy="782.36" r="1.28"/>
                  <rect class="cls-21" x="396.15" y="772.99" width="2.26" height="11.88" rx="1.13" ry="1.13"/>
                  <rect class="cls-21" x="396.15" y="779.6" width="2.26" height="5.94" rx="1.13" ry="1.13"/>
                  <rect class="cls-21" x="401.86" y="772.99" width="2.26" height="11.88" rx="1.13" ry="1.13"/>
                  <rect class="cls-21" x="401.86" y="779.6" width="2.26" height="5.94" rx="1.13" ry="1.13"/>
                </g>
                <g>
                  <path class="cls-17" d="m433.15,804.46v2.14c0,1.13.01,2.26.01,3.39,0,.25.02.5,0,.75-.69-.62-1.57-1.13-2.38-1.58-.42-.23-.88-.47-1.36-.57-.2-.04-.62-.09-.68.2,3.21,8.62.74,8.33.74,8.33-.52,0-1.04,0-1.56-.01-1.17,0-2.34-.02-3.51-.03l-4.87-.04c-.49,0-.98,0-1.47.02-.1,0-.2,0-.3,0-.46,0-.9-.15-1.33-.26-.47-.12-3.5-2.16-4.87-3.6-.36-.38-.74-.75-1.06-1.18-.07-.1-.18-.28-.21-.44-.03-.12-.04-.25-.05-.37,0-.14,0-.28,0-.42v-1.05c0-.74,0-1.48,0-2.22v-.95s0,1.85,0,.92c0-.5-.69-.88-1.06-1.09-.52-.3-1.07-.54-1.63-.75-.16-.06-.37-.11-.29-.28.25-.33,1.98-.72,2.67-1.4.15-.15.31-.34.31-.56,0-.92,0,.92,0,.92,0-.9,0-1.8,0-2.69,0-.55,0-1.1,0-1.65,0-.19-.03-.37,0-.56.05-.37.29-.58.47-.8.3-.38.82-.91,1.25-1.35.84-.87,1.75-1.66,2.74-2.34.59-.4,1.23-.77,1.92-.99.8-.27,1.54-.09,2.35-.1h1.17c1.23-.02,2.45-.04,3.68-.05l3.78-.04,1.87-.02s2.47-.3-.72,8.33c-.07.19.37.24.45.23.34-.01.69-.16,1-.3.67-.31,1.29-.71,1.9-1.12.34-.23.7-.59,1.07-.75.1.43,0,.91,0,1.35v4.9"/>
                  <circle class="cls-32" cx="413.06" cy="803.79" r="2.13"/>
                  <circle class="cls-21" cx="412.2" cy="803.79" r="1.28"/>
                  <rect class="cls-21" x="417.97" y="793.73" width="2.26" height="11.88" rx="1.13" ry="1.13"/>
                  <rect class="cls-21" x="417.97" y="800.34" width="2.26" height="5.94" rx="1.13" ry="1.13"/>
                  <rect class="cls-21" x="423.68" y="793.73" width="2.26" height="11.88" rx="1.13" ry="1.13"/>
                  <rect class="cls-21" x="423.68" y="800.34" width="2.26" height="5.94" rx="1.13" ry="1.13"/>
                </g>
                <circle class="cls-32" cx="576.02" cy="321.25" r="5.07"/>
                <circle class="cls-32" cx="484.01" cy="421.61" r="5.49"/>
                <circle class="cls-32" cx="601.02" cy="218.57" r="7.58"/>
                <circle class="cls-32" cx="620.44" cy="379.91" r="10.37"/>
                <circle class="cls-32" cx="358.91" cy="421.61" r="5.74"/>
                <circle class="cls-32" cx="595.74" cy="549.99" r="5.07"/>
                <circle class="cls-32" cx="376.09" cy="598.37" r="4.86"/>
                <circle class="cls-19" cx="388.14" cy="612.64" r="9.97"/>
                <circle class="cls-32" cx="409.16" cy="271.11" r="5.5"/>
                <circle class="cls-32" cx="412.32" cy="248.81" r="4.58"/>
                <circle class="cls-19" cx="586.1" cy="571.84" r="7.58"/>
                <circle class="cls-24" cx="612.88" cy="781.69" r="5.49"/>
                <circle class="cls-24" cx="566.34" cy="727.68" r="3.79"/>
                <circle class="cls-32" cx="581.65" cy="313.05" r="3.12"/>
                <circle class="cls-32" cx="376.09" cy="437.51" r="3.12"/>
                <circle class="cls-32" cx="578.68" cy="583.78" r="2.08"/>
                <circle class="cls-24" cx="342.38" cy="753.77" r="3.79"/>
                <circle class="cls-32" cx="422.81" cy="626.57" r="2.08"/>
                <circle class="cls-24" cx="443.04" cy="679.16" r="3.79"/>
                <g>
                  <path class="cls-29" d="m403.25,551.18l1.95,11.11c.23,1.29.8,1.63,1.63.74l6.63-6.38c1.34-1,1.04-1.36-.28-1.96l-8.59-4.73c-.74-.41-1.52.29-1.36,1.22Z"/>
                  <g>
                    <path class="cls-20" d="m386.49,572.22s17.1-33.03,48.49-8.52"/>
                    <path class="cls-20" d="m386.49,572.22s27.34,25.22,48.49-8.52"/>
                  </g>
                  <path class="cls-29" d="m376.18,568.46l1.82,10.34c.14.82,1.04,1.2,1.62.67l6.69-6.03c.56-.5.42-1.49-.25-1.83l-8.51-4.31c-.73-.37-1.52.29-1.37,1.15Z"/>
                  <path class="cls-47" d="m397.46,565.92s-4.25,2.12.6,2.65"/>
                  <path class="cls-47" d="m404.47,561.05s-4.25,2.12.6,2.65"/>
                  <path class="cls-47" d="m402.93,566.82s-4.25,2.12.6,2.65"/>
                  <path class="cls-47" d="m409.36,563.42s-4.25,2.12.6,2.65"/>
                  <path class="cls-47" d="m409.38,557.43s-4.25,2.12.6,2.65"/>
                  <path class="cls-47" d="m401.31,573.58s-4.25,2.12.6,2.65"/>
                  <path class="cls-47" d="m413.87,564.9s-4.25,2.12.6,2.65"/>
                  <path class="cls-47" d="m413.68,559.91s-4.25,2.12.6,2.65"/>
                  <path class="cls-47" d="m421.6,556.95s-3.14,4.84.81,14.3"/>
                  <path class="cls-45" d="m424.47,564.41s1.4-5.91,4.91-.86"/>
                  <ellipse class="cls-32" cx="427" cy="564.39" rx="2.04" ry="2.24" transform="translate(-91.28 82.46) rotate(-9.97)"/>
                  <ellipse class="cls-16" cx="427.33" cy="564.33" rx="1.73" ry="1.89" transform="translate(-91.26 82.52) rotate(-9.97)"/>
                  <path class="cls-29" d="m406.48,571.54l2.08,11.84c.24,1.37.83,1.74,1.7.8l6.83-6.76c1.38-1.05,1.07-1.44-.3-2.09l-8.91-5.08c-.77-.44-1.57.31-1.4,1.29Z"/>
                </g>
              </g>
              <path class="cls-34" d="m396.2,905.73l-2.52-.87c-.24-.08-.5-.04-.7.1l-2.1,1.56c-.51.38-1.24-.01-1.24-.65l.02-2.6c0-.26-.12-.5-.34-.65l-2.15-1.52c-.53-.37-.42-1.17.19-1.36l2.55-.78c.23-.07.42-.25.49-.49l.78-2.54c.18-.6.98-.71,1.36-.18l1.52,2.15c.15.21.4.34.65.34l2.6-.02c.64,0,1.03.73.65,1.24l-1.57,2.1c-.15.2-.19.46-.1.7l.87,2.52c.21.6-.35,1.16-.95.95Z"/>
              <path class="cls-34" d="m375.22,887.31l-5.31-.42c-.5-.04-1,.17-1.32.56l-3.4,4.14c-.82,1-2.43.61-2.7-.65l-1.12-5.12c-.11-.5-.47-.92-.95-1.11l-4.86-1.9c-1.19-.47-1.33-2.09-.24-2.76l4.61-2.83c.43-.26.7-.71.73-1.21l.39-5.4c.09-1.27,1.6-1.89,2.56-1.05l3.93,3.44c.39.34.92.46,1.42.33l5.06-1.36c1.25-.34,2.33.91,1.82,2.1l-2.11,4.93c-.2.46-.16,1,.11,1.43l2.82,4.52c.67,1.08-.17,2.46-1.43,2.36Z"/>
              <path class="cls-34" d="m609.93,906.24l-2.16-1.57c-.21-.15-.47-.19-.7-.11l-2.47.88c-.59.21-1.19-.37-.99-.99l.78-2.48c.08-.24.03-.52-.13-.72l-1.61-2.08c-.39-.51-.05-1.24.57-1.24h2.66c.25,0,.47-.12.61-.33l1.49-2.21c.35-.52,1.15-.39,1.35.22l.83,2.5c.08.25.28.44.52.51l2.49.74c.61.18.77,1,.26,1.38l-2.11,1.55c-.2.15-.31.38-.3.64l.09,2.67c.02.64-.68,1.01-1.19.63Z"/>
            </g>
            <g>
              <ellipse class="cls-40" cx="363.84" cy="283.83" rx="5.54" ry="8.19" transform="translate(-97.52 274.81) rotate(-36.84)"/>
              <rect class="cls-40" x="374.11" y="285.56" width="1.58" height="26.05" transform="translate(-104.16 284.38) rotate(-36.84)"/>
            </g>
            <g class="cls-39">
              <path class="cls-40" d="m431.39,222.54l15.35,15.65c.1.1.26.12.38.05,1.61-1,12.13-7.67,11.4-11.21-.01-.06-.04-.11-.07-.15l-13.39-16.82c-.11-.14-.31-.16-.45-.04l-13.2,12.03c-.14.13-.15.36-.01.49Z"/>
              <ellipse class="cls-42" cx="437.48" cy="215.04" rx="10.47" ry="3.4" transform="translate(-28.12 359.43) rotate(-43.41)"/>
            </g>
            <g>
              <path class="cls-40" d="m534.05,232.89s1.69,1.85,1.27,2.27-.82,3.41-.82,3.41l6.33,2.38,1.03,6.96s1.65,2.39,3.13,2.62,9.88,3.02,11.91,4.74,1.57,4.36,1.57,4.36l-7.1,7.58s-3.56.35-4.85-1.48l-8.6-6.95-1.83-9.09s-.23-1.95-5.31-3.73c0,0,.42-6.19-.91-9.48,0,0-.5-2.92,1.03-4.12l3.14.52Z"/>
              <path class="cls-23" d="m534.38,232.32l.15-1.18c.03-.24-.12-.47-.35-.51l-3.18-.53c-.22-.04-.43.13-.46.37l-.15,1.18c-.03.24.12.47.35.51l3.18.53c.22.04.43-.13.46-.37Z"/>
            </g>
            <path class="cls-40" d="m627.2,273.01l-10.94-6.29c-1.89-1.09-2.98-.3-4.72,1.11l-10.98,18.84c-.14,1.6-.55,3.85,1.34,4.93l10.94,6.2c2.83.25,2.91-.14,4.89-1.25l10.83-18.92c.05-1.96.29-3.13-1.37-4.61Zm-23.37,17.78c-1.77-1.02-2.36-3.32-1.31-5.15s3.34-2.48,5.11-1.46,2.36,3.32,1.31,5.15-3.33,2.48-5.11,1.46Zm4.49-7.8c-1.77-1.02-2.36-3.32-1.31-5.15s3.34-2.48,5.11-1.46,2.35,3.32,1.31,5.15-3.33,2.48-5.1,1.46Zm4.49-7.8c-1.77-1.02-2.36-3.32-1.31-5.15s3.34-2.48,5.11-1.46,2.35,3.32,1.31,5.15-3.33,2.48-5.11,1.46Zm-.49,20.49c-1.77-1.02-2.35-3.32-1.31-5.15s3.34-2.48,5.1-1.46,2.36,3.32,1.31,5.15-3.34,2.48-5.11,1.46Zm4.49-7.8c-1.77-1.02-2.36-3.32-1.31-5.15s3.34-2.48,5.11-1.46,2.36,3.32,1.31,5.15-3.34,2.48-5.11,1.46Zm4.49-7.8c-1.77-1.02-2.35-3.32-1.31-5.15s3.34-2.48,5.1-1.46,2.36,3.32,1.31,5.15-3.34,2.48-5.11,1.46Z"/>
            <path class="cls-32" d="m509.75,324.77s3.75,1.68,8.06,1.88c.82.04,1.58-.34,2.01-1.01,1.1-1.7,3.19-5.32,3.96-9.12,0,0,0-.02,0-.03.09-.32,1.87-6.61,1.68-8.81,0-.06,0-.12.02-.18l1.96-6.51c.22-.74-.15-1.56-.88-1.91h0c-.82-.4-1.77-.06-2.09.74-1.07,2.68-3.32,8.15-4.11,9.07-.71.83-2.79-.26-4.08-1.06-.71-.44-1.47-.77-2.26-1-1.35-.38-2.94-1.04-2.96-1.84-.04-1.25,1.6-6.95,2.43-9.72.25-.83-.27-1.74-1.14-2h0c-.77-.23-1.56.13-1.84.85l-2.43,6.14c-.06.15-.14.28-.24.4-1.48,1.64-3.84,7.3-4.03,7.75,0,.02-.02.04-.03.06-1.88,3.7-2.45,8.29-2.6,10.11-.04.51.17,1.02.57,1.36,2.42,2.1,5.18,3.39,6.63,4.03.61.27.83.5,1.53.87"/>
            <g>
              <path class="cls-40" d="m473.97,333.33l-8,11.68c-.11.1-8.99,2.6-8.92,2.72.91,1.66,8.55,14.06,10.95,11.36.31-.35,8.51-10.65,8.55-10.68l9.14-.76c.15-.11.18-.3.06-.44l-11.3-13.83c-.12-.15-.35-.17-.49-.04Z"/>
              <ellipse class="cls-42" cx="481.13" cy="339.81" rx="3.4" ry="10.47" transform="translate(-105.57 392.16) rotate(-40.33)"/>
            </g>
            <g>
              <path class="cls-40" d="m374.18,686.96l-8,11.68c-.11.1-8.99,2.6-8.92,2.72.91,1.66,8.55,14.06,10.95,11.36.31-.35,8.51-10.65,8.55-10.68l9.14-.76c.15-.11.18-.3.06-.44l-11.3-13.83c-.12-.15-.35-.17-.49-.04Z"/>
              <ellipse class="cls-41" cx="381.34" cy="693.44" rx="3.4" ry="10.47" transform="translate(-358.16 411.62) rotate(-40.33)"/>
            </g>
            <path class="cls-40" d="m603.35,871.64l-10.94-6.29c-1.89-1.09-2.98-.3-4.72,1.11l-10.98,18.84c-.14,1.6-.55,3.85,1.34,4.93l10.94,6.2c2.83.25,2.91-.14,4.89-1.25l10.83-18.92c.05-1.96.29-3.13-1.37-4.61Zm-23.37,17.78c-1.77-1.02-2.36-3.32-1.31-5.15s3.34-2.48,5.11-1.46,2.36,3.32,1.31,5.15-3.33,2.48-5.11,1.46Zm4.49-7.8c-1.77-1.02-2.36-3.32-1.31-5.15s3.34-2.48,5.11-1.46,2.35,3.32,1.31,5.15-3.33,2.48-5.1,1.46Zm4.49-7.8c-1.77-1.02-2.36-3.32-1.31-5.15s3.34-2.48,5.11-1.46,2.35,3.32,1.31,5.15-3.33,2.48-5.11,1.46Zm-.49,20.49c-1.77-1.02-2.35-3.32-1.31-5.15s3.34-2.48,5.1-1.46,2.36,3.32,1.31,5.15-3.34,2.48-5.11,1.46Zm4.49-7.8c-1.77-1.02-2.36-3.32-1.31-5.15s3.34-2.48,5.11-1.46,2.36,3.32,1.31,5.15-3.34,2.48-5.11,1.46Zm4.49-7.8c-1.77-1.02-2.35-3.32-1.31-5.15s3.34-2.48,5.1-1.46,2.36,3.32,1.31,5.15-3.34,2.48-5.11,1.46Z"/>
            <path class="cls-40" d="m370.41,771.67l-6.07-3.49c-1.05-.6-1.62-.22-2.53.47l-5.54,9.49c-.04.82-.21,1.97.84,2.58l6.07,3.44c1.54.19,1.58,0,2.62-.54l5.45-9.53c-.02-1.01.09-1.61-.84-2.41Zm-12.28,8.67c-.98-.57-1.35-1.77-.82-2.69s1.75-1.21,2.74-.64,1.35,1.77.82,2.69-1.75,1.21-2.74.64Zm2.26-3.93c-.98-.57-1.35-1.77-.82-2.69s1.75-1.21,2.74-.64,1.35,1.77.82,2.69-1.75,1.21-2.74.64Zm2.26-3.93c-.98-.57-1.35-1.77-.82-2.69s1.75-1.21,2.74-.64,1.35,1.77.82,2.69-1.75,1.21-2.74.64Zm.19,10.57c-.98-.56-1.35-1.77-.82-2.69s1.75-1.21,2.74-.64,1.35,1.77.82,2.69-1.75,1.21-2.74.64Zm2.26-3.93c-.98-.56-1.35-1.77-.82-2.69s1.75-1.21,2.74-.64,1.35,1.77.82,2.69-1.75,1.21-2.74.64Zm2.26-3.93c-.98-.56-1.35-1.77-.82-2.69s1.75-1.21,2.74-.64,1.35,1.77.82,2.69-1.75,1.21-2.74.64Z"/>
            <g>
              <path class="cls-40" d="m462.31,552.51l2.86,1.59s3.99-.36,4.43-1.59l1.54-2.2.99-1.96,1.18-2.31.5-1.66.62-1.96.24-.68c.05-.14.07-.28.07-.42v-.61l-.63.82c-.12.15-.22.31-.32.47l-.91,1.56-.7,1.22-.91,1.55-.44.8c-.06.11-.13.22-.19.33l-.54.83-.68.89-1.3-.71.74-1.54,1.11-1.6,2.85-4.86.19-.89-1.05.63-.62.74-.99,1.28-.84,1.26-.82,1.17-.5.74-.62.92-.99,1.01-.8.3-.19-.3c-.31-.49-.35-1.1-.11-1.63l.29-.64,1.1-1.51.79-1.13.74-1.01.85-1.24.59-.8.66-.69.11-.13c-.69,0-1.73.5-2.04,1.08h0s-1.48,1.69-1.48,1.69c-.16.18-.3.36-.44.55l-1.46,1.97-1.3,1.42-.62,1.6-.25,1.24-.25,2.25-.06,1.36-.35.78Z"/>
              <polygon class="cls-40" points="448.83 581.25 445.98 579.68 463.12 551.26 465.96 552.84 448.83 581.25"/>
            </g>
            <path class="cls-32" d="m480.31,730.98s4.17,1.65,9.1,1.53c.94-.02,2.09-4.18,2.64-5,1.41-2.1,3.41-3.76,5.08-7.42,0-.01,0-.02,0-.03.13-.39,2.68-7.93,2.65-10.5,0-.07-.04-.14-.01-.2l2.88-7.82c.32-.89-.05-1.82-.85-2.17h0c-.9-.4-2.02.08-2.46,1.05-1.46,3.24-4.5,9.86-5.49,11.01-.88,1.03-3.18-.07-4.6-.9-.77-.46-1.62-.78-2.51-.98-1.52-.33-3.29-.98-3.25-1.91.07-1.46,2.43-8.3,3.61-11.64.35-1-.16-2.03-1.13-2.26h0c-.86-.2-1.8.29-2.19,1.16l-3.31,7.42c-.08.18-.11.48-.24.63-1.84,2.06-5.1,8.77-5.35,9.32-.01.03-.02.05-.04.07,0,0-1.74,6.19-1.65,9.85.02.61.35,3.05.78,3.42,2.6,2.26,3.22,3.93,4.83,4.55.68.26.91.51,1.68.89"/>
            <g>
              <path class="cls-40" d="m365.76,825.3s.76,1.31,1.08,1.13,2.1.02,2.1.02l.25,4.24,3.82,1.69s1.08,1.38.96,2.32,0,6.51.64,8.01,2.23,1.63,2.23,1.63l5.61-3.19s.83-2.13,0-3.19l-2.49-6.32-4.91-2.5s-1.08-.44-1.21-3.82c0,0-3.63-.69-5.29-2,0,0-1.59-.75-2.55,0l-.25,2Z"/>
              <path class="cls-23" d="m365.37,825.41l-.7-.09c-.15-.02-.25-.15-.23-.29l.26-2.03c.02-.14.15-.25.3-.23l.7.09c.15.02.25.15.23.29l-.26,2.03c-.02.14-.15.25-.3.23Z"/>
            </g>
            <g>
              <path class="cls-40" d="m627.54,725.34s-1.16.98-.92,1.27.35,2.07.35,2.07l-4.13,1-.99,4.06s-1.16,1.31-2.11,1.35-6.41,1.15-7.78,2.04-1.21,2.48-1.21,2.48l4.13,4.96s2.24.44,3.14-.56l5.79-3.56,1.6-5.27s.24-1.14,3.55-1.87c0,0,.04-3.7,1.04-5.56,0,0,.46-1.7-.45-2.51l-2.02.1Z"/>
              <path class="cls-26" d="m627.36,724.98l-.04-.71c0-.15.1-.27.25-.28l2.04-.11c.14,0,.27.11.28.25l.04.71c0,.15-.1.27-.25.28l-2.04.11c-.14,0-.27-.11-.28-.25Z"/>
            </g>
            <g>
              <path class="cls-40" d="m436.48,874.26s-1.16.98-.92,1.27.35,2.07.35,2.07l-4.13,1-.99,4.06s-1.16,1.31-2.11,1.35-6.41,1.15-7.78,2.04-1.21,2.48-1.21,2.48l4.13,4.96s2.24.44,3.14-.56l5.79-3.56,1.6-5.27s.24-1.14,3.55-1.87c0,0,.04-3.7,1.04-5.56,0,0,.46-1.7-.45-2.51l-2.02.1Z"/>
              <path class="cls-26" d="m436.3,873.9l-.04-.71c0-.15.1-.27.25-.28l2.04-.11c.14,0,.27.11.28.25l.04.71c0,.15-.1.27-.25.28l-2.04.11c-.14,0-.27-.11-.28-.25Z"/>
            </g>
            <g>
              <path class="cls-40" d="m527.63,750.47l2.34-1s1.49-2.41.84-3.15l-.84-1.74-.91-1.33-1.08-1.58-.93-.93-1.08-1.12-.37-.4c-.07-.08-.16-.15-.26-.21l-.42-.24.29.68c.05.13.12.25.19.37l.67,1.13.53.87.67,1.13.36.56c.05.08.1.16.14.24l.34.63.31.74-1.06.46-.74-1.03-.61-1.26-2.1-3.53-.53-.45-.03.84.24.65.45,1.07.5.97.45.93.29.57.36.72.26.96-.15.57h-.29c-.47-.03-.91-.24-1.17-.59l-.32-.41-.56-1.22-.44-.89-.37-.82-.48-.97-.29-.65-.19-.65-.04-.11c-.3.39-.41,1.18-.15,1.59h0s.52,1.51.52,1.51c.05.16.12.31.18.47l.72,1.6.41,1.3.83.98.75.63,1.44,1.03.91.57.38.5Z"/>
              <polygon class="cls-40" points="541.52 769.44 539.2 770.44 527.13 749.53 529.45 748.53 541.52 769.44"/>
            </g>
            <path class="cls-38" d="m567.69,660.89l-10.94-6.29c-1.89-1.09-2.98-.3-4.72,1.11l-10.98,18.84c-.14,1.6-.55,3.85,1.34,4.93l10.94,6.2c2.83.25,2.91-.14,4.89-1.25l10.83-18.92c.05-1.96.29-3.13-1.37-4.61Zm-23.37,17.78c-1.77-1.02-2.36-3.32-1.31-5.15s3.34-2.48,5.11-1.46,2.36,3.32,1.31,5.15-3.33,2.48-5.11,1.46Zm4.49-7.8c-1.77-1.02-2.36-3.32-1.31-5.15,1.05-1.82,3.34-2.48,5.11-1.46s2.35,3.32,1.31,5.15-3.33,2.48-5.1,1.46Zm4.49-7.8c-1.77-1.02-2.36-3.32-1.31-5.15s3.34-2.48,5.11-1.46,2.35,3.32,1.31,5.15-3.33,2.48-5.11,1.46Zm-.49,20.49c-1.77-1.02-2.35-3.32-1.31-5.15s3.34-2.48,5.1-1.46,2.36,3.32,1.31,5.15-3.34,2.48-5.11,1.46Zm4.49-7.8c-1.77-1.02-2.36-3.32-1.31-5.15s3.34-2.48,5.11-1.46,2.36,3.32,1.31,5.15-3.34,2.48-5.11,1.46Zm4.49-7.8c-1.77-1.02-2.35-3.32-1.31-5.15s3.34-2.48,5.1-1.46,2.36,3.32,1.31,5.15-3.34,2.48-5.11,1.46Z"/>
            <g>
              <path class="cls-30" d="m582.88,820.07l-.23-.41c-.23-.42-.09-.97.31-1.21l1.09-.66c.41-.24.93-.1,1.16.33l.23.41c.23.42.09.97-.31,1.21l-1.09.66c-.41.24-.93.1-1.16-.33Z"/>
              <path class="cls-25" d="m567.99,829.18l-.19-.34c-1.02-1.85-.41-4.22,1.36-5.28l9.82-5.92c1.77-1.07,4.03-.43,5.05,1.42l.19.34c1.02,1.85.41,4.22-1.36,5.28l-9.82,5.92c-1.77,1.07-4.03.43-5.05-1.42Z"/>
              <path class="cls-28" d="m584.35,820l-.9-1.63c-.23-.42-.09-.97.31-1.21h0c.41-.24.93-.1,1.16.33l.9,1.63c.23.42.09.97-.31,1.21h0c-.41.24-.93.1-1.16-.33Z"/>
              <path class="cls-27" d="m576.56,819.1s.09,3.46,3.88,7.04l-3.07,1.85s-2.26-1.77-3.84-7.07l3.03-1.82Z"/>
              <path class="cls-18" d="m580.22,816.89s.42,1.83,1.42,3.52l-1.42-3.52Z"/>
              <path class="cls-18" d="m578.89,817.69s.36,1.6,1.23,3.07l-1.23-3.07Z"/>
              <path class="cls-18" d="m578.01,818.22s.26,1.55,1.1,2.93l-1.1-2.93Z"/>
              <path class="cls-18" d="m577,818.83s.24,1.39.99,2.63l-.99-2.63Z"/>
              <path class="cls-18" d="m572.56,821.51s.31,1.63,1.19,3.1l-1.19-3.1Z"/>
              <path class="cls-18" d="m571.55,822.12s.31,1.63,1.19,3.1l-1.19-3.1Z"/>
              <path class="cls-18" d="m570.54,822.72s.31,1.63,1.19,3.1l-1.19-3.1Z"/>
              <path class="cls-18" d="m569.53,823.33s.31,1.63,1.19,3.1l-1.19-3.1Z"/>
              <path class="cls-18" d="m584.15,823.91s-1.09-1.23-1.71-2.85l1.71,2.85Z"/>
              <path class="cls-18" d="m582.43,825.22s-1.03-1.24-1.65-2.85l1.65,2.85Z"/>
              <path class="cls-18" d="m581.58,825.62s-1.05-1.14-1.62-2.65l1.62,2.65Z"/>
              <path class="cls-18" d="m580.66,826.1s-.94-1.02-1.45-2.38l1.45,2.38Z"/>
              <path class="cls-18" d="m576.04,828.89s-1.08-1.22-1.7-2.83l1.7,2.83Z"/>
              <path class="cls-18" d="m575.08,829.46s-1.08-1.22-1.7-2.83l1.7,2.83Z"/>
              <path class="cls-18" d="m574.08,829.97s-1.08-1.22-1.7-2.83l1.7,2.83Z"/>
              <path class="cls-18" d="m573.11,830.56s-1.08-1.22-1.7-2.83l1.7,2.83Z"/>
              <path class="cls-18" d="m568.56,823.91s.31,1.63,1.19,3.1l-1.19-3.1Z"/>
              <path class="cls-18" d="m567.55,824.52s.31,1.63,1.19,3.1l-1.19-3.1Z"/>
              <path class="cls-18" d="m572.11,831.16s-1.08-1.22-1.7-2.83l1.7,2.83Z"/>
              <path class="cls-18" d="m571.13,831.75s-1.08-1.22-1.7-2.83l1.7,2.83Z"/>
            </g>
            <g>
              <rect class="cls-32" x="488.47" y="787.34" width="1.14" height="18.14" rx=".57" ry=".57" transform="translate(-431.37 634.28) rotate(-48.46)"/>
              <path class="cls-32" d="m482.52,791.22l-.39-.18c-.16-.08-.22-.27-.14-.44l3.85-7.59c.08-.17.28-.24.45-.17l.39.18c.16.08.22.27.14.44l-3.85,7.59c-.08.17-.28.24-.45.17Z"/>
              <ellipse class="cls-22" cx="486.38" cy="783.1" rx=".25" ry=".57" transform="translate(-423.02 934.09) rotate(-67.58)"/>
            </g>
            <g>
              <path class="cls-40" d="m506.65,861.22l5.27,4.72c.04.06.67,4.59.74,4.56.89-.33,7.6-3.24,6.42-4.6-.15-.18-4.72-4.9-4.74-4.92l.25-4.54c-.04-.08-.14-.11-.22-.06l-7.67,4.61c-.08.05-.11.16-.05.24Z"/>
              <ellipse class="cls-41" cx="510.37" cy="858.14" rx="5.25" ry="1.69" transform="translate(-376.76 400.02) rotate(-31.95)"/>
            </g>
            <g>
              <ellipse class="cls-40" cx="422.41" cy="716.37" rx="4.75" ry="7.24" transform="translate(-301.59 307.18) rotate(-30)"/>
              <rect class="cls-40" x="429.89" y="718.98" width="1.36" height="23.03" transform="translate(-307.56 313.15) rotate(-30)"/>
            </g>
            <path class="cls-32" d="m456.93,848.46s3.42,1.35,7.47,1.23c.77-.02,1.73-3.44,2.19-4.12,1.16-1.73,2.81-3.1,4.19-6.11,0,0,0-.02,0-.03.11-.32,2.23-6.52,2.21-8.64,0-.06-.03-.11,0-.17l2.39-6.44c.26-.73-.03-1.49-.69-1.78h0c-.74-.33-1.66.07-2.03.87-1.21,2.67-3.73,8.12-4.54,9.07-.73.85-2.61-.05-3.77-.73-.63-.37-1.33-.64-2.06-.8-1.24-.27-2.7-.79-2.66-1.56.06-1.2,2.02-6.83,3-9.58.29-.82-.13-1.67-.92-1.85h0c-.71-.17-1.48.24-1.8.96l-2.74,6.11c-.07.15-.1.4-.2.51-1.52,1.7-4.21,7.23-4.42,7.68,0,.02-.02.04-.03.06,0,0-1.45,5.1-1.38,8.11.01.5.28,2.5.63,2.81,2.13,1.85,2.63,3.22,3.95,3.73.56.21.74.42,1.38.73"/>
            <g>
              <rect class="cls-32" x="400.47" y="853.69" width="1.14" height="18.14" rx=".57" ry=".57" transform="translate(1150.62 276.83) rotate(76.92)"/>
              <path class="cls-32" d="m409.05,860.45l.38-.21c.15-.09.35-.02.44.14l3.97,7.53c.09.17.03.37-.12.46l-.38.21c-.15.09-.35.02-.44-.14l-3.97-7.53c-.09-.17-.03-.37.12-.46Z"/>
              <ellipse class="cls-22" cx="413.44" cy="868.3" rx=".57" ry=".25" transform="translate(-399.18 353.99) rotate(-32.21)"/>
            </g>
            <g class="cls-39">
              <path class="cls-30" d="m484.22,858.94l-.35.18c-.37.18-.8.05-.95-.31l-.43-.95c-.16-.35.01-.79.38-.97l.35-.18c.37-.18.8-.05.95.31l.43.95c.16.35-.01.79-.38.97Z"/>
              <path class="cls-25" d="m490.15,871.84l-.29.15c-1.61.8-3.47.2-4.16-1.34l-3.84-8.5c-.69-1.53.05-3.42,1.65-4.22l.29-.15c1.61-.8,3.47-.2,4.16,1.34l3.84,8.5c.69,1.53-.05,3.42-1.65,4.22Z"/>
              <path class="cls-36" d="m484.31,857.69l-1.42.7c-.37.18-.8.05-.95-.31h0c-.16-.35.01-.79.38-.97l1.42-.7c.37-.18.8-.05.95.31h0c.16.35-.01.79-.38.97Z"/>
              <path class="cls-27" d="m482.8,864.24s2.82.05,6.11-3.03l1.2,2.66s-1.66,1.84-6.12,2.99l-1.18-2.62Z"/>
              <path class="cls-18" d="m481.37,861.07s1.53-.29,3-1.08l-3,1.08Z"/>
              <path class="cls-18" d="m481.89,862.22s1.34-.24,2.62-.93l-2.62.93Z"/>
              <path class="cls-18" d="m482.23,862.98s1.29-.17,2.49-.82l-2.49.82Z"/>
              <path class="cls-18" d="m482.63,863.85s1.15-.15,2.23-.74l-2.23.74Z"/>
              <path class="cls-18" d="m484.37,867.71s1.36-.2,2.64-.89l-2.64.89Z"/>
              <path class="cls-18" d="m484.76,868.58s1.36-.2,2.64-.89l-2.64.89Z"/>
              <path class="cls-18" d="m485.15,869.45s1.36-.2,2.64-.89l-2.64.89Z"/>
              <path class="cls-18" d="m485.55,870.33s1.36-.2,2.64-.89l-2.64.89Z"/>
              <path class="cls-18" d="m487.57,858.22s-1.24.67-2.68.89l2.68-.89Z"/>
              <path class="cls-18" d="m488.36,859.5s-1.11.83-2.48,1.29l2.48-1.29Z"/>
              <path class="cls-18" d="m488.6,860.23s-1.03.84-2.32,1.27l2.32-1.27Z"/>
              <path class="cls-18" d="m488.9,861.03s-.92.75-2.08,1.14l2.08-1.14Z"/>
              <path class="cls-18" d="m490.71,865.03s-1.1.87-2.47,1.33l2.47-1.33Z"/>
              <path class="cls-18" d="m491.08,865.86s-1.1.87-2.47,1.33l2.47-1.33Z"/>
              <path class="cls-18" d="m491.39,866.72s-1.1.87-2.47,1.33l2.47-1.33Z"/>
              <path class="cls-18" d="m491.78,867.57s-1.1.87-2.47,1.33l2.47-1.33Z"/>
              <path class="cls-18" d="m485.93,871.16s1.36-.2,2.64-.89l-2.64.89Z"/>
              <path class="cls-18" d="m486.32,872.04s1.36-.2,2.64-.89l-2.64.89Z"/>
              <path class="cls-18" d="m492.17,868.43s-1.1.87-2.47,1.33l2.47-1.33Z"/>
              <path class="cls-18" d="m492.55,869.28s-1.1.87-2.47,1.33l2.47-1.33Z"/>
            </g>
            <g>
              <rect class="cls-32" x="636.5" y="866.23" width="1.14" height="18.14" rx=".57" ry=".57" transform="translate(-440.55 771.65) rotate(-48.46)"/>
              <path class="cls-32" d="m630.55,870.11l-.39-.18c-.16-.08-.22-.27-.14-.44l3.85-7.59c.08-.17.28-.24.45-.17l.39.18c.16.08.22.27.14.44l-3.85,7.59c-.08.17-.28.24-.45.17Z"/>
              <ellipse class="cls-22" cx="634.41" cy="861.98" rx=".25" ry=".57" transform="translate(-404.37 1119.74) rotate(-67.58)"/>
            </g>
            <g class="cls-39">
              <rect class="cls-30" x="598.5" y="494.47" width="4.13" height="5.69" rx="1.63" ry="1.63" transform="translate(1236.14 45.61) rotate(104.97)"/>
              <rect class="cls-30" x="575.63" y="474.94" width="14.94" height="35.99" rx="7.11" ry="7.11" transform="translate(1209.94 56.96) rotate(104.97)"/>
              <rect class="cls-28" x="598.45" y="496.02" width="6.73" height="3.26" rx="1.63" ry="1.63" transform="translate(1238.03 44.82) rotate(104.97)"/>
              <path class="cls-27" d="m590.37,487.15s-4.38,4.62-3.86,14.43l-6.58-1.76s-.77-5.37,3.96-14.4l6.48,1.73Z"/>
              <path class="cls-18" d="m598.22,489.25s-1.81,2.95-2.64,6.51l2.64-6.51Z"/>
              <path class="cls-18" d="m595.36,488.48s-1.6,2.57-2.31,5.67l2.31-5.67Z"/>
              <path class="cls-18" d="m593.48,487.98s-1.66,2.38-2.31,5.3l2.31-5.3Z"/>
              <path class="cls-18" d="m591.32,487.4s-1.48,2.13-2.07,4.75l2.07-4.75Z"/>
              <path class="cls-18" d="m581.8,484.86s-1.7,2.54-2.4,5.65l2.4-5.65Z"/>
              <path class="cls-18" d="m579.64,484.28s-1.7,2.54-2.4,5.65l2.4-5.65Z"/>
              <path class="cls-18" d="m577.48,483.7s-1.7,2.54-2.4,5.65l2.4-5.65Z"/>
              <path class="cls-18" d="m575.31,483.12s-1.7,2.54-2.4,5.65l2.4-5.65Z"/>
              <path class="cls-18" d="m594.44,503.72s.12-3.08,1.38-6.03l-1.38,6.03Z"/>
              <path class="cls-18" d="m590.41,503.08s.21-3.02,1.45-5.95l-1.45,5.95Z"/>
              <path class="cls-18" d="m588.73,502.45s.05-2.9,1.24-5.65l-1.24,5.65Z"/>
              <path class="cls-18" d="m586.85,501.83s.05-2.6,1.11-5.07l-1.11,5.07Z"/>
              <path class="cls-18" d="m576.96,499.19s.11-3.06,1.37-5.98l-1.37,5.98Z"/>
              <path class="cls-18" d="m574.9,498.64s.11-3.06,1.37-5.98l-1.37,5.98Z"/>
              <path class="cls-18" d="m572.88,497.94s.11-3.06,1.37-5.98l-1.37,5.98Z"/>
              <path class="cls-18" d="m570.8,497.38s.11-3.06,1.37-5.98l-1.37,5.98Z"/>
              <path class="cls-18" d="m573.24,482.57s-1.7,2.54-2.4,5.65l2.4-5.65Z"/>
              <path class="cls-18" d="m571.08,481.99s-1.7,2.54-2.4,5.65l2.4-5.65Z"/>
              <path class="cls-18" d="m568.65,496.8s.11-3.06,1.37-5.98l-1.37,5.98Z"/>
              <path class="cls-18" d="m566.57,496.25s.11-3.06,1.37-5.98l-1.37,5.98Z"/>
            </g>
            <g>
              <path class="cls-40" d="m526.91,817.13l6.79,5.63c.05.07,1.06,5.68,1.14,5.65,1.09-.46,9.3-4.39,7.76-6.03-.2-.21-6.11-5.88-6.13-5.91l.09-5.67c-.06-.1-.18-.13-.27-.07l-9.33,6.1c-.1.07-.13.2-.06.3Z"/>
              <ellipse class="cls-41" cx="531.39" cy="813.13" rx="6.53" ry="2.11" transform="translate(-364.83 438.5) rotate(-34.15)"/>
            </g>
            <path class="cls-32" d="m395.13,759.04s2.97-.31,5.73-1.68c.52-.26-.34-2.58-.32-3.13.03-1.39.56-2.73.18-4.95,0,0,0-.01,0-.02-.07-.22-1.37-4.56-2.33-5.79-.03-.03-.07-.06-.08-.1l-1.22-4.56c-.14-.51-.69-.87-1.27-.83h0c-.66.05-1.12.58-1.02,1.16.35,1.96,1.04,5.98.9,6.8-.12.74-1.83.81-2.94.78-.61-.02-1.21.05-1.79.19-.98.24-2.22.4-2.54-.07-.5-.73-1.65-4.67-2.2-6.6-.16-.58-.83-.94-1.47-.79h0c-.56.13-.92.62-.82,1.14l.83,4.48c.02.11.11.26.09.37-.29,1.49.31,5.61.36,5.94,0,.02,0,.03,0,.04,0,0,1.27,3.47,2.66,5.22.23.29,1.31,1.38,1.69,1.45,2.3.4,3.26,1.05,4.41.92.48-.05.7,0,1.28-.01"/>
            <g>
              <path class="cls-40" d="m628.77,825.4s.52,1.31.73,1.13,1.42.02,1.42.02l.17,4.24,2.58,1.69s.73,1.38.65,2.32,0,6.51.43,8.01,1.51,1.63,1.51,1.63l3.79-3.19s.56-2.13,0-3.19l-1.68-6.32-3.31-2.5s-.73-.44-.82-3.82c0,0-2.45-.69-3.57-2,0,0-1.08-.75-1.72,0l-.17,2Z"/>
              <path class="cls-23" d="m628.51,825.51l-.47-.09c-.1-.02-.17-.15-.16-.29l.17-2.03c.01-.14.1-.25.2-.23l.47.09c.1.02.17.15.16.29l-.17,2.03c-.01.14-.1.25-.2.23Z"/>
            </g>
            <path class="cls-40" d="m353.96,852.05l-6.07-3.49c-1.05-.6-1.81.11-3.05,1.37l-8.94,15.41c-.27,1.22-.78,2.95.27,3.56l6.08,3.42c1.73-.13,1.82-.44,3.17-1.5l8.86-15.46c.25-1.48.53-2.39-.32-3.31Zm-16.51,16.02c-.98-.57-1.08-2.23-.23-3.72s2.35-2.24,3.33-1.68,1.08,2.23.23,3.72-2.35,2.24-3.33,1.68Zm3.67-6.38c-.98-.57-1.08-2.23-.23-3.72s2.35-2.24,3.33-1.68,1.08,2.23.23,3.72-2.35,2.24-3.33,1.68Zm3.67-6.38c-.98-.57-1.08-2.23-.23-3.72s2.35-2.24,3.33-1.68,1.08,2.23.23,3.72-2.35,2.24-3.33,1.68Zm-2.63,15.47c-.98-.56-1.08-2.23-.23-3.72s2.35-2.24,3.33-1.68,1.08,2.23.23,3.72-2.35,2.24-3.33,1.68Zm3.67-6.38c-.98-.56-1.08-2.23-.23-3.72s2.35-2.24,3.33-1.68,1.08,2.23.23,3.72-2.35,2.24-3.33,1.68Zm3.67-6.38c-.98-.56-1.08-2.23-.23-3.72s2.35-2.24,3.33-1.68,1.08,2.23.23,3.72-2.35,2.24-3.33,1.68Z"/>
            <g>
              <ellipse class="cls-40" cx="462.25" cy="878.6" rx="4.27" ry="2.71" transform="translate(-458.77 508) rotate(-40.33)"/>
              <rect class="cls-40" x="454.53" y="878.04" width=".77" height="13.58" transform="translate(835.02 -34.63) rotate(49.67)"/>
            </g>
          </g>
        </g>
      </g>
    </g>
  </g>
</svg>