<?xml version="1.0" encoding="UTF-8"?>
<svg xmlns="http://www.w3.org/2000/svg" viewBox="0 0 303 284">
  <defs>
    <style>
      .cls-1 {
        fill: #666;
        stroke: #666;
      }

      .cls-1, .cls-2, .cls-3, .cls-4, .cls-5, .cls-6, .cls-7, .cls-8, .cls-9 {
        stroke-miterlimit: 10;
      }

      .cls-2 {
        fill: #191a00;
        stroke: #191a00;
      }

      .cls-3 {
        fill: #4d4d4d;
        stroke: #4d4d4d;
      }

      .cls-4 {
        fill: gray;
        stroke: gray;
      }

      .cls-5 {
        fill: #333;
        stroke: #333;
      }

      .cls-6 {
        fill: #b3b3b3;
        stroke: #b3b3b3;
      }

      .cls-7 {
        fill: #f2f2f2;
        stroke: #f2f2f2;
      }

      .cls-8 {
        fill: #ccc;
        stroke: #ccc;
      }

      .cls-9 {
        fill: #e6e6e6;
        stroke: #e6e6e6;
      }
    </style>
  </defs>
  <g id="Lag_23">
    <path class="cls-9" d="M115.5,124.5c.55-3.13.29-3.7,0-4-.77-.79-1.95.05-4,0-3.79-.09-4.36-3.09-9-4-2.11-.41-3.86-.16-5,0-.4.06-3.25.49-6,2-5.14,2.82-4.23,6.28-9,10-4.16,3.25-8.89,3.77-11,4-2.88.32-6.37.7-10-1-3.06-1.43-3.71-3.16-7-4-2.38-.61-4.06-.21-6,0-1.48.16-8.94.99-15-2-4.57-2.25-10.17-7.56-10-13,.06-1.89.8-3.13,0-5-1.01-2.37-3.04-2.36-5-5-.51-.69-2.58-3.48-2-6,.82-3.54,5.99-2.72,10-7,4.08-4.36,1.22-7.9,5-12,3.85-4.18,10.99-5.04,16-4,5.3,1.1,6.87,4.04,10,3,2.43-.81,2.41-2.9,6-8,4.88-6.94,7.36-6.54,8-10,1.07-5.77-5.47-8.68-4-13,1.35-3.97,7.16-2.36,12-8,3.24-3.77,1.56-5.55,5-10,3.51-4.54,8.18-6.44,12-8,6.15-2.51,9.87-4.03,14-3,9.42,2.35,9.3,15.11,20,18,.84.23,3.57.15,9,0,17.68-.5,18.91-1.72,22,0,5.38,2.99,9.9,11.26,9,18-.33,2.48-1.42,4.94,0,7,1.24,1.8,4.12,2.9,6,2,3.07-1.47.97-7.05,4-9,3.1-1.99,7.01,2.74,13,1,2.06-.6,1.75-1.2,5-3,2.98-1.65,10.67-5.9,16-3,3.11,1.69,4.38,5.26,5,7,1.84,5.18-.03,8.44,2,10,1.61,1.24,3.66-.16,8-1,2.31-.45,9.44-1.82,15,1,4.9,2.48,8.78,8.32,9,14,.24,6.19-3.98,8.93-2,14,.38.98.45.64,4,6,2.66,4.01,3.98,6.03,4,7,.06,3.57-4.34,4.93-9,10-5.14,5.6-3.06,7.52-7,12-8.6,9.78-22.22,4.86-27,14-1.45,2.77-1.34,5.4-4,7-3.3,1.98-8.42.89-9-1-.48-1.58,2.58-2.48,5-7,.77-1.44,2.51-4.79,2-9-.55-4.53-3.37-7.37-5-9-.56-.56-5.34-5.36-8-4-.5.25-.6.56-1,1-2.5,2.76-8.28,1.69-12,1-3.65-.68-6.2-1.15-9-3-2.11-1.39-2.82-2.55-5-3-2.84-.59-5.27.62-6,1-1.07.55-3.39,1.75-4,4-.42,1.54.3,2.31,1,5,.92,3.51,1.33,8.43,0,9-.83.35-2.26-1-3-2-1.74-2.37-.64-4.25-2-7-.81-1.65-1.96-2.49-4-4-2.31-1.7-5.05-3.73-8-3-.35.09-2.08.52-3,2-.71,1.15-.5,2.22,0,6,.7,5.31.71,6.39,0,7-.76.65-2.23.67-3,0-1.27-1.12.34-3.35,0-8-.07-1-.38-2.34-1-5-.96-4.16-1.43-4.74-2-5-.49-.22-.95-.16-4,1-3.16,1.21-3.26,1.37-5,2-3.23,1.17-3.87.97-5,2-.61.56-1.08,1.37-2,3-1.17,2.07-1.76,3.1-2,4-1.06,3.97,2.67,7.45,2,8-.63.51-4.67-1.83-5-5-.12-1.19.38-1.5,1-5Z"/>
    <path class="cls-7" d="M66.5,64.5c.47.67,3.99-1.95,9-3,6.13-1.28,11.39.45,13,1,5.18,1.77,12.19,6.11,15,8,.44.3,1.06.72,2,1,3.52,1.05,5.65-1.64,9-2,4.95-.54,10.9,4.18,11,8,.07,2.77-2.95,4.57-2,7,.39.99,1.14,1.33,2,2,3.61,2.79,4.54,7.61,5,10,1.16,6.02-1.16,10.53,0,11,1.05.42,2.75-3.35,5-3,1.45.22,1.38,1.88,3,3,2.73,1.89,5.64-.92,12-1,4.51-.05,4.14,1.34,8,1,5.39-.48,8.37-3.39,10-2,.94.81.22,2.01,1,4,1.1,2.81,4.01,4.13,6,5,10.77,4.7,23,1,23,1,6.19-1.87,7.72-4.08,11-3,3.39,1.12,7.19,5.26,7,9-.04.87-.29,1.31,0,2,.9,2.18,5.48,3.2,9,2,2.36-.8,2.24-1.92,8-8,3.27-3.45,4.14-3.97,5-6,.18-.43,2.24-5.47,0-8-1.43-1.62-3.37-.82-4-2-1.12-2.09,4.55-5.26,7-11,2.54-5.94,1.53-14.4-3-19-1.91-1.93-7.33-6.11-13-6-.95.02-2.8.18-4-1-1.34-1.32-.99-3.42-1-5-.02-4.84-3.46-10.68-7-12-5.34-2-8.88,7.04-19,7-4.33-.02-6.41-1.68-9,0-3.11,2.01-2.42,5.89-6,8-2.42,1.43-3.27-.02-6,1-5.96,2.23-4.96,10.29-12,14-1.85.97-3.77,1.4-4,1-.35-.6,3.62-2.24,5-6,1.17-3.18.31-7.45-2-10-1.76-1.94-3.25-1.64-5-4-1.6-2.15-1.54-4-2-5-2.75-6.03-24.33-.92-30,1-.36.12-1.34.47-2,0-1.62-1.16.96-5.71,1-10,.06-6.84-6.35-12.04-10-15-2.24-1.82-13.51-10.95-22-7-4.62,2.15-7.35,7.67-9,11-2.46,4.96-1.99,7.3-5,10-3.23,2.9-6.58,2.74-7,5-.41,2.19,2.61,3.05,3,6,.63,4.85-6.65,9.08-6,10Z"/>
    <path class="cls-7" d="M60.5,73.5c1.52-2.39,4.86-2.34,13-3,11.95-.97,11.48-1.62,13-1,7.13,2.89,5.51,12.28,13,15,3.88,1.41,6.22-.42,9,2,2.12,1.85,1.18,3.29,4,8,2.38,3.97,4.07,4.66,4,7-.06,2-1.38,3.96-3,5-2.56,1.64-4.73.27-11,0-4.76-.21-7.38-.32-10,1-2.61,1.32-2.92,2.9-7,9-4.32,6.46-6.55,9.73-10,12-1.84,1.21-6.34,4.17-11,3-3.76-.94-3.99-3.65-8-5-4.08-1.37-5.8.76-11,1-6.65.3-14.79-2.69-19-9-2.93-4.4-3-9-3-10,.01-2.62.62-5.75,11-20,6.42-8.82,7.59-9.55,9-10,6.67-2.13,13.47,3.74,16,1,1.43-1.54-.5-3.65,1-6Z"/>
  </g>
  <g id="Lag_20">
    <polygon class="cls-6" points="235.5 146.5 245.74 252.5 181.97 252.5 194.95 145.78 235.5 146.5"/>
    <rect class="cls-6" x="64.5" y="176.5" width="65.92" height="76"/>
    <rect class="cls-4" x="130.42" y="176.5" width="37.58" height="76"/>
    <rect class="cls-5" x="191.5" y="141.5" width="47.53" height="4.28"/>
    <polygon class="cls-3" points="153.5 125.5 153.5 128.07 164.5 128.5 164.5 125.5 153.5 125.5"/>
    <rect class="cls-3" x="132.5" y="125.5" width="11.4" height="3"/>
    <rect class="cls-3" x="112.08" y="125.5" width="10.74" height="2.1"/>
  </g>
  <g id="Lag_21">
    <polygon class="cls-1" points="122.82 128.5 122.82 176.5 107.59 176.5 113.34 128.5 122.82 128.5"/>
    <polygon class="cls-1" points="133.5 129.5 128.5 176.5 143.5 176.5 143.9 129.5 133.5 129.5"/>
    <polygon class="cls-1" points="154.28 128.5 148.44 176.5 164.19 176.5 164.19 128.99 154.28 128.5"/>
  </g>
  <g id="Lag_22">
    <polygon class="cls-3" points="192.59 165.2 237.31 165.2 238.05 172.9 191.65 172.9 192.59 165.2"/>
    <polygon class="cls-3" points="188.83 196.1 240.29 196.1 241.04 203.89 188.28 203.89 188.83 196.1"/>
    <polygon class="cls-3" points="243.24 226.66 243.96 234.15 184.2 234.15 185.11 226.66 243.24 226.66"/>
    <rect class="cls-8" x="144.67" y="211.82" width="64.14" height="40.68"/>
    <polygon class="cls-1" points="159.5 224.5 159.5 253.68 175.6 253.68 175.6 224.5 172.36 224.5 159.5 224.5"/>
    <rect class="cls-5" x="138.47" y="207.5" width="75.03" height="4.32"/>
    <path class="cls-8" d="M145.5,203.5c1.92-3.05,6.25-8.96,14-13,12.96-6.76,25.51-3.08,29-2,2.93.91,17.65,5.48,20,16,.22.99.29,1.84.31,2.43h-64.14l.83-3.43Z"/>
  </g>
  <g id="Lag_19">
    <rect class="cls-2" x="44.5" y="252.5" width="231.76" height="9.27"/>
  </g>
</svg>