<svg width="293" height="308" viewBox="0 0 293 308" fill="none" xmlns="http://www.w3.org/2000/svg">
<g clip-path="url(#clip0_237_127)">
<path d="M76.7477 143.801C72.8446 144.111 70.5492 144.292 67.9991 145.11C63.8018 146.456 60.5311 149.006 59.1264 150.597C50.7473 160.071 65.432 184.304 73.6565 197.871C76.8686 203.168 79.4958 206.769 84.1566 209.131C92.2353 213.222 101.706 211.194 104.94 210.332C113.468 208.055 115.096 204.119 119.539 205.155C125.52 206.545 130.436 215.506 127.986 221.185C126.259 225.186 121.35 226.439 112.681 228.648C106.833 230.142 102.1 230.431 99.8798 230.513C94.2484 230.719 86.3394 231.005 78.5155 227.422C72.3621 224.601 69.0146 220.649 64.0246 214.629C57.7468 207.052 54.7046 200.681 48.8749 188.241C43.047 175.807 40.1214 169.449 39.6454 162.793C39.3015 157.987 38.7732 148.802 44.5735 139.893C49.2724 132.668 55.7347 129.302 57.8786 128.215C61.3509 126.458 64.963 125.361 75.6316 124.138C96.9966 121.69 99.731 120.532 101.173 122.497C103.698 125.949 99.5053 133.081 96.9417 136.215C96.4766 136.785 91.7289 142.432 84.4038 143.518C82.0803 143.859 81.8475 143.4 76.7477 143.801Z" fill="#93D9FF" stroke="#93D9FF" stroke-miterlimit="10"/>
<path d="M57.8857 77.8524C59.1889 82.688 61.0982 89.7242 63.442 98.2204C65.7052 106.431 68.7054 117.292 70.742 124.261C75.8007 141.567 80.7983 154.919 85.0085 166.097C99.3009 204.055 100.982 199.241 113.069 229.909C113.069 229.909 120.299 248.258 133.627 260.153C135.782 262.078 137.974 263.439 138.199 263.577C141.195 265.422 146.008 267.682 153.775 268.447C166.211 269.675 180.94 266.548 191.087 263.878C207.635 259.523 218.389 254.707 222.215 252.931C240 244.677 244.526 238.836 246.515 235.804C249.942 230.577 251.097 225.676 252.033 221.69C253.691 214.627 253.575 208.957 252.195 194.736C251.01 182.544 250.361 175.852 248.622 164.79C248.092 161.414 246.33 150.414 242.926 134.806C241.206 126.919 238.467 115.074 233.813 98.2852C229.334 82.1323 222.433 59.0388 212.247 30.4083L57.8857 77.8524Z" fill="#93D9FF" stroke="#93D9FF" stroke-miterlimit="10"/>
<path d="M205.087 71.2411C203.455 70.6733 200.871 69.9843 197.687 70.0663C191.421 70.226 185.228 73.2748 181.739 77.7274C177.208 83.5075 178.215 90.4004 179.771 101.098C180.625 106.968 181.647 109.697 186.684 125.878C191.914 142.69 190.864 139.936 193.271 147.309C195.329 153.616 195.768 154.633 203.856 177.169C210.037 194.392 210.926 196.989 213.984 200.961C215.627 203.098 224.84 216.423 230.792 214.421C236.146 212.624 236.123 199.379 236.108 192.781C236.08 178.834 232.949 169.427 229.312 156.927C222.915 134.948 225.995 141.349 218.067 113.473C214.841 102.129 210.553 87.7874 205.087 71.2411Z" fill="#A7DBFF"/>
<path d="M57.8857 77.8523C57.7455 77.923 58.2875 79.2741 58.5579 79.9705C58.8438 80.7174 59.4967 82.9106 60.7917 87.3071C62.595 93.4032 66.0198 106.424 66.3481 107.675C69.1369 118.214 70.5294 123.478 71.5169 126.782C72.9637 131.65 74.4699 136.23 78.7471 148.016C83.2088 160.31 86.0684 168.538 90.557 179.569C92.2281 183.677 94.3265 189.634 98.1048 197.255C99.4655 200.01 100.106 201.11 101.522 203.793C108.543 217.109 108.998 220.674 115.517 233.295C119.571 241.148 122.345 245.477 124.414 248.497C129.873 256.457 133.36 259.49 136.138 261.451C140.31 264.397 144.076 265.771 145.344 266.209C149.636 267.691 154.023 268.268 162.074 267.966C171.955 267.592 179.881 266.17 184.461 265.224C187.176 264.666 198.771 262.199 213.404 256.329C222.866 252.53 228.35 249.417 229.995 248.47C236.343 244.801 246.788 237.927 245.872 236.001C245.28 234.762 240.382 236.392 234.357 237.471C220.992 239.861 210.461 238.027 200.192 236.244C192.234 234.861 180.408 231.997 167.366 225.637C148.304 216.34 136.77 204.508 129.76 197.184C125.023 192.238 114.346 180.404 105.079 162.688C100.111 153.191 97.6007 145.939 93.2066 133.223C89.0024 121.056 82.9678 97.6205 81.4508 92.6851C80.2962 88.9284 79.4805 87.9235 79.5135 86.3819C79.5203 86.1521 79.5504 85.4944 79.126 85.1212C78.5193 84.5902 77.3694 84.9713 77.0028 85.084C74.3214 85.8874 70.5397 84.9663 66.836 84.0696C63.8472 83.3464 61.9764 82.8935 60.3345 81.2389C58.8472 79.7437 58.0581 77.7717 57.8857 77.8523Z" fill="#72C5FF"/>
<path d="M141.072 73.6703C183.697 60.5689 215.563 41.1999 212.247 30.4083C208.93 19.6167 171.686 21.4891 129.06 34.5904C86.4348 47.6918 54.5688 67.0608 57.8856 77.8524C61.2025 88.644 98.4463 86.7716 141.072 73.6703Z" fill="#5DBDFF"/>
<path d="M140.165 68.4299C180.304 56.0928 210.892 39.742 208.484 31.9094C206.077 24.0768 171.586 27.7284 131.447 40.0655C91.308 52.4026 60.7204 68.7534 63.1278 76.586C65.5352 84.4186 100.026 80.767 140.165 68.4299Z" fill="#003772"/>
<path d="M60.0018 128.252C58.1842 127.079 52.5218 132.338 49.5871 135.592C46.5535 138.96 41.5477 144.5 40.149 152.98C39.0793 159.463 40.6663 164.328 43.3883 172.681C44.4653 175.978 46.4278 180.142 50.3549 188.476C57.2398 203.089 58.1524 203.333 58.4142 203.245C59.1589 202.989 58.3461 198.81 58.1506 197.808C56.4337 189.015 52.7675 184.347 50.4091 179.491C48.9658 176.513 44.1232 166.529 47.038 157.072C49.4687 149.178 55.5128 147.451 59.3665 135.346C60.1069 133.014 61.3192 129.103 60.0018 128.252Z" fill="#A7DBFF" stroke="#93D9FF" stroke-miterlimit="10"/>
</g>
<defs>
<clipPath id="clip0_237_127">
<rect width="228.101" height="251.899" fill="white" transform="translate(0 67.0146) rotate(-17.0853)"/>
</clipPath>
</defs>
</svg>
