<?xml version="1.0" encoding="UTF-8"?>
<svg id="Layer_2" data-name="Layer 2" xmlns="http://www.w3.org/2000/svg" viewBox="0 0 1277.67 616.06">
  <defs>
    <style>
      .cls-1, .cls-2 {
        stroke: #dd7003;
        stroke-miterlimit: 10;
        stroke-width: 5px;
      }

      .cls-1, .cls-3 {
        fill: #dd7003;
      }

      .cls-2 {
        fill: none;
      }

      .cls-4 {
        fill: #fb8500;
      }

      .cls-4, .cls-5, .cls-6, .cls-7, .cls-8, .cls-9, .cls-10, .cls-11, .cls-12, .cls-3, .cls-13, .cls-14, .cls-15, .cls-16, .cls-17, .cls-18, .cls-19 {
        stroke-width: 0px;
      }

      .cls-5 {
        fill: #505d63;
      }

      .cls-6 {
        fill: #29abe2;
      }

      .cls-7 {
        fill: #272f39;
      }

      .cls-8 {
        fill: #1a1a1a;
      }

      .cls-9 {
        fill: #0499ad;
      }

      .cls-10 {
        fill: #219ebc;
      }

      .cls-11 {
        fill: #16272f;
      }

      .cls-12 {
        fill: #da1606;
      }

      .cls-13 {
        fill: #bed8f1;
      }

      .cls-14 {
        fill: #8f9ba3;
      }

      .cls-15 {
        fill: #8d9ba3;
      }

      .cls-16 {
        fill: #fff;
      }

      .cls-17 {
        fill: #ed1c24;
      }

      .cls-18 {
        fill: #e8e8e8;
      }

      .cls-19 {
        fill: #00b4d8;
      }
    </style>
  </defs>
  <g id="Layer_3" data-name="Layer 3">
    <g>
      <g>
        <g>
          <g>
            <rect class="cls-17" y="413.06" width="25" height="38" rx="4.62" ry="4.62"/>
            <g>
              <rect class="cls-7" x="12" y="397.06" width="13" height="72"/>
              <rect class="cls-7" x="12" y="414.06" width="65" height="36"/>
            </g>
          </g>
          <rect class="cls-7" x="77" y="342.06" width="1127" height="137"/>
          <rect class="cls-15" x="687.5" y="398.56" width="197" height="94" rx="16.82" ry="16.82"/>
          <g>
            <path class="cls-15" d="m644,454.92v20.88c0,4.45-6.11,5.76-7.9,1.68-21.38-48.7-65.06-63.92-109.6-63.92-37.88,0-74.56.49-106.28,49.59-.76,1.18-2.07,1.91-3.48,1.91h-58.47c-1.41,0-2.72-.73-3.48-1.92-29.82-46.36-67.66-56.58-106.28-56.58-45.59,0-60.67,5.52-102.75,71.21-4.23,6.6-14.46,3.68-14.54-4.16l-.2-18.69c0-41.62,31.82-75.36,71.07-75.36h370.86c39.25,0,71.07,33.74,71.07,75.36Z"/>
            <polygon class="cls-15" points="354.78 463.14 369 496.06 405.73 496.06 416.74 465.06 354.78 463.14"/>
          </g>
          <path class="cls-10" d="m132.14,3.77c5.33-2.39,11.47-3.77,18.99-3.77,178.91,0,357.81.04,536.72.06,1.83,0,3.66,0,5.48,0,63.42,0,128.59.01,192.67.02,0,129.98,0,259.97,0,389.95-290.25.03-580.5.06-870.74.08-.64-70.46-1.27-140.93-1.91-211.39-.15-16.93-.2-34.43,6.5-49.98,4.4-10.22,11.48-19.01,18.59-27.56,19-22.83,38.88-44.92,59.59-66.22,12.29-12.64,20.58-25.14,34.11-31.2Z"/>
          <path class="cls-4" d="m1268,482.48c-14.12,1.94-28.11,5-42.35,5.91-12.04.77-23.56-.99-35.42-2.79-3.82-54.79-49.47-98.04-105.23-98.04-44.78,0-83.03,27.89-98.34,67.24,0,0-64.16-9.71-64.16-9.71V118.01c0-8.01,0-16.01,0-24.02,0-6.08-.61-9.08,4-13.18,3.54-3.15,7.07-6.29,10.61-9.44,7.75-6.89,21.72-4.31,31.6-4.31h127.11c8.42,0,16.85-.02,25.27,0,2.5,0,2.75.24,3.99,1.91,1.84,2.49,3.67,5,5.51,7.5,6.93,9.43,13.86,18.85,20.79,28.28,9.65,13.13,19.31,26.27,28.96,39.4l31.33,42.62c9.29,12.64,18.59,25.29,27.88,37.93,6.21,8.45,12.42,16.9,18.63,25.34,1.57,2.16,4.36,4.41,4.45,7.19.03,1.11.05,2.22.08,3.33.1,4.11.2,8.23.29,12.34.15,6.2.3,12.41.44,18.61.19,7.77.37,15.54.56,23.31.21,8.82.42,17.63.63,26.45.22,9.34.45,18.67.67,28.01s.45,18.67.67,28.01c.21,8.81.42,17.63.63,26.44.19,7.77.37,15.54.56,23.3.15,6.2.3,12.4.44,18.6.1,4.11.2,8.22.29,12.33.04,1.5.07,2.99.11,4.49Z"/>
          <g>
            <circle class="cls-11" cx="252" cy="512.06" r="104"/>
            <circle class="cls-11" cx="523" cy="512.06" r="104"/>
            <circle class="cls-11" cx="1085" cy="512.06" r="104"/>
          </g>
          <g>
            <g>
              <circle class="cls-5" cx="253" cy="514.06" r="64.5"/>
              <circle class="cls-5" cx="523" cy="514.06" r="64.5"/>
              <circle class="cls-5" cx="1085" cy="514.06" r="64.5"/>
            </g>
            <g>
              <ellipse class="cls-14" cx="253.5" cy="514.06" rx="52" ry="48.5"/>
              <ellipse class="cls-14" cx="523" cy="514.56" rx="52" ry="48.5"/>
              <ellipse class="cls-14" cx="1085" cy="514.56" rx="52" ry="48.5"/>
            </g>
            <g>
              <g>
                <circle class="cls-8" cx="252" cy="483.06" r="6"/>
                <circle class="cls-8" cx="275" cy="493.06" r="6"/>
                <circle class="cls-8" cx="284" cy="515.06" r="6"/>
                <circle class="cls-8" cx="275" cy="539.06" r="6"/>
                <circle class="cls-8" cx="252" cy="548.06" r="6"/>
                <circle class="cls-8" cx="230" cy="539.06" r="6"/>
                <circle class="cls-8" cx="220" cy="515.06" r="6"/>
                <circle class="cls-8" cx="230" cy="493.06" r="6"/>
              </g>
              <g>
                <circle class="cls-8" cx="523" cy="482.06" r="6"/>
                <circle class="cls-8" cx="546" cy="492.06" r="6"/>
                <circle class="cls-8" cx="555" cy="514.06" r="6"/>
                <circle class="cls-8" cx="546" cy="538.06" r="6"/>
                <circle class="cls-8" cx="523" cy="547.06" r="6"/>
                <circle class="cls-8" cx="501" cy="538.06" r="6"/>
                <circle class="cls-8" cx="491" cy="514.06" r="6"/>
                <circle class="cls-8" cx="501" cy="492.06" r="6"/>
              </g>
              <g>
                <circle class="cls-8" cx="1085" cy="483.06" r="6"/>
                <circle class="cls-8" cx="1108" cy="493.06" r="6"/>
                <circle class="cls-8" cx="1117" cy="515.06" r="6"/>
                <circle class="cls-8" cx="1108" cy="539.06" r="6"/>
                <circle class="cls-8" cx="1085" cy="548.06" r="6"/>
                <circle class="cls-8" cx="1063" cy="539.06" r="6"/>
                <circle class="cls-8" cx="1053" cy="515.06" r="6"/>
                <circle class="cls-8" cx="1063" cy="493.06" r="6"/>
              </g>
            </g>
            <g>
              <circle class="cls-16" cx="253" cy="514.06" r="17"/>
              <circle class="cls-16" cx="523" cy="514.06" r="17"/>
              <circle class="cls-16" cx="1085" cy="514.06" r="17"/>
            </g>
          </g>
          <path class="cls-10" d="m140.15,20.53c5.18-2.21,11.16-3.5,18.48-3.5,174.05,0,348.1.04,522.14.06,1.78,0,3.56,0,5.33,0,61.7,0,125.1.01,187.44.02,0,120.61,0,241.23,0,361.84-282.37.03-564.74.05-847.1.08-.62-65.39-1.24-130.77-1.86-196.16-.15-15.71-.19-31.95,6.32-46.37,4.28-9.48,11.17-17.64,18.09-25.58,18.48-21.18,37.83-41.69,57.97-61.44,11.96-11.73,20.02-23.33,33.18-28.95Z"/>
          <polygon class="cls-19" points="229 17.03 238.13 17.03 238.1 379.85 229 379.85 229 17.03"/>
          <polygon class="cls-19" points="237.66 17.03 247.75 17.03 247 380.69 237.66 380.69 237.66 17.03"/>
          <polygon class="cls-9" points="240.13 16.14 248.13 16.14 247.53 379.8 240.13 379.8 240.13 16.14"/>
          <g>
            <line class="cls-2" x1="984" y1="306.22" x2="984" y2="417.06"/>
            <line class="cls-2" x1="1186.5" y1="307.78" x2="1139.5" y2="401.31"/>
          </g>
          <path class="cls-3" d="m975.24,124.06h138.59l89.17,123.4v29.6l-208.61-3.52s-14.11,2.09-19.15-22.03,0-127.45,0-127.45Z"/>
          <path class="cls-3" d="m975.24,124.06h138.59s-5.83-19-20.83-19h-98.05s-11.47,1-19.71,19Z"/>
          <g>
            <path class="cls-6" d="m984,132.96h123.52l79.48,108.16v25.95l-185.94-3.08s-12.58,1.83-17.07-19.31c-4.49-21.14,0-111.71,0-111.71Z"/>
            <path class="cls-6" d="m984,132.96h123.52s-5.19-16.9-18.56-16.9h-87.39s-10.22.89-17.57,16.9Z"/>
          </g>
          <g>
            <path class="cls-7" d="m1208,256.23v17.66c0,9.09-7.07,16.53-16,17.13-.39.03-.78.04-1.17.04h-10.83v-1.57c.34-.15.67-.31,1-.49,5.36-2.91,9-8.59,9-15.11v-17.66c0-6.52-3.64-12.2-9-15.11v-2.06h9.83c.39,0,.78.01,1.17.05.33.01.67.05,1,.09,8.46,1.06,15,8.29,15,17.03Z"/>
            <rect class="cls-7" x="1180" y="239.06" width="12" height="52"/>
          </g>
          <g>
            <polygon class="cls-13" points="1000.13 116.1 1063.69 266.03 1106.52 266.03 1038.42 116.1 1000.13 116.1"/>
            <polygon class="cls-13" points="1060 116.1 1073.02 116.1 1143 267.06 1130.9 267.06 1060 116.1"/>
          </g>
          <path class="cls-3" d="m951.55,67.03v7.06c-1.08.72-2.06,1.77-2.9,3.27-1.76,3.13-3.51,6.28-5.26,9.42-2.29,4.1-1.99,7.09-1.99,13.15v350.1l-18.86-5.74V93.91c0-6.08-.3-9.07,1.99-13.15,1.74-3.15,3.5-6.29,5.26-9.43,3.84-6.87,10.77-4.3,15.67-4.3h6.09Z"/>
          <polygon class="cls-19" points="305.53 18.06 314.65 18.06 314.63 380.88 305.53 380.88 305.53 18.06"/>
          <polygon class="cls-9" points="316.65 17.17 324.65 17.17 324.06 380.83 316.65 380.83 316.65 17.17"/>
          <polygon class="cls-19" points="377.98 17.03 387.11 17.03 387.08 379.85 377.98 379.85 377.98 17.03"/>
          <polygon class="cls-9" points="389.11 16.13 397.11 16.13 396.52 379.79 389.11 379.79 389.11 16.13"/>
          <polygon class="cls-19" points="445.98 17.03 455.11 17.03 455.08 379.85 445.98 379.85 445.98 17.03"/>
          <polygon class="cls-9" points="457.11 16.13 465.11 16.13 464.52 379.79 457.11 379.79 457.11 16.13"/>
          <polygon class="cls-19" points="513.75 17.75 522.87 17.75 522.85 380.58 513.75 380.58 513.75 17.75"/>
          <polygon class="cls-9" points="524.87 16.86 532.87 16.86 532.28 380.52 524.87 380.52 524.87 16.86"/>
          <polygon class="cls-19" points="586.75 16.75 595.87 16.75 595.85 379.58 586.75 379.58 586.75 16.75"/>
          <polygon class="cls-9" points="597.87 15.86 605.87 15.86 605.28 379.52 597.87 379.52 597.87 15.86"/>
          <polygon class="cls-19" points="655.75 18.75 664.87 18.75 664.85 381.58 655.75 381.58 655.75 18.75"/>
          <polygon class="cls-9" points="666.87 17.86 674.87 17.86 674.28 381.52 666.87 381.52 666.87 17.86"/>
          <polygon class="cls-19" points="730.75 18.75 739.87 18.75 739.85 381.58 730.75 381.58 730.75 18.75"/>
          <polygon class="cls-9" points="741.87 17.86 749.87 17.86 749.28 381.52 741.87 381.52 741.87 17.86"/>
          <polygon class="cls-19" points="802.75 17.75 811.87 17.75 811.85 380.58 802.75 380.58 802.75 17.75"/>
          <polygon class="cls-9" points="813.87 16.86 821.87 16.86 821.28 380.52 813.87 380.52 813.87 16.86"/>
          <polygon class="cls-19" points="159.36 17.12 168.48 17.12 168.46 379.94 159.36 379.94 159.36 17.12"/>
          <polygon class="cls-9" points="170.48 16.23 178.48 16.23 177.89 379.89 170.48 379.89 170.48 16.23"/>
          <polygon class="cls-19" points="864.07 18.21 873.19 18.21 873.16 381.03 864.07 381.03 864.07 18.21"/>
          <polygon class="cls-9" points="875.19 17.31 883.19 17.31 882.6 380.97 875.19 380.97 875.19 17.31"/>
          <polygon class="cls-19" points="101.56 49.91 110.69 49.91 110.66 379.96 101.56 379.96 101.56 49.91"/>
          <polygon class="cls-9" points="112.69 49.1 120.69 49.1 120.1 379.91 112.69 379.91 112.69 49.1"/>
        </g>
        <polygon class="cls-19" points="48.51 112.76 57.63 112.76 57.61 380.92 48.51 380.92 48.51 112.76"/>
        <polygon class="cls-9" points="59.63 112.1 67.63 112.1 67.04 380.88 59.63 380.88 59.63 112.1"/>
      </g>
      <path class="cls-1" d="m1032.07,324.1c0,1.55-.39,3.01-1.09,4.29-.41.77-.94,1.46-1.55,2.07-1.62,1.63-3.88,2.64-6.36,2.64h-20c-3.42,0-6.39-1.9-7.91-4.71-.7-1.28-1.09-2.74-1.09-4.29,0-2.48,1.01-4.74,2.64-6.36,1.62-1.63,3.88-2.64,6.36-2.64h20c4.97,0,9,4.03,9,9Z"/>
      <path class="cls-4" d="m1031.13,329.3c0,.5-.03.99-.09,1.46-.41.87-.94,1.65-1.55,2.35-1.62,1.85-3.88,2.99-6.36,2.99h-20c-3.42,0-6.39-2.15-7.91-5.34-.06-.48-.09-.96-.09-1.46,0-2.81,1.01-5.37,2.64-7.21,1.62-1.85,3.88-2.99,6.36-2.99h18c4.97,0,9,4.57,9,10.2Z"/>
      <path class="cls-18" d="m1276.6,390.11l1.07,62.55h-36.21s-12.95-6.36-14.02-15.9,0-33.8,0-33.8c0,0,5.59-12.85,14.02-12.85,8.42,0,35.14,0,35.14,0Z"/>
      <g>
        <path class="cls-12" d="m1265.3,324.02v-17.7h-11.47s-2.53,1.7-2.53,2.7v15h14Z"/>
        <rect class="cls-18" x="1251.3" y="324.02" width="14" height="36.02"/>
      </g>
    </g>
  </g>
</svg>