<?xml version="1.0" encoding="UTF-8"?>
<svg xmlns="http://www.w3.org/2000/svg" xmlns:xlink="http://www.w3.org/1999/xlink" viewBox="0 0 290 149">
  <defs>
    <style>
      .cls-1 {
        fill: #d0f1ff;
        stroke: #d0f1ff;
      }

      .cls-1, .cls-2, .cls-3, .cls-4, .cls-5, .cls-6, .cls-7, .cls-8, .cls-9, .cls-10, .cls-11 {
        stroke-miterlimit: 10;
      }

      .cls-2 {
        fill: #ff8f5d;
        stroke: #ff8f5d;
      }

      .cls-3 {
        fill: #57bb00;
        stroke: #57bb00;
      }

      .cls-4 {
        fill: #26a100;
        stroke: #26a100;
      }

      .cls-5 {
        fill: #ffde0d;
        stroke: #ffde0d;
      }

      .cls-6 {
        fill: #fff;
        stroke: #fff;
      }

      .cls-7 {
        fill: #e4fffe;
        stroke: #e4fffe;
      }

      .cls-8 {
        stroke: #000;
      }

      .cls-9 {
        fill: none;
      }

      .cls-9, .cls-10 {
        stroke: #b43700;
      }

      .cls-10 {
        fill: #b43700;
      }

      .cls-11 {
        fill: #e45f00;
        stroke: #e45f00;
      }
    </style>
  </defs>
  <g id="Lag_1">
    <image width="612" height="465" transform="translate(-26 -76) scale(.59 .67)" xlink:href="../../istockphoto-1367715441-612x612.jpg"/>
  </g>
  <g id="Lag_13">
    <ellipse class="cls-1" cx="143" cy="76.5" rx="120.5" ry="52"/>
    <ellipse class="cls-7" cx="143.5" cy="74.5" rx="110" ry="38"/>
  </g>
  <g id="Lag_15">
    <path class="cls-3" d="M174.5,53.5c7.35-4.01,11.03-6.01,11-6,4.41-1.88,3.85-2.18,19-11,14.39-8.38,21.58-12.57,22-12,1.06,1.45-24.56,22.08-43,36-.19.14-1.64,1.64-4,3-2.65,1.53-8.81,4.29-11,2-1.62-1.69-.57-5.63,1-8,1.32-1.99,3.02-2.92,5-4Z"/>
    <path class="cls-3" d="M253.5,18.5c-2.09-2.79-50.63,30.6-69,36-.61.18-4.49,1.3-9,4-5.98,3.58-11.96,9.27-11,11,.3.55,1.78,1.55,15-3,15.44-5.31,33.88-11.86,55-29,8.05-6.53,20.09-17.53,19-19Z"/>
    <path class="cls-4" d="M270.5,34.5c-15.49,2.31-28.63,5.72-39,9-14.7,4.65-25.12,9.43-35,14-8.38,3.88-24.52,11.73-24,13,.35.85,8.57-1.76,25-7,7.06-2.25,9.53-3.12,27-9,19.54-6.58,23.48-7.86,30-11,6.92-3.33,12.37-6.64,16-9Z"/>
    <path class="cls-4" d="M262.5,55.5c.04-1.02-9.92-2.48-19-3-13.65-.79-24.15.61-27,1-26.22,3.61-58.41,11.99-58,14,.26,1.25,12.68-1.59,46-4,7.05-.51,12.2-.79,20-2,9.7-1.5,12-2.65,22-4,10.48-1.42,15.97-1.24,16-2Z"/>
    <path class="cls-5" d="M216.5,95.5c-1.5-4-17.77,2.49-33-1-1.35-.31-4.34-1.07-5,0-.81,1.32,2.21,4.88,5,7,4.1,3.11,8.47,3.69,11,4,3.69.45,11.81,1.43,18-4,1.61-1.41,4.7-4.12,4-6Z"/>
    <path class="cls-5" d="M144.5,103.5c2.62,4.45,7.2,6.3,9,7,8.49,3.3,16,.72,18,0,3.92-1.41,5.87-3.23,7-5,.21-.33,1.86-2.92,1-4-.75-.94-3.02-.26-4,0-7.45,2.01-18.74,1.31-26-1-2.53-.8-5.17-1.99-6-1-.79.95.59,3.31,1,4Z"/>
    <path class="cls-5" d="M107.5,100.5c-1.16,1.96,2.15,5.97,3,7,3.14,3.8,7.03,5.28,9,6,1.94.71,9.85,3.6,18,0,3.65-1.61,5.9-3.88,8-6,2.7-2.73,7.02-7.08,6-9-1.53-2.88-12.48,4.63-29,3-7.73-.77-13.68-3.24-15-1Z"/>
    <path class="cls-5" d="M71.5,90.5c-1.88,3.33,1.23,8.67,2,10,3.93,6.75,11.41,8.42,14,9,7.72,1.72,13.97-.75,17-2,3.36-1.38,12.19-5.02,12-9-.41-8.28-39.93-16.98-45-8Z"/>
  </g>
  <g id="Lag_17">
    <path class="cls-6" d="M72.5,94.5c.12.87.37,1.69,1,3,.52,1.08,1.84,3.83,4,6,4.33,4.35,10.5,4.81,13,5,5.58.42,9.74-1.15,12-2,.67-.25,3.76-1.45,7-4,.95-.75,2.16-1.71,2-2-.21-.39-2.86.3-5,2-1.14.9-1.02,1.21-2,2-1.26,1.02-2.57,1.41-6,2-3.96.69-5.93,1.07-7,1-3.05-.19-5.26-1.2-7-2-2.5-1.15-4.38-2.01-6-4-.83-1.02-1.55-2.35-3-5-.74-1.36-.92-1.79-1-2-1.13-2.88-.67-4.96-1-5-.36-.04-1.36,2.34-1,5Z"/>
    <path class="cls-6" d="M110.5,103.5c.41.78,1.04,1.86,2,3,2.45,2.93,5.27,4.23,7,5,4.67,2.09,8.93,2.12,11,2,1.8-.1,6.18-.4,10-3,.71-.48,1.29-.97,1.54-1.18,2.98-2.56,4.65-5.67,4.46-5.82-.1-.08-.68.75-2,2-1.12,1.06-3.87,3.61-8,5-2.51.85-4.56.94-6,1-3.36.13-5.85-.47-8-1-3.7-.92-5.55-1.38-7-3-1.53-1.72-1.9-3.8-2-5"/>
    <path class="cls-6" d="M148.5,104.5c.42.53,1.08,1.27,2,2,3.04,2.42,6.36,2.72,10,3,6.83.52,11.49-1.16,13-2,.49-.27,1.52-.93,2.54-1.69.74-.55,1.55-1.16,1.46-1.31-.09-.15-1.04.3-3,1-1.92.69-1.92.58-3,1-2.41.94-2.55,1.52-4,2-.57.19-1.26.34-5,0-3.58-.32-5.37-.48-7-1-1.81-.58-3.68-1.2-5-3-.55-.75-.84-1.48-1-2"/>
    <path class="cls-6" d="M185.5,100.5c.47,1.28,2.13,1.76,3,2,4.85,1.33,7.28,2,10,2,4.07,0,7.4.01,11-2,1.35-.76,5.41-3.02,6-7,.08-.54.23-1.95,0-2-.21-.05-.67,1.14-1,2-.69,1.78-.75,2.42-1,3-.44,1.02-1.43,1.83-5,3-3.86,1.27-5.89,1.94-9,2-2.59.05-6.37.13-10-2-1.58-.92-3.48-2.47-4-2-.27.25-.03.92,0,1Z"/>
  </g>
  <g id="Lag_14">
    <path class="cls-11" d="M43.5,72.5c.2-2.78,2.8-5.19,8-10,6.84-6.33,14.06-11.07,22-15,9.22-4.57,18.88-9.5,32-11,8.47-.97,22.37-.99,26-1,.57,0,.71,0,5,0,6,0,12,.03,18,0,12.56-.07,18.71-.43,19,1,.26,1.28-4.44,2.38-5,6-.2,1.29.22,2.24,1,4,.43.97,3.24,7.07,10,10,1.51.66,2.74.94,3,1,3.2.73,5.02.11,8,0,4.16-.15,8.85.76,9,2,.12,1.02-2.9,1.33-4,4-.49,1.19-.58,2.8,0,4,1.56,3.24,7.84,3.12,14,3,3.6-.07,7.83-.19,13-2,3.43-1.2,4.81-2.29,8-4,7.68-4.12,19.38-8.38,21-6,1.44,2.11-5.24,9.2-6,10-5.83,6.18-11.43,8.06-11,11,.22,1.52,1.92,2.42,3,3,4.4,2.36,21.54,11.55,21,14-.15.68-1.77,1.2-10,1-12.72-.31-22.31-1.88-23-2-11.12-1.87-22-4-22-4s-5.39-1.06-16,1c-.28.05-1.96.39-2,1-.08,1.08,5.05,1.87,5,3-.04.82-2.78.52-4,2-2.65,3.2,4.61,11.4,3,13-1.65,1.63-11.52-4.67-19-12-.14-.14-.41-.66-1-1-2.29-1.3-6.06,1.37-7,2-4.46,2.96-11.98,3.31-27,4-10.02.46-17.51-.31-24-1-7.42-.79-17.19-1.84-28-5-13.39-3.92-40.82-14.72-40-26Z"/>
  </g>
  <g id="Lag_16">
    <path class="cls-6" d="M56.5,65.5c-.05-.23-.71-3.89,2-6,2.03-1.58,5.17-1.67,7,0,2.4,2.2,1.14,6.14,0,8-.41.67-1.79,2.92-4,3-2.47.09-4.52-2.59-5-5Z"/>
    <path class="cls-8" d="M59.5,62.5c-.1.27-.54,1.48,0,2,.61.59,2.4.2,3-1,.59-1.18-.15-2.85-1-3-.82-.15-1.68,1.11-2,2Z"/>
    <path class="cls-10" d="M74.5,47.5c-.99,2.95,2.8,5.15,5,11,.81,2.14,1.01,3.73,1.38,6.64,1,7.86-.51,13.34-.38,13.36.19.03,3.83-10.69,1-23-.2-.87-2.37-10.06-5-10-.87.02-1.68,1.05-2,2Z"/>
    <path class="cls-10" d="M92.5,39.5c-1.7,2.42,3.17,7.45,6,13,6.43,12.59,1.42,25.94,2,26,.54.05,3.14-11.82,1-26-.71-4.72-2.08-13.24-6-14-1.05-.2-2.38.13-3,1Z"/>
    <path class="cls-10" d="M110.5,36.5c-.91,1.71,2.94,3.53,5,9,1.23,3.26,1.55,7.08,1.86,10.84.08.91.11,1.58.14,2.16.83,15.52.81,16.99,1,17,.52.03,2.33-10.55,1-23-.6-5.59-1.72-16.07-6-17-1.11-.24-2.54.14-3,1Z"/>
    <path class="cls-10" d="M126.5,35.5c-1.7,2.08,3.76,7.39,7,15,5.66,13.28,1.33,25.93,2,26,.61.06,2.73-10.36,2-23-.88-15.22-4.97-17.51-6-18-1.66-.79-4.11-1.09-5,0Z"/>
    <path class="cls-10" d="M141.5,35.5c4.57,5.7,6.82,11.12,8,15,1.32,4.35,1.63,7.88,2,12,.92,10.34-.21,16.98,0,17,.29.03,2.24-12.06,1-27-1.06-12.82-3.5-15.97-6-17-1.8-.75-3.68-.41-5,0Z"/>
    <path class="cls-10" d="M163.5,46.5c1.4,2.87,3.05,6.94,4,12,1.9,10.12-.36,16.94,0,17,.63.1,7.79-20.13,0-27-1.38-1.21-2.92-1.74-4-2Z"/>
    <path class="cls-10" d="M181.5,57.5c-1.6,1.19-.39,4.49,0,9,.65,7.43-1.44,11.89-1,12,.89.22,8.21-18.09,4-21-.84-.58-2.21-.59-3,0Z"/>
    <path class="cls-2" d="M49.5,80.5c.46-2.19,6.14-2.73,9-3,11.21-1.06,19.71,2.23,25,4,2.47.83,18.54,6.09,35,6,15.95-.09,30.74-5.2,33-6,6.39-2.26,12.29-5.08,22-6,4.6-.44,9.39-.84,15,1,10,3.29,17.2,11.95,16,14-.59,1.01-2.86-.24-8,0-4.38.2-5.19,1.22-12,3-10.86,2.83-12.11,1.1-17,4-2.17,1.29-3.57,2.6-7,4-2.77,1.13-5.22,1.64-7,2-3.74.76-6.68.93-8,1-11.9.62-22,0-22,0-11.89-.73-17.84-1.09-23-2-12.37-2.19-21.15-5.76-29-9-8.97-3.71-22.75-9.4-22-13Z"/>
    <path class="cls-10" d="M116.5,83.5c-.23-2.32,5.66-4.94,10-6,3.3-.81,11.53-2.82,16,2,2.26,2.43,3.63,6.69,2,9-1.26,1.78-4.84,1.52-12,1-2.13-.16-8.09-.67-14-4-1.1-.62-1.92-1.18-2-2Z"/>
  </g>
  <g id="Lag_18">
    <path class="cls-9" d="M149.5,35.5c2.53.64,4.56,1.39,6,2,5.67,2.38,9.24,5.35,10,6,1.81,1.53,3.13,2.98,4,4"/>
  </g>
</svg>