<?xml version="1.0" encoding="UTF-8"?>
<svg xmlns="http://www.w3.org/2000/svg" viewBox="0 0 283 266">
  <defs>
    <style>
      .cls-1 {
        fill: #fff428;
        stroke: #fff428;
      }

      .cls-1, .cls-2, .cls-3, .cls-4, .cls-5, .cls-6, .cls-7, .cls-8, .cls-9, .cls-10, .cls-11, .cls-12, .cls-13 {
        stroke-miterlimit: 10;
      }

      .cls-2 {
        fill: #aa7c00;
      }

      .cls-2, .cls-3 {
        stroke: #aa7c00;
      }

      .cls-3 {
        fill: none;
      }

      .cls-4 {
        fill: #643a00;
        stroke: #643a00;
      }

      .cls-5 {
        fill: #ed1c24;
        stroke: #ed1c24;
      }

      .cls-6 {
        fill: #00d62b;
        stroke: #00d62b;
      }

      .cls-7 {
        fill: #fff;
        stroke: #fff;
      }

      .cls-8 {
        fill: #fff0d6;
        stroke: #fff0d6;
      }

      .cls-9 {
        stroke: #000;
      }

      .cls-10 {
        fill: #ffd593;
        stroke: #ffd593;
      }

      .cls-11 {
        fill: #0d3eff;
        stroke: #0d3eff;
      }

      .cls-12 {
        fill: #f12800;
        stroke: #f12800;
      }

      .cls-13 {
        fill: #e6e6e6;
        stroke: #e6e6e6;
      }
    </style>
  </defs>
  <g id="Lag_7">
    <ellipse class="cls-7" cx="140" cy="129.5" rx="120.5" ry="117"/>
    <ellipse class="cls-13" cx="139" cy="128.5" rx="90.5" ry="89"/>
    <circle class="cls-7" cx="140.5" cy="130.5" r="87"/>
  </g>
  <g id="Lag_8">
    <path class="cls-10" d="M40.5,72.5c15.55-2.54,28.63-2.55,38-2,0,0,24.1,1.43,40,9,1.93.92,4.22,2.01,7,4,6.39,4.57,6.54,7.6,10,9,3.49,1.42,5.16-.92,18-6,0,0,15.14-5.98,23-6,1.22,0,2.92.21,6,0,2.14-.14,2.51-.32,3,0,2.39,1.56-.29,9.75-1,12-1.72,5.43-4.04,6.47-4,11,.03,2.79.93,4.65,0,8-.4,1.43-.8,2.87-2,4-3.13,2.93-8.31.55-9,2-.6,1.28,2.98,3.97,9,9,8.9,7.44,8.37,7.64,12,10,3.97,2.58,8.11,5.21,14,6,2.66.36,4.46.18,7,0,6.88-.49,16.83-1.19,25,0,5.94.86,15.86,2.31,17,7,1.43,5.93-10.83,18.43-21,20-1.06.16-4.96.59-6,3-.82,1.91.53,4.15,1,5,5.07,9.27.46,29.47-6,31-1.13.27-2.05-.24-4-1-1.48-.58-5.65-2.45-14-16-2.49-4.04-3.74-6.06-5-9-2.46-5.72-1.86-7.24-4-11-2.8-4.92-6.82-7.56-9-9-5.49-3.61-10.5-4.43-14-5-1.82-.3-5.66-.92-6,0-.59,1.59,10.54,4.98,10,9-.51,3.8-8.98,2.91-16,10-6.52,6.59-5.46,13.94-9,14-3.75.06-8.01-6.78-15-18-1.97-3.16-2.81-4.76-5-6-5.78-3.27-13.85.03-16,1-5.7,2.58-6.03,5.19-9,5-5.09-.33-8.54-8.3-11-14-2.45-5.66-3.5-10.67-4-14-8.91-5.94-9-6-9-6-10.69-7.17-20.61-18.41-22-20-5.26-6.01-11.07-12.67-16-23-4.16-8.71-6.06-16.56-7-22l4-1Z"/>
  </g>
  <g id="Lag_9">
    <circle class="cls-3" cx="59.5" cy="78.5" r="4"/>
    <path class="cls-3" d="M54.5,103.5c2.48-1.7,5.97-4.57,9-9,4.96-7.26,5.82-14.55,6-18"/>
    <path class="cls-3" d="M156.5,89.5c4.09-1.38,8.43-2.73,13-4,4.14-1.15,8.15-2.14,12-3"/>
    <path class="cls-2" d="M162.5,93.5c2.68-1.05,5.68-2.08,9-3,3.22-.89,6.24-1.53,9-2"/>
    <path class="cls-3" d="M167.5,98.5c1.29-.71,3.34-1.62,6-2,2.01-.29,3.74-.18,5,0"/>
    <path class="cls-3" d="M171.5,104.5c.57-.34,1.24-.69,2-1,1.52-.62,2.91-.89,4-1"/>
    <path class="cls-3" d="M177.5,108.5c-.53-.14-1.66-.36-3,0-.93.25-1.6.69-2,1"/>
    <path class="cls-3" d="M102.5,168.5c-1.25-2.32-2.24-4.37-3-6-1.78-3.84-2.2-5.3-2-7,.16-1.31.63-2.34,1-3"/>
    <path class="cls-3" d="M104.5,165.5v-5"/>
    <path class="cls-3" d="M107.5,169.5c.41-.32,1.53-1.29,2-3,.37-1.35.14-2.48,0-3"/>
    <path class="cls-3" d="M150.5,183.5c-2.16-2.22-3.9-3.92-5-5-2.57-2.51-3.93-3.73-5-6-.57-1.21-.85-2.29-1-3"/>
    <path class="cls-3" d="M152.5,178.5c-.61-1.39-1.55-3.16-3-5-1.4-1.78-2.83-3.09-4-4"/>
    <path class="cls-3" d="M166.5,167.5c-.52-.62-1.18-1.31-2-2-1.08-.91-2.13-1.55-3-2"/>
    <path class="cls-3" d="M171.5,165.5c-1.03-.94-2.36-2-4-3-1.45-.89-2.82-1.53-4-2"/>
    <path class="cls-3" d="M195.5,169.5c2.06-.91,4.99-2.44,8-5,2.27-1.93,4.58-3.89,6-7,2.47-5.4.76-10.94,0-13"/>
    <path class="cls-3" d="M199.54,173.01c.82,2.89,2.01,6.21,3.77,9.74,3.17,6.36,7.03,11.05,10.14,14.25"/>
    <path class="cls-3" d="M205.5,172.5c2.32,3.55,4.7,7.55,7,12,2.95,5.7,5.22,11.11,7,16"/>
    <path class="cls-3" d="M223.5,199.5c.23-1.66.41-4.11,0-7-.52-3.65-1.73-6.26-3-9-1.12-2.41-2.11-4.56-4-7-1.41-1.82-3.92-4.59-8-7"/>
    <path class="cls-3" d="M209.5,165.5c2.2.54,6.77,1.99,11,6,3.52,3.34,5.21,6.95,6,9"/>
    <path class="cls-3" d="M212.5,162.5c3.67.83,8.86,1.56,15,1,3.92-.36,7.29-1.15,10-2"/>
    <path class="cls-3" d="M212.5,157.5c4.96-.3,9.96-.64,15-1,4.37-.32,8.7-.65,13-1"/>
    <path class="cls-3" d="M212.5,152.5c2.78-1.19,6.5-2.42,11-3,8.33-1.07,15.13.67,19,2"/>
    <path class="cls-3" d="M212.5,147.5c2.62-.79,6-1.59,10-2,5.22-.54,9.29-.18,11,0,3.63.39,8.95,1.37,15,4"/>
  </g>
  <g id="Lag_10">
    <path class="cls-4" d="M151.5,172.5c1.37,1.85,1.62,4.87,5,15,2.51,7.53,5.57,16.69,10,27,1.73,4.02,6.15,11.68,15,27,2.12,3.67,4.48,7.62,9,9,3.85,1.17,9.18.46,12-3,.4-.49,2-2.57,2-8,0-6.36-2.17-11.17-4-15-3.97-8.32-5.95-12.49-10-19-2.55-4.11-8.21-12.86-16-22-4.79-5.62-10.16-11.13-12-13-1.19-1.21-1.72-1.61-3-3-1.56-1.69-1.96-2.36-3-3-.56-.35-2.6-1.83-4-1-.88.52,0,1.84-1,4-.49,1.04-.88,1.19-1,2-.22,1.44.76,2.68,1,3Z"/>
  </g>
  <g id="Lag_11">
    <path class="cls-9" d="M144.5,170.5c.94.33,2.31.73,4,1,2.4.38,4.55.72,7,0,3.08-.91,5.85-3.27,7-6,.36-.85,1.34-3.17,1-5-.03-.17-.11-.54,0-1,.3-1.21,1.65-1.83,2-2,.66-.32,2.44-2.21,6-6,3.72-3.96,5.07-9.31,6-13,1.52-6.05,1.22-10.89,1-14-.53-7.49-2.58-12.93-3-14-6.06-15.65-19.82-22.89-22-24-9.48-4.81-18.09-5.03-21-5-15.03.13-25.21,7.82-28,10-2.9,2.26-12.11,9.65-16,23-2.76,9.48-1.51,17.36-1,20,1.88,9.78,6.73,16.11,9,19,7.75,9.88,17.21,13.9,20,15,12.63,4.96,23.77,2.98,28,2Z"/>
    <path class="cls-8" d="M146.5,164.5c5.11-1.55,8.26-3.53,9-4,5.18-3.32,8.05-7.26,10-10,1.76-2.47,5.25-7.47,7-15,.67-2.87,2.16-9.67,0-18-2.08-8.01-6.41-13.06-9-16-2.46-2.8-7.8-8.73-17-12-7.45-2.65-13.72-2.24-17-2-4.17.31-12.57,1.05-21,7-7.78,5.49-11.47,12.51-13,16-3.6,8.21-3.48,15.7-3,20,.25,2.21,1.51,11.83,9,21,2.34,2.86,9.57,10.94,22,14,10.65,2.62,19.28.13,23-1Z"/>
  </g>
  <g id="Lag_12">
    <path class="cls-6" d="M94.5,118.5c.38-.15.74-.06,1,0,.69.17,1.89.79,2,2,.06.7-.23,1.56-1,2-.62.36-1.4.35-2,0-.99-.57-1-1.76-1-2,0-.64.23-1.69,1-2Z"/>
    <path class="cls-11" d="M98.5,116.5c-.23,1.24.82,2.57,2,3,.76.28,1.43.13,2,0,.4-.09,2.76-.61,3-2,.22-1.26-1.39-2.72-3-3-1.56-.27-3.72.44-4,2Z"/>
    <path class="cls-7" d="M96.5,110.5c.27.27.96.02,1,0,.58-.21.85-.72,1-1,.62-1.18.47-2.88,0-3-.74-.19-2.65,3.36-2,4Z"/>
    <path class="cls-11" d="M103.5,103.5c-1.39.69-1.31,4.36,0,5,.91.44,2.39-.58,3-1,.61-.42.92-.63,1-1,.28-1.31-2.59-3.7-4-3Z"/>
    <path class="cls-1" d="M108.5,98.5c-.85.71-.11,2.71,0,3,.07.2,1.23,3.19,3,3,1.01-.11,1.74-1.21,2-2,.08-.25.35-1.1,0-2-.54-1.38-2.09-1.77-3-2-.82-.21-1.54-.39-2,0Z"/>
    <path class="cls-6" d="M113.5,96.5c.29.33,1.15-.43,2,0,.53.27.41.67,1,1,.62.35,1.42.28,2,0,.25-.12.92-.44,1-1,.13-.87-1.24-1.69-2-2-.41-.17-1.85-.76-3,0-.84.56-1.28,1.68-1,2Z"/>
    <path class="cls-12" d="M122.5,90.5c-.34.41.41,1.08,1,3,.55,1.79.32,2.56,1,3,.53.34,1.18.19,2,0,.44-.1,2.81-.66,3-2,.06-.39-.3-.93-1-2-1.11-1.69-1.69-1.92-2-2-.27-.07-.33-.02-1,0-2.09.06-2.71-.35-3,0Z"/>
    <path class="cls-6" d="M133.5,88.5c-.38.43-.2,1.19,0,2,.22.91.41,1.71,1,2,1.03.5,2.65-.87,4-2,1.22-1.03,2.15-1.63,2-2-.18-.42-1.48.18-4,0-1.73-.12-2.56-.5-3,0Z"/>
    <path class="cls-11" d="M140.5,93.5c-.29.35-.78,1.03-1,2-.11.46-.27,1.17,0,2,.04.12.57,1.68,2,2,.22.05.58.13,1,0,.86-.27.93-1.12,2-3,.79-1.38,1.14-1.6,1-2-.27-.75-1.82-.89-3-1-.81-.07-1.5-.05-2,0Z"/>
    <path class="cls-11" d="M150.5,95.5c-.14.48.36.72,1,2,.65,1.29.54,1.84,1,2,.5.17,1.12-.31,2-1,.56-.44.84-.66,1-1,.45-.97.01-2.48-1-3-.58-.3-1.15-.18-2,0-.8.17-1.82.38-2,1Z"/>
    <path class="cls-6" d="M145.5,107.5c-.34-.43.73-2.01,2-3,.54-.42,1.11-.87,2-1,1.27-.19,2.89.29,3,1,.22,1.36-5.23,2.8-6,3-.39.1-.84.21-1,0Z"/>
    <path class="cls-12" d="M152.5,110.5c-.08-.36,1.49-.49,3-2,1.06-1.06,1.32-2.04,2-2,.46.03.91.52,1,1,.22,1.15-1.5,2.49-3,3-1.39.47-2.92.34-3,0Z"/>
    <path class="cls-11" d="M155.5,115.5c0-1.07,1.93-1.47,2-3,.02-.53-.19-.78,0-1,.41-.47,2.12-.09,3,1,.87,1.07.97,2.85,0,4-.77.91-1.87.99-2,1-1.49.09-3.01-1.04-3-2Z"/>
    <path class="cls-7" d="M165.5,105.5c-.78.18-.97,1.76-1,2-.1.85-.04,2.67,1,3,.69.22,1.6-.29,2-1,.43-.77.15-1.57,0-2-.33-.97-1.24-2.18-2-2Z"/>
    <path class="cls-7" d="M155.5,99.5c-1.07.86-1.06,3.29,0,4,.55.36,1.25.19,2,0,.98-.25,2.99-1.02,3-2,.01-1.31-3.51-3.21-5-2Z"/>
    <path class="cls-6" d="M146.5,115.5c-.3.6-.16,1.26,0,2,.18.81.36,1.67,1,2,.78.4,1.78-.23,3-1,1.22-.77,1.98-1.25,2-2,.02-.97-1.23-1.73-2-2-1.43-.51-3.41-.18-4,1Z"/>
    <path class="cls-12" d="M145.5,130.5c-.49-.8.23-2.23,1-3,.25-.25.94-.94,2-1,1.39-.08,2.52.99,3,2,.45.94.47,2.1,0,3-.16.31-.46.88-1,1-.63.14-.99-.46-2-1-1.65-.88-2.56-.29-3-1Z"/>
    <path class="cls-12" d="M162.5,128.5c-.83.26-.98,1.79-1,2-.03.25-.16,1.88,1,3,1.46,1.4,4.22,1.28,5,0,.37-.61.27-1.44,0-2-.39-.83-1-.75-3-2-1.25-.78-1.54-1.14-2-1Z"/>
    <path class="cls-11" d="M172.5,122.5c-.59-.35-1.41-.35-2,0-1.5.9-1.5,4.1,0,5,.59.35,1.41.35,2,0,1.5-.9,1.5-4.1,0-5Z"/>
    <path class="cls-7" d="M155.5,126.5c.23-1.5.36-2.29,1-3,.26-.29.98-1.08,2-1,1.02.08,1.92,1,2,2,.08.95-.62,1.63-1,2-1.3,1.27-3.5,1.68-4,1-.06-.08-.12-.21,0-1Z"/>
    <path class="cls-11" d="M161.5,118.5c.36-.64,1.98-.36,4,0,1.4.25,2.98.53,3,1,.02.44-1.31.81-2,1-1.42.4-2.88.81-4,0-.69-.5-1.28-1.49-1-2Z"/>
    <path class="cls-6" d="M164.5,113.5c-.18-.5,3.14-3.06,5-2,.79.45,1.29,1.54,1,2-.31.49-1.36,0-4,0-1.51,0-1.94.17-2,0Z"/>
    <path class="cls-6" d="M153.5,138.5c-.38.78-.13,1.58,0,2,.09.3.88,2.7,3,3,1.95.27,3.97-1.38,4-3,.02-.94-.65-1.63-1-2-1.31-1.37-3.56-1.81-5-1-.21.12-.72.41-1,1Z"/>
    <path class="cls-11" d="M163.5,139.5c-.05.47.92.64,3,2,1.17.77,1.53,1.15,2,1,.58-.19.78-1.04,1-2,.3-1.28.58-2.51,0-3-.29-.24-.65-.18-4,1-1.6.56-1.97.71-2,1Z"/>
    <path class="cls-12" d="M165.5,148.5c-.69,0-1.44-1.35-1-2,.38-.56,1.63-.57,2,0,.23.35.06.82,0,1-.15.42-.54,1-1,1Z"/>
    <path class="cls-1" d="M159.5,155.5c.06-1.24-.09-1.36,0-2,.08-.61.23-1.71,1-2,.72-.27,1.72.26,2,1,.11.28.11.59,0,1-.49,1.9-2.57,3.33-3,3-.11-.08-.04-.22,0-1Z"/>
    <path class="cls-11" d="M151.5,161.5c-.36-.14-.98-.52-1-1-.02-.58.84-.73,2-2,.61-.67.65-.93,1-1,.81-.16,2.04.98,2,2-.06,1.38-2.48,2.61-4,2Z"/>
    <path class="cls-11" d="M152.5,152.5c-.82.3-1.42-.37-3-1-1.97-.79-2.79-.45-3-1-.31-.83,1.21-2.52,3-3,1.03-.28,3.09-.42,4,1,.58.91.49,2.14,0,3-.18.31-.46.8-1,1Z"/>
    <path class="cls-11" d="M139.5,150.5c.03.12.09.23.23.42.33.45.85,1.17,1.77,1.58.19.08,1.98.86,3,0,1.31-1.11.07-3.85,0-4-.18-.38-.95-2.03-2-2-.33.01-.89.67-2,2-.74.89-1.15,1.44-1,2Z"/>
    <path class="cls-6" d="M140.5,156.5c-.13.23.9.79,3,3,1.35,1.42,1.8,2.11,2,2,.28-.15-.04-1.77-1-3-1.39-1.77-3.81-2.32-4-2Z"/>
    <path class="cls-7" d="M138.5,165.5c-.49-.33-.58-1.41,0-2,.58-.58,1.65-.52,2,0,.26.38.04.91,0,1-.33.8-1.44,1.38-2,1Z"/>
    <path class="cls-6" d="M131.5,163.5c-1.11-1.1-1.77-1.21-2-2-.13-.46-.04-.86,0-1,.3-1.18,1.7-2,3-2s2.7.83,3,2c.1.4.05.72,0,1-.3,1.69-1.94,3.27-3,3-.33-.08-.25-.26-1-1Z"/>
    <path class="cls-7" d="M126.5,155.5c-.73-.7-.9-.71-1-1-.22-.66.36-1.55,1-2,.82-.58,2.08-.68,3,0,.07.05,1.11.84,1,2-.15,1.49-2.1,2.39-3,2-.27-.12-.24-.26-1-1Z"/>
    <path class="cls-7" d="M132.5,145.5c-.69-.86-1.13-1.41-1-2,.15-.65.91-.96,1-1,1.37-.54,2.84.85,3,1,.37.35,1.22,1.18,1,2-.27.99-1.97,1.49-3,1-.31-.15-.54-.43-1-1Z"/>
    <path class="cls-6" d="M134.5,150.5c.05-1.31-.27-1.66,0-2,.35-.44,1.34-.38,2,0,.67.39,1.2,1.25,1,2-.34,1.26-2.56,1.55-3,1-.13-.16-.03-.3,0-1Z"/>
    <path class="cls-6" d="M138.5,143.5c-.26-.47.82-1.95,2-2,.66-.03.89.42,2,1,1.67.88,3.02.85,3,1-.02.18-2.04-.27-5,0-1.25.11-1.84.28-2,0Z"/>
    <path class="cls-6" d="M145.5,139.5c-.84-.9-.09-2.93,1-4,.12-.12,1.64-1.57,3-1,.68.28.97.92,1,1,.56,1.32-.49,3.24-2,4-.84.42-2.31.73-3,0Z"/>
    <path class="cls-11" d="M136.5,128.5c-.19-.49.02-.77,0-2,0-.78-.09-.82,0-1,.41-.78,2.52-.87,4,0,1.49.88,1.9,2.46,2,3,.09.47.14.73,0,1-.54,1.1-3.29,1.04-5,0-.38-.23-.81-.5-1-1Z"/>
    <path class="cls-11" d="M130.5,139.5c-.57-.83-.53-2.09,0-3,.34-.57.79-.87,1-1,.89-.56,2.81-1.18,4,0,1.08,1.06.89,2.94,0,4-1.27,1.51-4.02,1.44-5,0Z"/>
    <path class="cls-7" d="M122.5,148.5c-.88-.66-.74-2.47,0-3,.56-.4,1.1.17,3,0,.65-.06.86-.15,1,0,.4.45-.46,2.36-2,3-.24.1-1.29.53-2,0Z"/>
    <path class="cls-6" d="M115.5,158.5c-.09-.08-.14-.15-.2-.23-.76-1.04-1.24-3.32.2-4.77,1.35-1.36,3.81-1.42,5,0,.97,1.16.76,2.92,0,4-1.2,1.72-3.96,1.99-5,1Z"/>
    <path class="cls-6" d="M106.5,152.5c.79.55,1.96.26,3,0,1.47-.37,1.71-.91,3-1,1.19-.08,1.65.34,2,0,.63-.61-.04-2.81-1-3-.67-.13-.89.81-2,1-.83.14-1.55-.24-3-1-1.44-.76-1.63-1.12-2-1-1.05.35-1.5,3.96,0,5Z"/>
    <path class="cls-7" d="M100.5,146.5c-.1-.86.39-1.91,1-2,.51-.08,1,.61,2,2,.8,1.11,1.2,1.68,1,2-.26.43-1.37.23-2,0-.32-.12-1.84-.67-2-2Z"/>
    <path class="cls-1" d="M103.5,142.5c-.07-.41,2.84-.76,3-2,.11-.87-1.24-1.55-1-2,.19-.35,1.23-.29,2,0,.92.35,1.12.9,2,1,.6.07.92-.14,1,0,.17.29-.98,1.32-2,2-.54.36-1.13.75-2,1-1.43.42-2.95.29-3,0Z"/>
    <path class="cls-11" d="M112.5,146.5c-.56-.29-.52-.9-1-2-.6-1.38-1.15-1.56-1-2,.22-.64,1.4-.26,3-1,1.81-.84,2.17-2.2,3-2,.66.16,1.13,1.2,1,2-.16,1.02-1.28,1.62-2,2-1.15.61-1.73.45-2,1-.37.74.41,1.61,0,2-.23.22-.7.15-1,0Z"/>
    <path class="cls-12" d="M121.5,137.5c0,.08,0,.17,0,.3,0,0,0,.34,0,.7-.02,1.26-.23,1.73,0,2,.23.27.78.2,4-1,1.45-.54,2.03-.79,2-1-.06-.38-1.99.11-3-1-.72-.79-.35-1.7-1-2-.7-.32-1.9.38-2,1-.01.09,0,.4,0,1Z"/>
    <path class="cls-6" d="M122.5,129.5c-.29.59-.46,1.6,0,2,.68.59,2.06-.68,3,0,.42.3.41.75,1,1,.32.13.83.22,1,0,.31-.41-.74-1.68-1-2-.72-.87-1.91-2.32-3-2-.59.17-.89.78-1,1Z"/>
    <path class="cls-6" d="M129.5,127.5c.12.72.27,1.56,1,2,.57.35,1.37.36,2,0,.76-.44,1.06-1.29,1-2-.09-1.07-1.02-1.9-2-2-.78-.07-1.72.29-2,1-.12.3-.07.56,0,1Z"/>
    <path class="cls-5" d="M132.5,120.5c.2.26-.21.66,0,1,.26.42,1.29.42,2,0,.68-.4,1.26-1.31,1-2-.26-.7-1.25-.87-2-1-1.2-.21-1.43.2-3,0-.59-.07-.85-.17-1,0-.32.36.15,1.66,1,2,.83.33,1.71-.36,2,0Z"/>
    <path class="cls-1" d="M138.48,113.5c-.65.56.17,3.34,1.84,5,.51.51,1.11,1.1,1.84,1,1.06-.14,1.85-1.66,1.84-3-.01-1.36-.86-2.66-1.84-3-.71-.25-1.01.17-2.76,0-.64-.06-.77-.13-.92,0Z"/>
    <path class="cls-11" d="M136.5,104.5c0,.62,1.66.57,3,2,.55.59.59.94,1,1,.77.12,1.67-.99,2-2,.12-.36.39-1.2,0-2-.69-1.4-2.97-1.72-4-1-.26.18-.23.28-1,1-.82.77-1,.8-1,1Z"/>
    <path class="cls-11" d="M131.5,112.5c-.88-.85-.48-3.39,1-4,1.34-.55,2.78.79,3,1,.25.23,1.28,1.19,1,2-.2.58-.98.76-2,1-1.36.32-2.42.56-3,0Z"/>
    <path class="cls-7" d="M130.5,100.5c.23.81.9.86,2,2,.64.67.81,1.06,1,1,.28-.1.27-1.12,0-2-.32-1.04-.79-1.1-1-2-.27-1.14.28-1.82,0-2-.37-.23-1.72.69-2,2-.04.21-.12.57,0,1Z"/>
    <path class="cls-11" d="M120.5,103.5c-.51-.49.51-2.27,1-3,.44-.66.67-.99,1-1,.65-.03.8,1.09,2,2,1.08.83,2.01.71,2,1,0,.42-1.94.21-5,1-.36.09-.78.21-1,0Z"/>
    <path class="cls-6" d="M123.5,111.5c-.69-.38-1.09-1.25-1-2,.16-1.3,1.78-2.05,3-2,.3.01,1.45.06,2,1,.36.61.36,1.42,0,2-.39.64-1.07.79-2,1-.85.19-1.42.32-2,0Z"/>
    <path class="cls-7" d="M123.5,118.5c-.98-.56-1-1.93-1-2,0-1.53,1.48-3.04,3-3,1.01.03,1.73.73,2,1,.33.33,1.13,1.12,1,2-.19,1.29-2.22,1.8-3,2-.76.19-1.4.34-2,0Z"/>
    <path class="cls-11" d="M119.5,125.5c-.81-.36-.95-1.61-1-2-.05-.39-.17-2.03,1-3,1.15-.96,3.02-.83,4,0,1.13.95.86,2.64,2,3,.51.16.99-.04,1,0,.01.08-1.89.18-4,1-1.73.67-2.29,1.32-3,1Z"/>
    <path class="cls-11" d="M115.5,132.5c-.6-.1-.87-1.38-1-2-.17-.79-.31-1.47,0-2,.87-1.49,4.81-.89,5,0,.09.4-.63.55-2,2-1.24,1.31-1.51,2.08-2,2Z"/>
    <path class="cls-12" d="M107.5,135.5c1.13.36,2.52-.79,3-2,.09-.24.49-1.25,0-2-.71-1.08-3.01-1.23-4,0-1.02,1.27-.3,3.59,1,4Z"/>
    <path class="cls-12" d="M98.5,140.5c1.51.03,3.09-1.12,3-2-.05-.45-.53-.85-1-1-1.21-.39-2,1.01-4,1-.63,0-.93-.14-1,0-.17.34,1.24,1.97,3,2Z"/>
    <path class="cls-12" d="M94.5,132.5c-.93-.94-1.15-2.85,0-4,1.14-1.14,2.95-.88,4,0,.84.7,1.38,1.97,1,3-.63,1.69-3.61,2.4-5,1Z"/>
    <path class="cls-7" d="M103.5,125.5c.12.22,1.16-.5,2,0,.58.34.59.98,1,1,.18.01.38-.1,1-1,.78-1.14,1.18-1.71,1-2-.29-.47-1.65-.09-2,0-1.81.49-3.14,1.74-3,2Z"/>
    <path class="cls-6" d="M108.5,118.5c-.29.5.62,1.56,1,2,.48.55.61.51,1,1,.6.75.57,1.19,1,2,.29.54,1.04,1.97,2,2,1.06.03,2.29-1.69,2-3-.24-1.05-1.43-1.69-2-2-.86-.46-1.3-.38-2-1-.52-.47-.52-.73-1-1-.71-.4-1.76-.42-2,0Z"/>
    <path class="cls-12" d="M112.5,114.5c-.34-.78,1.24-1.57,1-3-.16-.98-1-1.14-1-2,0-1.1,1.35-2.24,2-2,.64.23.03,1.6,1,3,.81,1.16,1.83,1.09,2,2,.19,1.01-.91,1.93-1,2-1.35,1.09-3.64.82-4,0Z"/>
  </g>
</svg>