<svg width="345" height="241" viewBox="0 0 345 241" fill="none" xmlns="http://www.w3.org/2000/svg">
<g clip-path="url(#clip0_249_63)">
<path d="M96.7485 65.9957C98.738 63.6263 100.689 62.2944 101.505 61.7086C105.32 58.9595 105.547 57.1423 110.192 51.9859C115.085 46.5558 117.635 43.7312 122.001 41.7616C128.489 38.8426 134.619 39.7765 136.464 40.079C138.152 40.3556 144.3 41.5459 149.633 46.291C153.25 49.5086 153.225 51.4502 157.382 54.6547C160.602 57.1385 163.579 58.2649 165.778 59.0711C169.859 60.5711 174.596 61.5909 187.65 61.6432C199.74 61.6997 198.988 60.8468 204.911 61.4327C210.525 61.9882 216.686 62.6737 223.337 66.4799C225.922 67.9576 231.272 71.1146 234.71 77.4644C236.118 80.0663 238.087 83.6927 237.04 87.9797C235.924 92.5596 232.059 95.0573 231.799 95.2273C228.388 97.3637 226.503 95.8793 224.244 98.0422C222.153 100.04 223.097 101.948 220.976 105.613C220.976 105.613 219.479 108.195 216.058 110.887C209.115 116.336 177.058 105.366 159.97 100.68C143.147 96.0573 108.363 88.6124 98.5928 79.4715C97.2744 78.2421 93.2167 74.4355 93.966 70.6063C94.2936 68.917 95.5145 67.4654 96.7485 65.9957Z" fill="#D64D00" stroke="black" stroke-miterlimit="10"/>
<path d="M156.45 54.1575C155.391 54.5614 155.766 55.9808 154.479 59.9956C153.586 62.7879 151.676 67.0854 148.892 69.355C148.646 69.5579 148.174 69.7137 147.742 70.1899C146.504 71.5577 146.431 73.9171 146.921 75.1931C148.231 78.6404 155.353 78.7135 162.547 78.7781C169.082 78.8462 170.908 77.9091 171.921 77.234C174.663 75.4035 173.628 74.0484 177.016 70.8746C180.165 67.9251 182.288 67.9589 186.223 64.1656C187.882 62.573 188.871 61.9851 188.688 61.4891C188.395 60.6811 185.643 61.2129 181.617 61.3535C180.832 61.3868 177.2 61.4705 173.559 61.056C169.619 60.6128 166.305 60.2419 162.867 58.2799C159.079 56.1084 157.911 53.5864 156.451 54.1476L156.45 54.1575Z" fill="white" stroke="white" stroke-miterlimit="10"/>
<path d="M75.6052 151.704C75.3956 151.994 75.1455 152.531 75.945 155.813C77.2815 161.322 79.2844 165.238 79.4232 165.504C84.0072 174.321 88.1872 177.753 91.6374 183.719C91.7398 183.898 91.9991 184.356 92.4625 184.868C94.451 187.079 98.0308 187.99 101.182 187.311C106.003 186.277 107.995 181.912 108.236 181.374C108.632 180.192 109.053 178.488 109.044 176.439C108.977 166.031 97.6921 159.024 94.0315 156.751C87.1053 152.454 77.4677 149.182 75.6052 151.704Z" fill="#F86700" stroke="black" stroke-miterlimit="10"/>
<path d="M85.3118 154.309C84.7813 155.134 85.4307 156.365 86.6384 158.579C88.1484 161.36 91.3573 166.203 97.8495 170.551C101.484 172.981 104.358 174.06 107.232 175.129C112.112 176.952 113.87 176.795 115.127 176.423C117.011 175.871 119.683 174.282 119.883 172.136C119.995 170.898 119.296 169.415 112.959 164.921C108.156 161.519 105.75 159.817 101.926 158.045C97.3682 155.93 86.913 151.835 85.3118 154.309Z" fill="#FF6600" stroke="#FF6600" stroke-miterlimit="10"/>
<path d="M29.685 101.11C30.8574 96.8634 33.293 93.5031 38.8576 88.4264C44.1006 83.6415 49.4028 78.8056 58.3837 74.4003C68.9966 69.1885 78.0925 67.8523 85.9824 66.7643C96.3194 65.3377 104.07 65.6557 112.449 66.0361C112.449 66.0361 132.464 67.0776 147.292 70.5217L147.312 70.5249C147.81 70.637 148.825 70.8743 150.11 71.1964C155.008 72.4147 169.478 76.1852 188.289 85.5617C203.709 93.2473 213.479 98.122 223.362 106.511C225.328 108.181 228.413 110.937 233.408 113.225C236.858 114.804 242.111 116.577 255.119 116.784C267.873 116.99 270.179 115.412 279.611 115.732C292.138 116.154 297.501 117.935 300.335 119.129C304.203 120.756 308.546 122.634 312.193 127.153C317.887 134.207 317.614 142.36 317.499 144.236C316.939 153.711 311.182 159.657 309.653 161.19C301.942 168.915 291.871 169.402 286.989 169.635C279.104 170.015 273.216 168.036 263.467 164.766C253.257 161.339 254.503 159.73 247.338 158.069C247.338 158.069 238.249 155.961 221.535 160.932C221.204 161.03 220.529 161.254 220.386 161.757C220.187 162.475 221.169 163.345 222.036 164.055C225.285 166.736 226.347 166.808 227.472 167.986C229.107 169.693 229.184 171.945 229.3 175.379C229.421 179.027 229.678 181.977 227.844 184.26C227.221 185.03 225.793 186.447 221.276 187.237C217.666 187.871 213.033 187.943 204.338 185.474C198.384 183.778 194.661 182.813 190.021 180.087C185.509 177.442 179.663 172.927 178.486 170.089C178.413 169.915 178.2 169.363 177.661 168.941C176.422 167.967 174.51 168.627 172.565 169.119C172.26 169.19 170.283 169.504 166.321 170.122C163.471 170.567 161.023 170.54 156.129 170.478C152.953 170.443 150.552 170.313 148.073 170.17C136.367 169.498 130.395 169.147 124.065 168.262C124.065 168.262 119.993 167.695 116.171 166.968C92.9554 162.574 72.5621 150.425 68.6085 148.024C60.8478 143.317 56.1079 139.53 48.6777 133.61C33.8617 121.808 30.1841 116.24 29.216 110.153C28.492 105.606 29.4619 101.914 29.685 101.11Z" fill="#FF6600" stroke="#FF6600" stroke-miterlimit="10"/>
<path d="M147.59 71.1173C144.835 72.5911 143.995 75.9192 143.484 77.6188C143.257 78.3822 144.173 75.2085 137.573 88.9518C133.207 98.0252 131.035 102.563 129.693 106.113C128.816 108.432 126.848 113.885 125.263 120.77C123.659 127.712 121.12 138.564 122.489 150.057C123.439 157.985 125.286 158.217 125.295 163.852C125.299 164.815 125.247 166.925 126.613 168.172C127.689 169.149 128.918 168.945 131.547 168.981C135.754 169.032 141.285 169.665 143.553 169.926C145.671 170.172 146.983 170.387 147.663 169.576C148.52 168.551 147.729 166.638 147.332 165.418C146.803 163.821 146.982 160.253 147.322 153.114C147.653 146.207 148.404 140.949 149.117 135.979C149.366 134.277 149.842 131.061 150.591 126.989C151.96 119.502 152.821 114.809 154.524 109.18C157.509 99.3133 159.3 93.3951 164.209 87.1874C167.738 82.7195 172.013 79.2047 170.943 77.0128C170.648 76.407 170.093 76.2046 167.16 75.3691C159.162 73.0954 159.629 73.5874 157.455 72.7547C153.984 71.4258 152.489 70.0356 149.723 70.4639C149.286 70.5341 148.474 70.6645 147.586 71.1371L147.59 71.1173Z" fill="white" stroke="white" stroke-miterlimit="10"/>
<path d="M233.844 113.661C232.973 115.2 231.805 117.441 230.734 120.265C230.238 121.561 229.401 123.947 227.963 130.988C226.618 137.587 225.946 140.882 225.854 143.856C225.672 149.602 226.76 149.395 226.205 154.077C225.999 155.827 225.679 157.284 226.543 158.196C227.338 159.036 228.605 158.848 232.626 158.18C241.062 156.786 242.069 156.516 243.968 156.989C245.526 157.376 246.436 157.941 246.928 157.474C247.792 156.653 246.01 153.868 244.942 151.048C244.793 150.659 242.786 144.787 243.929 138.682C244.577 135.221 245.296 136.707 248.674 128.282C250.318 124.184 250.827 122.13 253.095 119.856C254.526 118.419 255.738 117.827 255.555 117.21C255.227 116.061 250.693 116.95 245.525 116.579C240.686 116.241 236.711 114.901 233.845 113.651L233.844 113.661Z" fill="white" stroke="white" stroke-miterlimit="10"/>
<path d="M67.5612 70.9592C68.6009 70.6128 70.0677 70.1338 71.8336 69.6227C74.7807 68.7682 76.8427 68.3056 79.23 67.7748C82.4684 67.0593 84.2382 66.7718 86.4629 66.9237C87.4544 66.995 87.9559 67.0266 88.4366 67.2472C90.1254 68.0104 90.574 69.7864 92.3953 74.0066C93.4457 76.4386 92.785 74.6582 93.8804 77.3104C96.4252 83.4225 97.8697 86.9122 98.8373 90.3439C99.6423 93.222 101.256 98.9586 100.345 105.872C99.5074 112.281 96.91 116.628 93.6333 122.09C91.553 125.57 92.1191 123.909 82.1506 136.503C76.9747 143.041 74.4669 146.471 70.3314 146.786C68.2062 146.954 66.2019 146.261 65.3973 145.977C62.9899 145.147 58.0837 143.116 58.1529 140.716C58.1888 139.384 59.7341 138.736 61.7637 137.234C64.7515 135.018 66.2646 132.774 69.3104 128.287C73.2946 122.404 74.2977 116.347 75.1973 110.921C75.8638 106.855 75.6759 101.757 75.3265 91.587C75.1073 85.1974 74.7758 82.3361 73.3301 79.0388C71.6578 75.2078 69.2653 72.5559 67.5612 70.9592Z" fill="white" stroke="white" stroke-miterlimit="10"/>
<path d="M53.11 100.389C58.2876 101.238 63.1729 97.7286 64.0217 92.551C64.8704 87.3734 61.3612 82.4881 56.1836 81.6393C51.006 80.7906 46.1207 84.2998 45.2719 89.4774C44.4232 94.655 47.9324 99.5403 53.11 100.389Z" fill="#9A2F00" stroke="#9A2F00" stroke-miterlimit="10"/>
<path d="M53.5954 97.4286C57.1379 98.0093 60.4805 95.6083 61.0612 92.0657C61.6419 88.5231 59.2409 85.1805 55.6983 84.5998C52.1558 84.0191 48.8132 86.4202 48.2325 89.9627C47.6517 93.5053 50.0528 96.8479 53.5954 97.4286Z" fill="black" stroke="black" stroke-miterlimit="10"/>
<path d="M53.4092 89.2914C54.4993 89.47 55.5277 88.7313 55.7064 87.6412C55.8851 86.5512 55.1463 85.5227 54.0563 85.344C52.9663 85.1654 51.9378 85.9041 51.7591 86.9942C51.5804 88.0842 52.3192 89.1127 53.4092 89.2914Z" fill="white" stroke="white" stroke-miterlimit="10"/>
<path d="M69.1827 147.611C70.6581 146.647 72.6683 145.264 74.9305 143.456C77.1928 141.648 81.5264 137.961 87.0781 131.169C93.0215 123.905 95.9891 120.267 97.739 115.589C100.778 107.433 99.8909 100.174 99.1834 94.4136C98.8675 91.8284 97.727 84.011 93.2316 75.0862C91.5589 71.7517 89.8257 69.0964 88.4494 67.1684" stroke="black" stroke-width="3" stroke-miterlimit="10"/>
<path d="M66.5128 71.1724C67.9298 72.3572 69.9143 74.2836 71.625 77.0771C72.5843 78.6429 74.6081 82.3694 75.2812 91.8633C75.5698 95.9133 75.7962 103.743 73.696 113.897C72.4219 120.062 71.7386 123.365 69.4576 127.389C65.776 133.899 60.5499 137.653 57.3246 139.587" stroke="black" stroke-width="3" stroke-miterlimit="10"/>
<path d="M147.724 70.2982C145.395 74.2434 142.358 79.6027 139.053 86.1037C136.431 91.2777 133.89 96.2724 131.207 103.058C129.6 107.111 127.058 113.595 125.011 122.309C123.112 130.368 120.858 139.98 122.132 152.237C122.842 159.032 124.412 164.477 125.626 168.01" stroke="black" stroke-width="3" stroke-miterlimit="10"/>
<path d="M171.748 78.2896C169.887 80.8017 167.519 84.1831 165.034 88.3359C159.525 97.5258 156.614 105.145 155.878 107.102C152.761 115.417 151.613 121.745 150.022 130.462C148.659 137.91 147.574 144.035 147.45 152.334C147.341 159.552 147.998 165.557 148.647 169.757" stroke="black" stroke-width="3" stroke-miterlimit="10"/>
<path d="M234.395 113.386C231.642 117.941 228.27 124.785 226.52 133.609C224.382 144.425 225.6 153.562 226.873 159.274" stroke="black" stroke-width="3" stroke-miterlimit="10"/>
<path d="M256.68 116.533C252.762 120.957 250.255 125.187 248.656 128.391C246.139 133.42 243.696 138.309 243.932 144.843C244.136 150.46 246.228 154.887 247.912 157.656" stroke="black" stroke-width="2" stroke-miterlimit="10"/>
<path d="M294.988 117.746C296.872 119.727 299.604 123.093 301.427 127.921C304.152 135.157 303.223 141.379 302.624 145.344C302.177 148.321 300.617 157.834 293.144 166.084C291.598 167.786 289.256 168.973 289.537 169.546C289.948 170.373 295.134 168.842 299.065 167.055C305.766 164.008 309.582 159.892 310.551 158.804C311.915 157.285 313.277 155.775 314.482 153.368C316.999 148.339 316.751 143.607 316.585 140.54C316.376 136.624 316.206 133.455 314.256 130.024C311.705 125.553 307.7 123.406 303.546 121.175C300.174 119.366 297.14 118.342 294.988 117.746Z" fill="black" stroke="black" stroke-miterlimit="10"/>
<path d="M155.57 53.344C155.468 54.523 155.279 55.8601 154.923 57.2913C154.077 60.7196 152.681 63.1154 151.655 64.8624C150.797 66.3229 149.532 68.2333 147.724 70.2981" stroke="black" stroke-width="3" stroke-miterlimit="10"/>
<path d="M189.623 61.9664C188.505 63.1004 186.741 64.7771 184.375 66.5984C180.933 69.2363 179.233 69.8392 176.771 71.9386C175.205 73.2728 173.114 75.3925 171.173 78.7022" stroke="black" stroke-width="3" stroke-miterlimit="10"/>
<path d="M228.515 96.7152C228.116 96.4269 229.537 94.3698 230.31 91.9428C231.812 87.2337 230.33 82.8564 229.954 81.751C228.267 76.7726 224.612 74.0352 222.367 72.4005C217.389 68.7674 212.473 67.85 204.102 66.3664C195.18 64.7923 189.347 64.89 189.3 63.9399C189.251 62.9997 195.041 62.0537 195.706 61.95C198.661 61.4818 203.46 61.0728 209.845 62.2411C213.819 62.9736 219.28 63.9701 225.149 67.7899C228.198 69.7792 232.145 72.3415 234.71 77.4639C236.054 80.1466 238.793 85.0138 236.878 88.9661C236.463 89.8303 234.577 91.5681 230.812 95.0651C229.652 96.1417 228.776 96.9102 228.515 96.7152Z" fill="black" stroke="black" stroke-miterlimit="10"/>
<path d="M118.421 45.0556C118.572 45.6174 121.06 45.1538 124.568 45.0195C126.057 44.9596 130.846 44.8022 135.698 45.8003C137.06 46.0843 143.39 47.4665 149.979 52.3365C152.763 54.3939 153.906 56.5675 154.461 56.2126C155.195 55.7553 154.1 51.6137 151.646 48.4144C149.775 45.9797 147.666 44.8132 144.342 43.0219C140.114 40.748 137.964 39.5849 134.71 39.3453C130.885 39.0629 127.968 40.2264 124.073 41.7969C122.033 42.6178 118.224 44.3443 118.42 45.0655L118.421 45.0556Z" fill="black" stroke="black" stroke-miterlimit="10"/>
<path d="M95.3257 148.857C105.27 155.077 116.67 155.882 124.429 150.588C125.617 149.769 133.512 144.385 132.938 135.769C132.565 130.256 128.832 124.901 123.863 123.134C120.272 121.857 116.98 122.898 110.387 124.979C105.204 126.612 101.139 128.6 98.3992 130.107L95.3257 148.857Z" fill="#EA4800"/>
<path d="M188.622 179.351C188.68 179.178 189.353 179.156 198.49 180.968C206.754 182.607 208.238 183.012 211.319 183.071C215.158 183.143 217.77 183.156 220.685 181.567C223.379 180.093 226.114 177.38 226.914 174.481C227.615 171.931 227.723 169.547 227.723 169.547C227.733 169.234 227.759 168.58 227.884 168.56C228.091 168.533 228.446 170.202 228.548 170.695C229.15 173.571 229.755 176.436 229.065 179.9C228.657 181.961 228.371 183.394 227.27 184.673C225.942 186.218 223.727 187.183 217.741 187.164C209.973 187.137 203.773 185.462 199.978 184.252C194.325 182.454 188.439 179.908 188.622 179.351Z" fill="black" stroke="black" stroke-miterlimit="10"/>
<path d="M91.7303 184.018C92.1204 182.937 95.1561 184.509 98.9314 182.929C99.5193 182.681 104.08 180.763 105.772 176.744C106.084 176.015 106.413 174.934 107.018 174.891C107.705 174.842 108.468 176.061 108.749 177.131C109.347 179.418 107.881 181.62 106.994 182.954C106.319 183.978 105.364 185.412 103.508 186.537C103.001 186.849 99.1879 189.092 95.3236 187.506C93.3865 186.712 91.3958 184.947 91.7402 184.02L91.7303 184.018Z" fill="black" stroke="black" stroke-miterlimit="10"/>
<path d="M105.421 173.818C109.404 175.231 111.657 174.78 112.984 174.045C115.802 172.49 116.17 168.761 118.188 168.818C119.105 168.847 119.837 169.635 120.138 170.151C121.066 171.722 119.772 173.678 119.491 174.098C117.701 176.794 114.026 177.144 113.554 177.178C109.006 177.537 105.808 174.237 105.421 173.818Z" fill="black" stroke="black" stroke-miterlimit="10"/>
<path d="M124.591 149.6C124.314 149.373 125.338 148.071 126.225 145.815C127.446 142.691 127.488 140.023 127.519 137.92C127.559 135.262 127.609 132.118 126.014 128.554C124.39 124.923 121.53 123.269 121.889 122.811C122.195 122.425 124.265 123.463 125.674 124.444C126.411 124.96 128.406 126.453 129.962 129.201C131.346 131.637 131.694 133.842 131.951 135.607C132.29 137.871 132.534 139.097 132.129 140.703C131.697 142.415 130.843 143.481 129.347 145.313C127.535 147.529 124.993 149.93 124.591 149.6Z" fill="black" stroke="black" stroke-miterlimit="10"/>
</g>
<defs>
<clipPath id="clip0_249_63">
<rect width="318" height="192" fill="white" transform="translate(31.0592) rotate(9.30945)"/>
</clipPath>
</defs>
</svg>
