<?xml version="1.0" encoding="UTF-8"?>
<svg id="Layer_2" data-name="Layer 2" xmlns="http://www.w3.org/2000/svg" viewBox="0 0 734.12 145.97">
  <defs>
    <style>
      .cls-1, .cls-2, .cls-3 {
        stroke: #fff;
        stroke-miterlimit: 10;
      }

      .cls-1, .cls-4 {
        fill: #fff;
      }

      .cls-2 {
        fill: #4fa9c9;
      }

      .cls-3 {
        fill: #40b8bc;
      }

      .cls-5 {
        fill: #4b7f96;
      }

      .cls-5, .cls-6, .cls-7, .cls-8, .cls-9, .cls-10, .cls-11, .cls-12, .cls-4, .cls-13, .cls-14 {
        stroke-width: 0px;
      }

      .cls-6 {
        fill: #878787;
      }

      .cls-7 {
        fill: #36b8b9;
      }

      .cls-8 {
        fill: #097ece;
      }

      .cls-9 {
        fill: #23c43a;
      }

      .cls-10 {
        fill: #dbdddd;
      }

      .cls-11 {
        fill: #bf0029;
      }

      .cls-12 {
        fill: #98c8d3;
      }

      .cls-13 {
        fill: #ea0c17;
      }

      .cls-14 {
        fill: #0029bc;
      }
    </style>
  </defs>
  <g id="Layer_3" data-name="Layer 3">
    <g>
      <g>
        <rect class="cls-4" x="58.97" y="43.32" width="3.76" height="69.48" rx="1.88" ry="1.88"/>
        <path class="cls-4" d="m59.41,46.19l-.41-1.59c-.17-.65.18-1.33.78-1.51l27.17-8.26c.6-.18,1.22.2,1.38.86l.41,1.59c.17.65-.18,1.33-.78,1.51l-27.17,8.26c-.6.18-1.22-.2-1.38-.86Z"/>
        <ellipse class="cls-6" cx="87.91" cy="36.61" rx=".83" ry="2.14" transform="translate(-6.62 25.14) rotate(-15.69)"/>
      </g>
      <path class="cls-1" d="m89.26,58.07l-10.94-6.29c-1.89-1.09-2.98-.3-4.72,1.11l-10.98,18.84c-.14,1.6-.55,3.85,1.34,4.93l10.94,6.2c2.83.25,2.91-.14,4.89-1.25l10.83-18.92c.05-1.96.29-3.13-1.37-4.61Zm-23.37,17.78c-1.77-1.02-2.36-3.32-1.31-5.15s3.34-2.48,5.11-1.46,2.36,3.32,1.31,5.15-3.33,2.48-5.11,1.46Zm4.49-7.8c-1.77-1.02-2.36-3.32-1.31-5.15s3.34-2.48,5.11-1.46,2.35,3.32,1.31,5.15-3.33,2.48-5.1,1.46Zm4.49-7.8c-1.77-1.02-2.36-3.32-1.31-5.15s3.34-2.48,5.11-1.46,2.35,3.32,1.31,5.15-3.33,2.48-5.11,1.46Zm-.49,20.49c-1.77-1.02-2.35-3.32-1.31-5.15s3.34-2.48,5.1-1.46,2.36,3.32,1.31,5.15c-1.05,1.82-3.34,2.48-5.11,1.46Zm4.49-7.8c-1.77-1.02-2.36-3.32-1.31-5.15s3.34-2.48,5.11-1.46,2.36,3.32,1.31,5.15-3.34,2.48-5.11,1.46Zm4.49-7.8c-1.77-1.02-2.35-3.32-1.31-5.15s3.34-2.48,5.1-1.46,2.36,3.32,1.31,5.15-3.34,2.48-5.11,1.46Z"/>
      <path class="cls-4" d="m335.93,138.77s16.74,1.56,33.92-3.61c3.27-.98,5.81-3.58,6.71-6.87,2.31-8.42,6.3-25.93,4.85-42.38,0-.04,0-.08,0-.12-.02-1.43-.41-29.3-3.76-37.92-.09-.24-.14-.48-.14-.73l.05-29.04c0-3.29-2.44-6.08-5.71-6.5h0c-3.68-.47-7.02,2.21-7.34,5.91-1.07,12.31-3.46,37.53-5.48,42.37-1.81,4.33-11.28,2.83-17.3,1.38-3.3-.79-6.69-1.08-10.07-.88-5.75.33-12.79-.13-13.81-3.32-1.61-4.98-1.87-30.31-1.9-42.67,0-3.71-3.11-6.67-6.82-6.51h0c-3.29.14-5.96,2.71-6.24,5.99l-2.33,28.18c-.06.67-.21,1.33-.48,1.94-3.88,8.7-6.5,34.85-6.71,36.94,0,.1-.02.18-.04.28-3.03,17.57.14,36.9,1.66,44.46.42,2.11,1.86,3.87,3.84,4.72,11.98,5.11,24.36,6.5,30.82,7.05,2.73.23,3.84.86,7.03,1.39"/>
      <path class="cls-4" d="m35.02,139s15.45,6.61,33.39,6.97c3.41.07,6.62-1.63,8.49-4.48,4.78-7.3,13.95-22.75,17.61-38.85,0-.04.02-.08.03-.11.42-1.37,8.59-28.02,8.05-37.25-.01-.26.01-.5.09-.74l8.95-27.63c1.01-3.13-.46-6.53-3.44-7.93h0c-3.36-1.58-7.36-.05-8.8,3.37-4.79,11.39-14.81,34.66-18.21,38.65-3.05,3.57-11.61-.76-16.89-3.99-2.9-1.77-6.03-3.08-9.32-3.93-5.57-1.45-12.13-4.05-12.13-7.39,0-5.24,7.51-29.42,11.27-41.2,1.13-3.54-.92-7.31-4.5-8.29h0c-3.18-.87-6.51.75-7.77,3.79l-10.86,26.11c-.26.62-.6,1.2-1.05,1.7-6.36,7.09-16.88,31.17-17.71,33.1-.04.09-.08.17-.12.25C3.82,86.94.91,106.31.04,113.98c-.24,2.14.59,4.26,2.21,5.67,9.84,8.54,21.2,13.65,27.18,16.16,2.53,1.06,3.39,1.99,6.26,3.48"/>
      <g>
        <rect class="cls-12" x="126.69" y="27.73" width="9.89" height="13.63" rx="1.63" ry="1.63" transform="translate(5.78 -17.24) rotate(7.66)"/>
        <rect class="cls-12" x="108.65" y="34.25" width="35.79" height="86.24" rx="7.11" ry="7.11" transform="translate(11.44 -16.18) rotate(7.66)"/>
        <rect class="cls-14" x="123.99" y="27.57" width="16.12" height="7.82" rx="1.63" ry="1.63" transform="translate(5.38 -17.32) rotate(7.66)"/>
        <path class="cls-10" d="m110.57,61.87s12.31,8.99,35.47,4.77l-2.18,16.18s-12.53,3.47-35.44-5.02l2.14-15.93Z"/>
        <path class="cls-5" d="m113.17,42.58s7.57,3.4,16.28,4.28l-16.28-4.28Z"/>
        <path class="cls-5" d="m112.22,49.6s6.59,3.01,14.18,3.77l-14.18-3.77Z"/>
        <path class="cls-5" d="m111.6,54.22s6.15,3.21,13.31,3.88l-13.31-3.88Z"/>
        <path class="cls-5" d="m110.89,59.52s5.52,2.87,11.93,3.46l-11.93-3.46Z"/>
        <path class="cls-5" d="m107.74,82.94s6.56,3.27,14.15,3.99l-14.15-3.99Z"/>
        <path class="cls-5" d="m107.02,88.25s6.56,3.27,14.15,3.99l-14.15-3.99Z"/>
        <path class="cls-5" d="m106.31,93.56s6.56,3.27,14.15,3.99l-14.15-3.99Z"/>
        <path class="cls-5" d="m105.59,98.87s6.56,3.27,14.15,3.99l-14.15-3.99Z"/>
        <path class="cls-5" d="m148.72,47.13s-7.35.65-14.74-1.45l14.74,1.45Z"/>
        <path class="cls-5" d="m148.42,56.92s-7.24.41-14.58-1.64l14.58,1.64Z"/>
        <path class="cls-5" d="m147.44,61.1s-6.91.76-13.81-1.22l13.81,1.22Z"/>
        <path class="cls-5" d="m146.54,65.76s-6.19.67-12.38-1.1l12.38,1.1Z"/>
        <path class="cls-5" d="m143.27,90.08s-7.3.66-14.64-1.42l14.64,1.42Z"/>
        <path class="cls-5" d="m142.59,95.13s-7.3.66-14.64-1.42l14.64,1.42Z"/>
        <path class="cls-5" d="m141.54,100.13s-7.3.66-14.64-1.42l14.64,1.42Z"/>
        <path class="cls-5" d="m140.85,105.26s-7.3.66-14.64-1.42l14.64,1.42Z"/>
        <path class="cls-5" d="m104.91,103.96s6.56,3.27,14.15,3.99l-14.15-3.99Z"/>
        <path class="cls-5" d="m104.2,109.27s6.56,3.27,14.15,3.99l-14.15-3.99Z"/>
        <path class="cls-5" d="m140.14,110.53s-7.3.66-14.64-1.42l14.64,1.42Z"/>
        <path class="cls-5" d="m139.45,115.66s-7.3.66-14.64-1.42l14.64,1.42Z"/>
      </g>
      <g>
        <ellipse class="cls-1" cx="147.21" cy="62.07" rx="8.31" ry="13.18" transform="translate(-11.31 81.92) rotate(-30)"/>
        <rect class="cls-1" x="160.87" y="66.82" width="2.37" height="41.93" transform="translate(-22.18 92.79) rotate(-30)"/>
      </g>
      <g>
        <path class="cls-1" d="m305.5,57.36l19.59,18.85c.13.12.33.15.48.06,2.06-1.2,15.47-9.24,14.54-13.5-.02-.07-.05-.13-.1-.19l-17.09-20.25c-.14-.17-.4-.19-.57-.05l-16.85,14.48c-.18.15-.19.43-.02.59Z"/>
        <ellipse class="cls-3" cx="313.27" cy="48.34" rx="13.01" ry="4.2" transform="translate(46.21 219.08) rotate(-41.36)"/>
      </g>
      <g>
        <rect class="cls-4" x="345.63" y="36.03" width="3.76" height="69.48" rx="1.88" ry="1.88" transform="translate(11.17 183.24) rotate(-30)"/>
        <path class="cls-4" d="m330.33,43.88l-1.15-1.18c-.47-.48-.51-1.25-.08-1.7l19.4-20.74c.43-.46,1.16-.44,1.63.05l1.15,1.18c.47.48.51,1.25.08,1.7l-19.4,20.74c-.43.46-1.16.44-1.63-.05Z"/>
        <ellipse class="cls-6" cx="350.23" cy="21.33" rx=".83" ry="2.14" transform="translate(90.33 257.06) rotate(-45.69)"/>
      </g>
      <g>
        <path class="cls-1" d="m393.46,35.17s2.39,5.09,1.15,5.64-4.36,6.31-4.36,6.31l12.33,9.81-2.89,15.01s1.91,6.17,5.03,7.8,19.77,13.91,22.99,19.01.26,10.13.26,10.13l-21.46,9.91s-8.2-2.08-9.69-6.82l-13.98-20.92,2.69-19.98s.94-4.17-9.05-11.77c0,0,5.53-12.3,5.02-20.05,0,0,1.06-6.36,5.35-7.6l6.62,3.52Z"/>
        <rect class="cls-9" x="388.75" y="26.12" width="4.52" height="9.52" rx=".97" ry=".97" transform="translate(602.11 -299.71) rotate(118.04)"/>
      </g>
      <g>
        <rect class="cls-12" x="425.53" y="28.8" width="9.89" height="13.63" rx="1.63" ry="1.63" transform="translate(8.59 -57.07) rotate(7.66)"/>
        <rect class="cls-12" x="407.49" y="35.32" width="35.79" height="86.24" rx="7.11" ry="7.11" transform="translate(14.25 -56.01) rotate(7.66)"/>
        <rect class="cls-8" x="422.83" y="28.63" width="16.12" height="7.82" rx="1.63" ry="1.63" transform="translate(8.18 -57.16) rotate(7.66)"/>
        <path class="cls-10" d="m409.41,62.93s12.31,8.99,35.47,4.77l-2.18,16.18s-12.53,3.47-35.44-5.02l2.14-15.93Z"/>
        <path class="cls-5" d="m412.01,43.65s7.57,3.4,16.28,4.28l-16.28-4.28Z"/>
        <path class="cls-5" d="m411.07,50.67s6.59,3.01,14.18,3.77l-14.18-3.77Z"/>
        <path class="cls-5" d="m410.44,55.28s6.15,3.21,13.31,3.88l-13.31-3.88Z"/>
        <path class="cls-5" d="m409.73,60.59s5.52,2.87,11.93,3.46l-11.93-3.46Z"/>
        <path class="cls-5" d="m406.58,84.01s6.56,3.27,14.15,3.99l-14.15-3.99Z"/>
        <path class="cls-5" d="m405.87,89.32s6.56,3.27,14.15,3.99l-14.15-3.99Z"/>
        <path class="cls-5" d="m405.15,94.63s6.56,3.27,14.15,3.99l-14.15-3.99Z"/>
        <path class="cls-5" d="m404.44,99.94s6.56,3.27,14.15,3.99l-14.15-3.99Z"/>
        <path class="cls-5" d="m447.56,48.2s-7.35.65-14.74-1.45l14.74,1.45Z"/>
        <path class="cls-5" d="m447.26,57.98s-7.24.41-14.58-1.64l14.58,1.64Z"/>
        <path class="cls-5" d="m446.28,62.16s-6.91.76-13.81-1.22l13.81,1.22Z"/>
        <path class="cls-5" d="m445.38,66.83s-6.19.67-12.38-1.1l12.38,1.1Z"/>
        <path class="cls-5" d="m442.11,91.14s-7.3.66-14.64-1.42l14.64,1.42Z"/>
        <path class="cls-5" d="m441.43,96.19s-7.3.66-14.64-1.42l14.64,1.42Z"/>
        <path class="cls-5" d="m440.38,101.2s-7.3.66-14.64-1.42l14.64,1.42Z"/>
        <path class="cls-5" d="m439.69,106.33s-7.3.66-14.64-1.42l14.64,1.42Z"/>
        <path class="cls-5" d="m403.75,105.03s6.56,3.27,14.15,3.99l-14.15-3.99Z"/>
        <path class="cls-5" d="m403.04,110.34s6.56,3.27,14.15,3.99l-14.15-3.99Z"/>
        <path class="cls-5" d="m438.98,111.6s-7.3.66-14.64-1.42l14.64,1.42Z"/>
        <path class="cls-5" d="m438.29,116.73s-7.3.66-14.64-1.42l14.64,1.42Z"/>
      </g>
      <path class="cls-1" d="m436.37,51.2l-14.2,17.76c-2.45,3.07-2.31,6.33,1.23,9.15l34.18,27.62c3.54,2.83,7.3,2.51,9.75-.56l14.02-17.81c2.46-3.07,2.06-6.69-1.48-9.52l-34.36-27.38c-3.54-2.83-6.69-2.34-9.14.73Zm29.78,50.1c-2.3,2.88-6.85,3.06-10.16.41s-4.13-7.13-1.83-10,6.85-3.06,10.16-.41,4.14,7.13,1.84,10Zm-14.17-11.33c-2.3,2.88-6.85,3.06-10.16.41s-4.13-7.13-1.83-10,6.85-3.06,10.16-.41,4.13,7.13,1.83,10Zm-14.17-11.33c-2.3,2.88-6.85,3.06-10.16.41s-4.13-7.13-1.83-10,6.85-3.06,10.16-.41,4.14,7.13,1.84,10Zm39.37,8.88c-2.3,2.87-6.85,3.06-10.16.41s-4.13-7.13-1.83-10,6.85-3.06,10.16-.41,4.13,7.13,1.83,10Zm-14.17-11.33c-2.3,2.87-6.85,3.06-10.16.41s-4.13-7.13-1.84-10,6.85-3.06,10.16-.41,4.13,7.13,1.83,10Zm-14.17-11.33c-2.3,2.87-6.85,3.06-10.16.41s-4.13-7.13-1.83-10,6.85-3.06,10.16-.41,4.13,7.13,1.83,10Z"/>
      <g>
        <ellipse class="cls-1" cx="475.3" cy="62.7" rx="13.18" ry="8.31" transform="translate(290.94 505.25) rotate(-74.9)"/>
        <rect class="cls-1" x="466.38" y="70.4" width="2.37" height="41.93" transform="translate(39.94 -118.65) rotate(15.1)"/>
      </g>
      <g>
        <path class="cls-1" d="m43.54,55.06l4.11,2.39s5.74-.54,6.37-2.39l2.21-3.31,1.42-2.94,1.69-3.47.71-2.49.89-2.94.34-1.02c.07-.21.1-.42.1-.64v-.92l-.91,1.24c-.17.23-.32.46-.46.71l-1.31,2.34-1,1.83-1.31,2.33-.63,1.2c-.09.17-.18.33-.28.49l-.77,1.25-.98,1.34-1.87-1.07,1.07-2.31,1.6-2.4,4.1-7.3.27-1.34-1.51.94-.89,1.12-1.43,1.92-1.21,1.9-1.18,1.76-.71,1.12-.89,1.38-1.43,1.52-1.16.45-.27-.45c-.44-.74-.5-1.65-.17-2.44l.41-.96,1.59-2.28,1.13-1.7,1.06-1.52,1.22-1.86.85-1.2.95-1.04.15-.2c-.99,0-2.49.74-2.94,1.62h0s-2.13,2.54-2.13,2.54c-.22.27-.44.54-.64.82l-2.1,2.96-1.87,2.14-.89,2.4-.36,1.87-.36,3.38-.09,2.05-.5,1.17Z"/>
        <rect class="cls-1" x="32.06" y="51.07" width="4.73" height="49.29" transform="translate(42.47 -7.07) rotate(30)"/>
      </g>
      <g>
        <rect class="cls-12" x="492.58" y="32.52" width="9.89" height="13.63" rx="1.63" ry="1.63" transform="translate(-1.55 37.51) rotate(-4.31)"/>
        <rect class="cls-12" x="483.54" y="39.16" width="35.79" height="86.24" rx="7.11" ry="7.11" transform="translate(-4.77 37.92) rotate(-4.31)"/>
        <rect class="cls-13" x="489.24" y="32.33" width="16.12" height="7.82" rx="1.63" ry="1.63" transform="translate(-1.32 37.48) rotate(-4.31)"/>
        <path class="cls-10" d="m482.6,70.43s13.91,6.24,35.69-2.69l1.23,16.28s-11.54,5.99-35.71,2.44l-1.21-16.03Z"/>
        <path class="cls-5" d="m481.13,51.02s8.11,1.76,16.82.81l-16.82-.81Z"/>
        <path class="cls-5" d="m481.66,58.08s7.07,1.58,14.65.74l-14.65-.74Z"/>
        <path class="cls-5" d="m482.02,62.73s6.69,1.87,13.82,1.03l-13.82-1.03Z"/>
        <path class="cls-5" d="m482.42,68.06s5.99,1.66,12.39.91l-12.39-.91Z"/>
        <path class="cls-5" d="m484.19,91.63s7.09,1.84,14.67.97l-14.67-.97Z"/>
        <path class="cls-5" d="m484.6,96.97s7.09,1.84,14.67.97l-14.67-.97Z"/>
        <path class="cls-5" d="m485,102.32s7.09,1.84,14.67.97l-14.67-.97Z"/>
        <path class="cls-5" d="m485.4,107.66s7.09,1.84,14.67.97l-14.67-.97Z"/>
        <path class="cls-5" d="m516.86,48.1s-7.06,2.16-14.72,1.64l14.72-1.64Z"/>
        <path class="cls-5" d="m518.59,57.73s-7,1.91-14.61,1.42l14.61-1.42Z"/>
        <path class="cls-5" d="m518.5,62.03s-6.6,2.17-13.76,1.67l13.76-1.67Z"/>
        <path class="cls-5" d="m518.59,66.78s-5.92,1.94-12.34,1.49l12.34-1.49Z"/>
        <path class="cls-5" d="m520.43,91.24s-7.01,2.16-14.62,1.65l14.62-1.65Z"/>
        <path class="cls-5" d="m520.82,96.32s-7.01,2.16-14.62,1.65l14.62-1.65Z"/>
        <path class="cls-5" d="m520.83,101.44s-7.01,2.16-14.62,1.65l14.62-1.65Z"/>
        <path class="cls-5" d="m521.21,106.6s-7.01,2.16-14.62,1.65l14.62-1.65Z"/>
        <path class="cls-5" d="m485.79,112.78s7.09,1.84,14.67.97l-14.67-.97Z"/>
        <path class="cls-5" d="m486.19,118.12s7.09,1.84,14.67.97l-14.67-.97Z"/>
        <path class="cls-5" d="m521.61,111.9s-7.01,2.16-14.62,1.65l14.62-1.65Z"/>
        <path class="cls-5" d="m522,117.06s-7.01,2.16-14.62,1.65l14.62-1.65Z"/>
      </g>
      <path class="cls-4" d="m234.52,108.5s11.78-2.01,22.62-8.72c2.06-1.28,3.33-3.53,3.34-5.95.04-6.2-.45-18.96-4.47-29.99,0-.03-.02-.05-.03-.08-.28-.98-5.68-20.04-9.56-25.34-.11-.15-.19-.3-.23-.48l-5.32-19.95c-.6-2.26-2.79-3.72-5.11-3.41h0c-2.61.35-4.41,2.81-3.95,5.41,1.53,8.65,4.53,26.41,4.04,30.1-.44,3.31-7.22,4.02-11.62,4.14-2.41.06-4.79.49-7.08,1.25-3.89,1.29-8.8,2.26-10.09.27-2.02-3.13-6.87-20.47-9.16-28.95-.69-2.55-3.37-4.01-5.88-3.21h0c-2.23.7-3.6,2.96-3.18,5.26l3.59,19.78c.09.47.1.95.03,1.42-1.06,6.69,1.95,25.12,2.19,26.59.01.07.02.13.03.2,1.15,12.62,6.89,25.31,9.33,30.22.68,1.37,1.99,2.32,3.51,2.53,9.17,1.3,17.92-.03,22.46-.84,1.92-.34,2.79-.12,5.08-.34"/>
      <g>
        <path class="cls-1" d="m159.16,82l3.29.86s3.93-1.16,4.07-2.38l1-2.33.51-1.99.6-2.36.08-1.62.13-1.92.07-.67c.01-.14,0-.27-.03-.4l-.15-.56-.43.89c-.08.16-.15.33-.2.5l-.53,1.61-.4,1.26-.53,1.61-.24.82c-.03.11-.07.23-.11.34l-.33.87-.46.95-1.49-.38.36-1.56.72-1.7,1.65-5.04-.04-.85-.9.79-.44.81-.68,1.38-.53,1.33-.53,1.25-.31.78-.39.97-.75,1.13-.74.44-.27-.24c-.43-.39-.63-.93-.53-1.46l.13-.65.73-1.62.51-1.2.49-1.08.54-1.31.4-.85.49-.77.07-.14c-.69.14-1.62.81-1.79,1.41h0s-1.07,1.85-1.07,1.85c-.11.19-.21.39-.31.59l-.98,2.11-.95,1.57-.22,1.59.06,1.19.32,2.11.28,1.26-.15.79Z"/>
        <polygon class="cls-1" points="152.81 111.09 149.54 110.25 159.65 80.7 162.93 81.54 152.81 111.09"/>
      </g>
      <g>
        <path class="cls-1" d="m158.07,44.77s2.79,4.88,3.95,4.18,7.67.07,7.67.07l.93,15.73,13.94,6.27s3.95,5.11,3.49,8.6,0,24.17,2.32,29.74,8.13,6.04,8.13,6.04l20.45-11.85s3.02-7.9,0-11.85l-9.06-23.47-17.89-9.29s-3.95-1.63-4.42-14.17c0,0-13.25-2.56-19.29-7.44,0,0-5.81-2.79-9.29,0l-.93,7.44Z"/>
        <rect class="cls-7" x="153.7" y="35.53" width="4.52" height="9.52" rx=".97" ry=".97" transform="translate(6.16 -18.92) rotate(7.08)"/>
      </g>
      <g>
        <rect class="cls-12" x="244.34" y="62.66" width="4.13" height="5.69" rx="1.63" ry="1.63" transform="translate(27.16 -64.64) rotate(15.81)"/>
        <rect class="cls-12" x="234.3" y="64.9" width="14.94" height="35.99" rx="7.11" ry="7.11" transform="translate(31.72 -62.72) rotate(15.81)"/>
        <rect class="cls-11" x="243.39" y="62.62" width="6.73" height="3.26" rx="1.63" ry="1.63" transform="translate(26.83 -64.78) rotate(15.81)"/>
        <path class="cls-10" d="m236.08,75.54s4.56,4.44,14.37,4.07l-1.86,6.56s-5.38.69-14.34-4.17l1.83-6.46Z"/>
        <path class="cls-5" d="m238.3,67.73s2.93,1.85,6.48,2.73l-6.48-2.73Z"/>
        <path class="cls-5" d="m237.49,70.57s2.54,1.63,5.64,2.39l-5.64-2.39Z"/>
        <path class="cls-5" d="m236.96,72.44s2.35,1.69,5.27,2.39l-5.27-2.39Z"/>
        <path class="cls-5" d="m236.35,74.59s2.11,1.51,4.72,2.14l-4.72-2.14Z"/>
        <path class="cls-5" d="m233.67,84.08s2.52,1.74,5.61,2.49l-5.61-2.49Z"/>
        <path class="cls-5" d="m233.06,86.23s2.52,1.74,5.61,2.49l-5.61-2.49Z"/>
        <path class="cls-5" d="m232.45,88.38s2.52,1.74,5.61,2.49l-5.61-2.49Z"/>
        <path class="cls-5" d="m231.84,90.54s2.52,1.74,5.61,2.49l-5.61-2.49Z"/>
        <path class="cls-5" d="m252.72,71.71s-3.08-.17-6-1.47l6,1.47Z"/>
        <path class="cls-5" d="m252.01,75.74s-3.02-.26-5.93-1.54l5.93,1.54Z"/>
        <path class="cls-5" d="m251.36,77.4s-2.9-.1-5.63-1.32l5.63,1.32Z"/>
        <path class="cls-5" d="m250.71,79.28s-2.6-.09-5.05-1.19l5.05,1.19Z"/>
        <path class="cls-5" d="m247.93,89.13s-3.06-.16-5.96-1.45l5.96,1.45Z"/>
        <path class="cls-5" d="m247.35,91.18s-3.06-.16-5.96-1.45l5.96,1.45Z"/>
        <path class="cls-5" d="m246.62,93.18s-3.06-.16-5.96-1.45l5.96,1.45Z"/>
        <path class="cls-5" d="m246.03,95.26s-3.06-.16-5.96-1.45l5.96,1.45Z"/>
        <path class="cls-5" d="m231.26,92.6s2.52,1.74,5.61,2.49l-5.61-2.49Z"/>
        <path class="cls-5" d="m230.65,94.75s2.52,1.74,5.61,2.49l-5.61-2.49Z"/>
        <path class="cls-5" d="m245.42,97.4s-3.06-.16-5.96-1.45l5.96,1.45Z"/>
        <path class="cls-5" d="m244.83,99.48s-3.06-.16-5.96-1.45l5.96,1.45Z"/>
      </g>
      <g>
        <path class="cls-1" d="m271.46,62.63l-8.42,22.09c-.14.19-12.89,7.04-12.74,7.23,1.94,2.54,17.65,21.22,20.44,15.95.37-.69,9.53-20.5,9.59-20.57l13.73-3.99c.19-.22.17-.57-.05-.77l-21.78-20.02c-.23-.21-.59-.18-.77.08Z"/>
        <ellipse class="cls-2" cx="284.52" cy="71.47" rx="5.5" ry="17.32" transform="translate(40.53 234.34) rotate(-47.83)"/>
      </g>
      <g>
        <rect class="cls-12" x="183.11" y="63.93" width="4.13" height="5.69" rx="1.63" ry="1.63" transform="translate(-8.38 30.94) rotate(-9.34)"/>
        <rect class="cls-12" x="180.9" y="66.49" width="14.94" height="35.99" rx="7.11" ry="7.11" transform="translate(-11.21 31.69) rotate(-9.34)"/>
        <rect class="cls-11" x="181.6" y="63.86" width="6.73" height="3.26" rx="1.63" ry="1.63" transform="translate(-8.18 30.89) rotate(-9.34)"/>
        <path class="cls-10" d="m180.1,80.25s6.01,2.09,14.74-2.42l1.11,6.73s-4.58,2.91-14.76,2.32l-1.09-6.62Z"/>
        <path class="cls-5" d="m178.78,72.23s3.44.43,7.02-.28l-7.02.28Z"/>
        <path class="cls-5" d="m179.26,75.15s3,.4,6.12-.23l-6.12.23Z"/>
        <path class="cls-5" d="m179.58,77.07s2.85.53,5.78-.08l-5.78.08Z"/>
        <path class="cls-5" d="m179.94,79.27s2.55.47,5.18-.07l-5.18.07Z"/>
        <path class="cls-5" d="m181.54,89s3.02.5,6.13-.13l-6.13.13Z"/>
        <path class="cls-5" d="m181.9,91.21s3.02.5,6.13-.13l-6.13.13Z"/>
        <path class="cls-5" d="m182.27,93.42s3.02.5,6.13-.13l-6.13.13Z"/>
        <path class="cls-5" d="m182.63,95.62s3.02.5,6.13-.13l-6.13.13Z"/>
        <path class="cls-5" d="m193.53,69.71s-2.85,1.16-6.06,1.22l6.06-1.22Z"/>
        <path class="cls-5" d="m194.6,73.65s-2.84,1.05-6.02,1.13l6.02-1.13Z"/>
        <path class="cls-5" d="m194.72,75.44s-2.66,1.15-5.66,1.2l5.66-1.2Z"/>
        <path class="cls-5" d="m194.93,77.41s-2.39,1.02-5.07,1.07l5.07-1.07Z"/>
        <path class="cls-5" d="m196.59,87.52s-2.83,1.16-6.02,1.22l6.02-1.22Z"/>
        <path class="cls-5" d="m196.94,89.62s-2.83,1.16-6.02,1.22l6.02-1.22Z"/>
        <path class="cls-5" d="m197.13,91.74s-2.83,1.16-6.02,1.22l6.02-1.22Z"/>
        <path class="cls-5" d="m197.48,93.87s-2.83,1.16-6.02,1.22l6.02-1.22Z"/>
        <path class="cls-5" d="m182.98,97.74s3.02.5,6.13-.13l-6.13.13Z"/>
        <path class="cls-5" d="m183.34,99.95s3.02.5,6.13-.13l-6.13.13Z"/>
        <path class="cls-5" d="m197.84,96.06s-2.83,1.16-6.02,1.22l6.02-1.22Z"/>
        <path class="cls-5" d="m198.19,98.19s-2.83,1.16-6.02,1.22l6.02-1.22Z"/>
      </g>
      <g>
        <path class="cls-1" d="m259.13,66.6l4.69.81s5.19-2.5,5.14-4.46l.92-3.87.31-3.25.38-3.84-.2-2.58-.19-3.06-.04-1.08c0-.22-.05-.43-.12-.63l-.32-.86-.42,1.48c-.08.27-.14.55-.18.83l-.42,2.65-.3,2.06-.42,2.64-.17,1.35c-.02.19-.05.37-.09.56l-.29,1.44-.45,1.59-2.12-.35.2-2.54.67-2.81,1.3-8.27-.21-1.34-1.09,1.41-.45,1.36-.67,2.3-.47,2.2-.5,2.07-.28,1.3-.36,1.61-.81,1.92-.93.82-.41-.33c-.67-.54-1.05-1.37-1-2.23l.05-1.05.7-2.69.47-1.99.46-1.79.5-2.16.38-1.42.52-1.3.08-.24c-.92.34-2.07,1.56-2.19,2.54h0s-1.11,3.12-1.11,3.12c-.12.33-.22.66-.31.99l-.94,3.5-1.01,2.65v2.56s.32,1.88.32,1.88l.84,3.3.63,1.95-.06,1.27Z"/>
        <rect class="cls-1" x="255.4" y="64.49" width="4.73" height="49.29" transform="translate(18.57 -41.91) rotate(9.64)"/>
      </g>
      <path class="cls-1" d="m182.85,82.07l-10.94-6.29c-1.89-1.09-2.98-.3-4.72,1.11l-10.98,18.84c-.14,1.6-.55,3.85,1.34,4.93l10.94,6.2c2.83.25,2.91-.14,4.89-1.25l10.83-18.92c.05-1.96.29-3.13-1.37-4.61Zm-23.37,17.78c-1.77-1.02-2.36-3.32-1.31-5.15s3.34-2.48,5.11-1.46,2.36,3.32,1.31,5.15-3.33,2.48-5.11,1.46Zm4.49-7.8c-1.77-1.02-2.36-3.32-1.31-5.15s3.34-2.48,5.11-1.46,2.35,3.32,1.31,5.15-3.33,2.48-5.1,1.46Zm4.49-7.8c-1.77-1.02-2.36-3.32-1.31-5.15s3.34-2.48,5.11-1.46,2.35,3.32,1.31,5.15-3.33,2.48-5.11,1.46Zm-.49,20.49c-1.77-1.02-2.35-3.32-1.31-5.15s3.34-2.48,5.1-1.46,2.36,3.32,1.31,5.15c-1.05,1.82-3.34,2.48-5.11,1.46Zm4.49-7.8c-1.77-1.02-2.36-3.32-1.31-5.15s3.34-2.48,5.11-1.46,2.36,3.32,1.31,5.15-3.34,2.48-5.11,1.46Zm4.49-7.8c-1.77-1.02-2.35-3.32-1.31-5.15s3.34-2.48,5.1-1.46,2.36,3.32,1.31,5.15-3.34,2.48-5.11,1.46Z"/>
      <g>
        <path class="cls-1" d="m524.81,43s-1.82,5.32-.53,5.73,5.02,5.8,5.02,5.8l-11.19,11.09,4.5,14.61s-1.23,6.34-4.15,8.3-18.14,15.97-20.79,21.4.84,10.1.84,10.1l22.41,7.52s7.93-2.95,8.89-7.83l11.63-22.31-4.85-19.57s-1.39-4.04,7.72-12.68c0,0-6.83-11.63-7.16-19.39,0,0-1.75-6.2-6.14-6.98l-6.2,4.22Z"/>
        <rect class="cls-7" x="524.51" y="33.7" width="4.52" height="9.52" rx=".97" ry=".97" transform="translate(261.85 -418.47) rotate(55.72)"/>
      </g>
      <path class="cls-4" d="m582.8,140.71s17.58,4.09,36.48,1.22c3.59-.55,6.61-2.88,7.98-6.19,3.5-8.45,9.91-26.16,10.4-43.56,0-.04,0-.08,0-.12.16-1.5,3.19-30.67.71-40.17-.07-.26-.09-.52-.06-.79l3.65-30.33c.41-3.44-1.84-6.71-5.26-7.62h0c-3.85-1.04-7.73,1.28-8.53,5.09-2.66,12.71-8.33,38.7-11.07,43.45-2.46,4.26-12.33,1.3-18.55-1.1-3.41-1.31-6.97-2.11-10.59-2.4-6.15-.5-13.57-2.02-14.26-5.5-1.09-5.44,1.77-31.94,3.26-44.86.45-3.88-2.48-7.43-6.44-7.81h0c-3.51-.33-6.67,1.96-7.37,5.35l-5.97,29.1c-.14.69-.38,1.36-.75,1.96-5.2,8.51-11.23,35.44-11.7,37.6-.02.1-.05.19-.08.29-5.4,17.91-4.42,38.57-3.75,46.69.19,2.27,1.5,4.32,3.5,5.49,12.1,7.1,25.07,10.37,31.87,11.89,2.88.64,3.97,1.46,7.29,2.48"/>
      <g>
        <path class="cls-1" d="m582.28,30.21l-8.42,22.09c-.14.19-12.89,7.04-12.74,7.23,1.94,2.54,17.65,21.22,20.44,15.95.37-.69,9.53-20.5,9.59-20.57l13.73-3.99c.19-.22.17-.57-.05-.77l-21.78-20.02c-.23-.21-.59-.18-.77.08Z"/>
        <ellipse class="cls-2" cx="595.33" cy="39.05" rx="5.5" ry="17.32" transform="translate(166.7 454.04) rotate(-47.83)"/>
      </g>
      <g>
        <path class="cls-1" d="m621.17,33.18s3.22,4.61,2.09,5.36-3.22,6.96-3.22,6.96l13.82,7.57-.3,15.29s2.93,5.76,6.28,6.83,21.84,10.34,25.89,14.83,1.98,9.94,1.98,9.94l-19.46,13.41s-8.43-.65-10.71-5.07l-17.33-18.23-.75-20.15s.22-4.27-10.92-10.06c0,0,3.36-13.07,1.53-20.61,0,0-.03-6.44,3.98-8.4l7.12,2.34Z"/>
        <rect class="cls-9" x="615.77" y="24.6" width="4.52" height="9.52" rx=".97" ry=".97" transform="translate(839.47 -548.38) rotate(108.25)"/>
      </g>
      <g>
        <rect class="cls-4" x="104.09" y="77.96" width="1.41" height="18.99" rx=".7" ry=".7" transform="translate(-30.46 69.11) rotate(-32.13)"/>
        <path class="cls-4" d="m99.7,80.36l-.36-.29c-.15-.12-.14-.34.03-.51l7.41-7.32c.16-.16.42-.2.56-.08l.36.29c.15.12.14.34-.03.51l-7.41,7.32c-.16.16-.42.2-.56.08Z"/>
        <ellipse class="cls-6" cx="107.34" cy="72.47" rx=".3" ry=".61" transform="translate(-12.5 121.58) rotate(-56.31)"/>
      </g>
      <g>
        <rect class="cls-4" x="104.87" y="78.67" width="1.41" height="18.99" rx=".7" ry=".7" transform="translate(6.36 -7.1) rotate(3.97)"/>
        <path class="cls-4" d="m105.64,79.44l-.12-.44c-.05-.18.09-.36.32-.39l10.3-1.55c.23-.03.45.09.5.27l.12.44c.05.18-.09.36-.32.39l-10.3,1.55c-.23.03-.45-.09-.5-.27Z"/>
        <ellipse class="cls-6" cx="116.46" cy="77.57" rx=".3" ry=".61" transform="translate(-19.63 45.01) rotate(-20.21)"/>
      </g>
      <g>
        <ellipse class="cls-1" cx="349.8" cy="41.3" rx="8.31" ry="13.18" transform="translate(-2.43 41.98) rotate(-6.84)"/>
        <rect class="cls-1" x="352.15" y="49.81" width="2.37" height="41.93" transform="translate(-5.92 42.62) rotate(-6.84)"/>
      </g>
      <g>
        <path class="cls-1" d="m656.94,64.32l-12.26,31.64c-.08.21-.04.44.11.57,1.92,1.73,14.65,12.89,18.63,9.69.06-.05.12-.12.15-.2l14.53-29.51c.12-.25.06-.55-.15-.67l-20.41-11.81c-.22-.13-.5,0-.61.28Z"/>
        <ellipse class="cls-3" cx="668.72" cy="68.59" rx="5.2" ry="13.81" transform="translate(275.57 613.87) rotate(-60.07)"/>
      </g>
      <g>
        <path class="cls-1" d="m678.6,60.35l2.43,23.51c-.03.23-8.34,12.09-8.12,12.19,2.87,1.4,25.31,11,25.43,5.03.02-.78-.72-22.59-.7-22.68l10.46-9.74c.07-.28-.1-.58-.39-.66l-28.46-8.07c-.3-.09-.6.11-.65.41Z"/>
        <ellipse class="cls-2" cx="694.23" cy="62.36" rx="5.5" ry="17.32" transform="translate(449.73 715.09) rotate(-74.6)"/>
      </g>
      <path class="cls-1" d="m730.37,65.01l-9.05-1.88c-1.56-.32-2.67.13-2.96,1.5l-2.86,13.33c-.29,1.37.58,2.42,2.14,2.75l9.03,1.82c1.56.32,2.75-.24,3.04-1.62l2.74-13.35c.29-1.37-.51-2.22-2.08-2.55Zm-11.61,14.87c-1.47-.3-2.44-1.6-2.17-2.88s1.67-2.09,3.14-1.78,2.44,1.59,2.17,2.88-1.67,2.09-3.14,1.78Zm1.14-5.51c-1.47-.3-2.44-1.59-2.17-2.88s1.67-2.09,3.14-1.78,2.44,1.6,2.17,2.88-1.67,2.09-3.14,1.78Zm1.14-5.51c-1.47-.3-2.44-1.6-2.17-2.88s1.67-2.09,3.14-1.78,2.44,1.6,2.17,2.88-1.67,2.09-3.14,1.78Zm4.74,12.48c-1.46-.3-2.44-1.6-2.17-2.88s1.67-2.09,3.14-1.78,2.44,1.59,2.17,2.88-1.67,2.09-3.14,1.78Zm1.14-5.51c-1.46-.3-2.44-1.59-2.17-2.88s1.67-2.09,3.14-1.78,2.44,1.6,2.17,2.88-1.67,2.09-3.14,1.78Zm1.14-5.51c-1.46-.3-2.44-1.6-2.17-2.88s1.67-2.09,3.14-1.78,2.44,1.6,2.17,2.88-1.67,2.09-3.14,1.78Z"/>
      <path class="cls-4" d="m718.45,102.98s5.76.38,11.66-1.61c1.12-.38,1.99-1.32,2.29-2.49.78-2.99,2.12-9.2,1.59-14.98,0-.01,0-.03,0-.04,0-.5-.2-10.32-1.37-13.32-.03-.08-.05-.17-.05-.26l-.04-10.23c0-1.16-.85-2.12-1.98-2.23h0c-1.27-.13-2.41.85-2.51,2.15-.34,4.35-1.12,13.26-1.81,14.98-.61,1.54-3.88,1.11-5.95.66-1.14-.25-2.3-.31-3.47-.21-1.98.17-4.4.08-4.76-1.03-.56-1.74-.7-10.66-.74-15.01-.01-1.31-1.08-2.32-2.36-2.23h0c-1.13.08-2.05,1.01-2.13,2.17l-.75,9.95c-.02.24-.07.47-.16.69-1.32,3.1-2.17,12.34-2.24,13.08,0,.03,0,.06-.01.1-1.01,6.22.12,13,.66,15.65.15.74.65,1.35,1.33,1.62,4.13,1.68,8.39,2.05,10.62,2.17.94.05,1.32.26,2.42.42"/>
      <g>
        <ellipse class="cls-1" cx="714.51" cy="66.78" rx="2.82" ry="3.87" transform="translate(-2.03 27.28) rotate(-2.18)"/>
        <rect class="cls-1" x="714.44" y="69.33" width=".81" height="12.31" transform="translate(-2.36 27.3) rotate(-2.18)"/>
      </g>
      <g>
        <path class="cls-4" d="m389.43,91.77h0c.7.32,1.55.15,1.89-.36l21.59-32.69c.34-.52.05-1.19-.65-1.51h0c-.7-.32-1.55-.15-1.89.36l-21.59,32.69c-.34.52-.05,1.19.65,1.51Z"/>
        <path class="cls-4" d="m412.29,59.07l.8-.67c.33-.27.31-.72-.03-.99l-15.67-12.37c-.35-.27-.89-.27-1.22,0l-.8.67c-.33.27-.31.72.03.99l15.67,12.37c.35.27.89.27,1.22,0Z"/>
        <ellipse class="cls-6" cx="396.15" cy="45.64" rx="1.38" ry=".57" transform="translate(46.92 238.14) rotate(-35.44)"/>
      </g>
    </g>
  </g>
</svg>