<?xml version="1.0" encoding="UTF-8"?>
<svg xmlns="http://www.w3.org/2000/svg" viewBox="0 0 278 269">
  <defs>
    <style>
      .cls-1 {
        fill: #ffc735;
        stroke: #ffc735;
      }

      .cls-1, .cls-2, .cls-3, .cls-4, .cls-5, .cls-6, .cls-7, .cls-8, .cls-9, .cls-10 {
        stroke-miterlimit: 10;
      }

      .cls-2 {
        fill: #0063a7;
        stroke: #0063a7;
      }

      .cls-3 {
        fill: #0078ea;
        stroke: #0078ea;
      }

      .cls-11 {
        font-family: MyriadPro-Regular, 'Myriad Pro';
        font-size: 19.65px;
      }

      .cls-4 {
        fill: #42210b;
      }

      .cls-4, .cls-7, .cls-8 {
        stroke: #000;
      }

      .cls-5 {
        fill: #0093f8;
        stroke: #0093f8;
      }

      .cls-12 {
        letter-spacing: 0em;
      }

      .cls-6 {
        fill: #002a72;
        stroke: #002a72;
      }

      .cls-7 {
        fill: none;
      }

      .cls-13 {
        letter-spacing: -.03em;
      }

      .cls-9 {
        fill: #5db4ff;
        stroke: #5db4ff;
      }

      .cls-10 {
        fill: #ffe149;
        stroke: #ffe149;
      }
    </style>
  </defs>
  <g id="Lag_25">
    <ellipse class="cls-2" cx="88.5" cy="194.5" rx="55" ry="9"/>
    <polygon class="cls-5" points="32.98 53.08 39.81 193.26 41.97 197.79 57.11 202.32 94.4 205.52 135.21 202.32 156.02 197.79 161.7 53.08 137.91 50.46 32.98 53.08"/>
    <polygon class="cls-3" points="43.34 55.7 49.32 199.99 75.72 205.52 70.55 59.63 43.34 55.7"/>
    <polygon class="cls-9" points="126.25 59.63 119.06 203.59 146.98 201.12 153.45 53.8 126.25 59.63"/>
    <ellipse class="cls-2" cx="97.75" cy="46.53" rx="71.25" ry="17.03"/>
    <ellipse class="cls-6" cx="99.05" cy="45.88" rx="54.41" ry="12.45"/>
    <path class="cls-2" d="M38.57,191.07c4.05,1.45,8.39,2.8,13,4,8.94,2.33,23.87,6.1,42,5,11.1-.67,21.07-3.11,41-8,.43-.1,2.13-1.44,4-1,1.18.28,2.7,1.27,3,3,.31,1.77-1.31,3.32-2,4-7.15,7.01-35,10-35,10-12.34,1.34-18.54,1-20,1-9.56-.02-16.71-.68-31-4,0,0-5.46-1.27-15-6-2.77-1.37-5.2-2.75-5-4,.19-1.18,2.62-1.75,4-2"/>
  </g>
  <g id="Lag_24">
    <ellipse class="cls-8" cx="188.5" cy="231.5" rx="54" ry="8"/>
    <path class="cls-10" d="M140.85,106.31c-1.93,9.32-4.65,42.51-5.68,52.47-.27,2.63-.34,2.81-.57,4.92-1.55,14.36-1.6,35.7,5.11,66.13,1.89,1.82,3.78,3.64,5.68,5.47,4.37,2.18,9.49,4.31,15.33,6.01,16.05,4.69,28.84,3.62,44.28,2.19,23.28-2.16,27.8-6.66,29.52-8.74,2.35-2.84,3.23-5.68,4.54-12.02,3.99-19.37,4.46-35.14,4.54-38.26.42-16.64.64-24.96,0-34.98-1.43-22.5-4.95-33.95-6.81-39.35-.78-2.25-.56-6.07-3.41-8.74-4.29-4.04-10.33-1.99-21.57-2.19-15.23-.26-14.15-4.2-24.98-3.28-10.62.9-13.11,4.81-24.98,5.47-7.25.4-9.62-1.48-14.76-1.09-.68.05-2.09.19-3.41,1.09-2.06,1.41-2.61,3.82-2.84,4.92Z"/>
    <path class="cls-1" d="M164.12,115.6c-1.94,2.74-4.52,6.79-6.81,12.02-1.44,3.28-5.39,13.01-5.68,32.79-.2,14.01-.37,25.32,4.54,39.35,3.2,9.14,7.42,21.21,18.17,32.79,4.34,4.69,9.09,8.58,7.95,10.93-1.85,3.8-16.43.4-18.17,0-6.54-1.52-15.5-3.61-20.44-10.93-2.05-3.04-2.59-5.77-3.41-10.93-3.11-19.72-3.41-28.42-3.41-28.42-.64-19.13-.97-28.69,0-38.26,1.01-10.03,2.18-13.05,5.68-39.35.17-1.25-.98-5.18,1.14-8.74,1.92-3.23,6.22-6.17,10.22-5.47,4.87.86,7.36,6.81,9.08,10.93.55,1.3.9,2.44,1.14,3.28Z"/>
    <ellipse class="cls-8" cx="189.5" cy="101" rx="54" ry="11.5"/>
    <path class="cls-4" d="M151.63,102.67c.46,2.18,3.73,3.36,7.95,4.37,8.58,2.07,15.68,2.17,17.03,2.19,13.65.13,20.67.04,23.84,0,9.37-.13,14.19-.23,20.44-2.19,2.46-.77,9.15-2.87,9.08-5.47-.01-.48-.29-2.02-6.81-4.37-7.57-2.73-14.02-3.12-17.03-3.28-11.05-.57-19.9-.25-24.98,0,0,0-5,.06-15.9,1.09-5.33.5-9.95,1.08-12.49,4.37-.47.61-1.43,1.89-1.14,3.28Z"/>
    <path class="cls-7" d="M187.29,153.23l-18.13,30.02c-1.14,1.88.16,4.32,2.31,4.35l36.78.44c2.12.03,3.42-2.38,2.29-4.23l-18.58-30.58c-1.08-1.78-3.6-1.78-4.68,0Z"/>
    <polygon class="cls-8" points="183.42 164.79 187.97 169.16 191.37 169.16 194.78 164.79 183.42 164.79"/>
    <polygon class="cls-8" points="192.51 177.07 194.78 183.54 199.5 174.63 194.78 174.63 192.51 177.07"/>
    <polygon class="cls-8" points="178.88 175.72 183.86 175.72 185.69 176.81 186.01 183.28 178.88 175.72"/>
    <ellipse class="cls-8" cx="189.67" cy="174.08" rx="1.7" ry="1.64"/>
    <path class="cls-8" d="M139.5,228.5c4.05,1.45,8.39,2.8,13,4,8.94,2.33,23.87,6.1,42,5,11.1-.67,21.07-3.11,41-8,.43-.1,2.13-1.44,4-1,1.18.28,2.7,1.27,3,3,.31,1.77-1.31,3.32-2,4-7.15,7.01-35,10-35,10-12.34,1.34-18.54,1-20,1-9.56-.02-16.71-.68-31-4,0,0-5.46-1.27-15-6-2.77-1.37-5.2-2.75-5-4,.19-1.18,2.62-1.75,4-2"/>
    <rect class="cls-10" x="61.5" y="114.5" width="72" height="30" rx="8.57" ry="8.57"/>
    <text class="cls-11" transform="translate(71.23 136.18) scale(.99 1)"><tspan class="cls-13" x="0" y="0">TO</tspan><tspan class="cls-12" x="22.25" y="0">XIC</tspan></text>
  </g>
</svg>