<svg width="515" height="535" viewBox="0 0 515 535" fill="none" xmlns="http://www.w3.org/2000/svg">
<g clip-path="url(#clip0_237_115)">
<path d="M259.501 77.4084C261.763 79.8575 263.809 82.1296 265.636 84.1635C266.859 85.5254 269.462 88.4306 272.776 92.2584C276.004 95.9865 278.221 98.6127 278.633 99.1038C283.656 104.964 295.64 111.93 309.152 114.874C314.172 115.969 321.845 117.041 331.322 115.998C332.739 115.686 334.155 115.374 335.567 115.037C339.445 114.113 346.846 112.297 360.926 108.732C364.047 110.463 368.563 113.06 373.861 116.47C381.679 121.49 389.871 126.822 398.687 135.203C399.959 136.413 405.181 141.427 410.956 148.713C415.991 155.055 423.251 165.475 433.471 189.448C445.311 217.244 457.273 254.236 461.232 258.199C461.474 258.444 462.656 259.529 462.687 261.059C462.732 263.025 460.847 264.539 460.219 265.056C451.475 272.283 410.267 314.372 409.895 314.755C409.455 315.201 409.087 316.388 408.123 316.581C403.317 317.554 391.252 295.898 386.336 277.277C385.827 275.354 384.915 271.614 383.427 271.556C381.354 271.478 379.625 278.68 377.132 287.493C374.545 296.634 371.158 305.531 368.431 314.628C365.232 325.273 362.818 332.579 357.991 347.19C351.144 367.917 350.037 369.37 342.995 390.262C342.04 393.092 342.602 391.489 330.814 428.252L310.281 492.291C310.284 492.651 310.325 494.077 309.585 494.462C308.817 494.862 307.625 493.917 307.435 493.772C303.866 491.144 252.253 477.587 221.79 468.706C200.752 462.571 187.013 458.561 168.026 451.467C147.313 443.725 126.973 434.785 91.6487 423.387C91.2078 423.246 89.362 423.492 88.4228 422.353C86.3999 419.897 90.1965 413.789 92.599 409.328C96.5634 401.957 98.2671 393.574 101.331 385.794C105.608 374.932 106.594 370.304 113.511 347.804C116.723 337.343 114.668 344.345 128.824 300.046C145.545 247.712 144.484 250.245 146.573 244.69C155.608 220.654 164.224 203.176 161.569 201.618C160.682 201.094 159.141 202.719 155.528 205.666C147.546 212.18 134.616 222.734 127.062 220.479C122.202 219.029 120.738 212.61 117.607 201.887C113.451 187.627 105.414 169.644 102.937 158.879C101.581 152.974 100.692 147.386 100.692 147.386C100.454 145.838 100.236 145.516 100.313 144.871C100.755 141.014 106.036 139.153 112.744 135.689C116.793 133.6 120.556 131 124.478 128.679C131.541 124.515 134.995 121.841 142.602 116.535C164.743 101.107 163.143 104.472 177.078 94.0731C184.635 88.4404 189.144 84.4396 197.7 81.5333C203.527 79.5592 208.277 79.0952 211.617 78.8133C229.45 77.3014 248.187 77.2641 259.501 77.4084Z" fill="#10002E" stroke="#10002E" stroke-miterlimit="10"/>
<path d="M258.078 78.1487C256.746 78.7512 257.093 82.5134 258.171 88.9518C260.048 100.147 260.991 105.752 263.008 110.852C264.817 115.418 267.804 122.779 274.613 130.133C277.785 133.556 283.87 139.984 294.031 143.541C307.859 148.382 319.994 144.672 323.697 143.477C334.088 140.142 340.47 134.18 347.862 127.286C348.827 126.386 365.036 112.299 363.077 109.421C362.552 108.654 360.918 108.944 357.004 109.868C348.126 111.965 343.689 113.008 338.818 114.81C328.482 118.642 318.122 116.78 311.302 115.563C303.677 114.196 289.748 111.705 280.436 100.878C276.012 95.7375 271.354 90.7009 262.031 80.6132C261.204 79.7139 259.242 77.6243 258.078 78.1487Z" fill="#00032E" stroke="black" stroke-miterlimit="10"/>
<path d="M115.413 133.576C117.38 133.62 117.68 145.148 117.68 145.148C118.395 173.172 136.002 211.938 138.469 214.489C138.585 214.609 139.158 215.152 139.204 215.933C139.276 217.261 137.759 218.367 137.067 218.863C135.418 220.046 131.163 223.147 126.649 221.544C123.519 220.432 122.059 217.702 120.471 214.739C119.061 212.108 118.797 210.455 117.505 205.349C116.816 202.614 115.51 197.479 114.152 193.429C112.325 187.923 111.277 187.013 108.639 180.816C107.278 177.627 107.362 177.403 103.09 164.578C98.4105 150.509 97.1821 147.35 98.9434 143.964C100.241 141.472 103.554 139.829 105.379 138.798C106.93 137.919 110.403 136.184 112.549 135.076C113.503 134.58 113.972 134.335 113.986 134.328C115.232 133.662 115.295 133.575 115.424 133.58L115.413 133.576Z" fill="white" stroke="white" stroke-miterlimit="10"/>
<path d="M395.622 301.944C396.256 300.375 399.05 300.35 401.028 300.026C406.071 299.201 408.01 296.076 417.213 286.937C427.214 277.013 426.567 279.068 432.668 272.393C437.345 267.274 437.667 266.12 444.143 259.016C449.33 253.341 449.951 253.181 451.675 250.466C453.245 248.013 454.466 245.424 455.619 245.638C456.292 245.758 456.443 246.728 457.081 248.548C457.304 249.183 459.594 255.651 462.947 260.173C463.262 260.597 463.573 260.996 463.678 261.628C464.093 264.143 460.534 266.701 459.38 267.564C454.134 271.46 450.207 276.94 445.366 281.349C440.334 285.948 442.554 284.313 431.353 295.134C419.844 306.25 420.133 305.421 419.136 307.053C419.136 307.053 416.806 310.878 409.808 317.468C409.62 317.647 409.116 318.108 408.367 318.227C406.932 318.449 405.641 317.15 404.377 315.727C401.865 312.911 400.502 310.726 398.536 307.761C395.932 303.826 395.213 302.925 395.608 301.951L395.622 301.944Z" fill="white" stroke="white" stroke-miterlimit="10"/>
<path d="M94.2754 402.731C95.875 400.886 104.788 407.371 104.788 407.371C106.846 408.868 108.315 409.687 139.248 419.689C160.5 426.562 157.871 425.552 166.453 428.411C173.601 430.787 186.796 435.197 203.085 441.425C221.368 448.425 221.084 449.124 236.076 454.553C253.247 460.765 264.938 463.951 267.636 464.672C275.822 466.878 288.025 469.39 294.496 470.735C301.6 472.211 308.25 476.545 315.543 476.214C315.7 476.205 316.318 476.163 316.629 476.562C317.247 477.335 316.136 479.062 315.146 481.186L310.698 495.058C310.575 495.701 310.564 495.996 310.33 496.208C309.503 496.973 307.311 495.564 305.975 494.812L273.329 484.345C260.433 480.258 258.907 480.762 244.669 476.424C235.702 473.693 236.408 473.524 228.346 471.191C218.309 468.284 217.088 468.503 207.299 465.711C200.835 463.866 202.112 463.988 186.621 459.081C174.37 455.201 172.842 454.902 167.029 452.799C160.389 450.395 157.464 449.014 151.075 446.415C142.233 442.814 139.016 441.902 124.239 436.542C111.98 432.096 105.059 429.123 98.4894 427.017C92.7043 425.162 89.801 424.231 89.7795 424.224C88.5132 424.105 87.23 424.113 86.5106 423.176C85.3501 421.655 86.5652 418.753 87.276 417.053C89.0758 412.735 91.8387 410.257 92.7821 407.352C93.3355 405.626 93.5234 405.04 93.5234 405.04C94.1318 403.068 94.116 402.896 94.2647 402.728L94.2754 402.731Z" fill="white" stroke="white" stroke-miterlimit="10"/>
<path d="M239.509 76.8875C237.314 78.147 238.483 83.0823 239.55 91.5521C240.778 101.258 240.483 104.324 241.912 110.073C242.716 113.299 243.863 116.971 243.863 116.971C243.863 116.971 244.561 119.529 245.368 121.487C252.064 137.735 263.873 146.728 267.294 149.261C292.149 167.716 320.895 161.576 325.339 160.547C347.531 155.429 361.38 141.196 366.803 134.783C370.83 130.03 371.203 128.09 375.716 121.781C376.097 121.257 377.058 119.925 376.781 118.459C376.664 117.824 376.357 117.378 376.06 117.008C374.275 114.735 371.624 113.203 371.394 113.069C365.919 109.842 365.28 109.098 364.222 109.549C363.396 109.906 363.326 110.567 362.082 112.526C361.101 114.067 360.121 115.165 358.156 117.372C356.103 119.67 354.428 121.12 351.37 123.742C347.691 126.896 347.734 126.539 344.939 129.006C341.158 132.33 340.889 133.13 338.153 135.377C335.033 137.932 332.308 139.404 330.647 140.296C327.768 141.839 322.798 144.434 315.979 145.36C310.548 146.097 306.436 145.424 303.086 144.889C299.567 144.323 294.147 143.4 288.031 140.062C282.106 136.834 278.537 132.984 275.828 130.044C270.534 124.325 267.534 118.815 266.119 115.943C263.274 110.171 262.136 105.473 260.701 99.5547C259.696 95.4022 258.18 89.5174 258.154 85.3077C258.153 84.7567 258.164 82.3184 257.778 79.0826C257.643 77.878 257.929 77.096 257.413 76.5235C256.666 75.7095 255.426 76.1738 252.757 76.2516C250.423 76.3173 250.878 75.9723 248.101 75.9796C245.906 75.9822 244.203 76.1902 242.014 76.47C240.497 76.6537 239.74 76.7582 239.509 76.8875Z" fill="white" stroke="white" stroke-miterlimit="10"/>
<g opacity="0.1">
<path d="M208.234 94.7621C197.963 104.013 198.88 114.47 191.53 150.19C187.846 168.077 184.358 181.25 177.395 207.59C173.235 223.338 171.095 231.342 168.691 238.064C162.699 254.792 159.345 258.002 145.911 285.81C134.812 308.777 129.22 320.486 127.034 331.372C123.819 347.315 126.653 350.57 121.87 364.118C115.769 381.41 107.046 387.794 109.933 394.693C113.094 402.254 126.801 402.256 129.932 402.254C132.577 402.252 142.2 401.938 150.063 396.092C159.123 389.361 162.866 377.502 166.468 338.271C170.462 294.747 166.842 298.494 170.192 286.713C177.667 260.369 190.351 260.642 208.33 224.392C215.538 209.861 219.112 198.271 226.27 175.094C231.329 158.725 235.818 141.36 237.468 120.199C239.581 93.0823 234.759 88.9627 232.912 87.7718C226.46 83.5963 215.243 88.4746 208.242 94.7764L208.234 94.7621Z" fill="white" stroke="#10002E" stroke-miterlimit="10"/>
</g>
</g>
<defs>
<clipPath id="clip0_237_115">
<rect width="402" height="432" fill="white" transform="translate(131.94) rotate(17.7775)"/>
</clipPath>
</defs>
</svg>
