<?xml version="1.0" encoding="UTF-8"?>
<svg xmlns="http://www.w3.org/2000/svg" viewBox="0 0 314 249">
  <defs>
    <style>
      .cls-1 {
        fill: #667662;
        stroke: #667662;
      }

      .cls-1, .cls-2, .cls-3, .cls-4, .cls-5, .cls-6, .cls-7, .cls-8, .cls-9, .cls-10, .cls-11, .cls-12 {
        stroke-miterlimit: 10;
      }

      .cls-2 {
        fill: #d5c893;
        stroke: #d5c893;
      }

      .cls-3 {
        fill: #76886f;
        stroke: #76886f;
      }

      .cls-4 {
        fill: #abb9a0;
        stroke: #abb9a0;
      }

      .cls-5 {
        fill: #566355;
        stroke: #566355;
      }

      .cls-6 {
        fill: #fff;
      }

      .cls-6, .cls-12 {
        stroke: #000;
      }

      .cls-7 {
        fill: #2f5700;
        stroke: #2f5700;
      }

      .cls-8 {
        fill: #fffef1;
        stroke: #fffef1;
      }

      .cls-9 {
        fill: #647662;
        stroke: #647662;
      }

      .cls-10 {
        fill: #b5be9e;
        stroke: #b5be9e;
      }

      .cls-11 {
        fill: #536052;
        stroke: #536052;
      }
    </style>
  </defs>
  <g id="Lag_2">
    <path class="cls-4" d="M198,156c.58-1.82,2.83-2.54,4-3,.26-.1,2.84-2.07,8-6,6.96-5.31,9.31-7.57,10-7,.51.41-.52,1.82-1,5-.29,1.92-.23,3.47,0,6,.61,6.59,1.74,12.63,2,14,1.23,6.58,1.85,9.87,2,11,1.37,10.38-3.84,19.47-7,25-7.27,12.71-17.38,19.15-25,24-9.8,6.24-18.04,11.49-30,12-16.11.69-31.46-7.86-31-10,.09-.4.68-.39,2-1,4.06-1.87,5.99-5.42,7-7,.59-.93,5.07-4.97,14-13,13.85-12.46,20.82-18.71,23-20,6.45-3.8,9.75-4.32,14-9,0,0,4.89-5.49,7-13,.8-2.83,1.2-4.25,1-6-.08-.74-.23-1.28,0-2Z"/>
    <path class="cls-4" d="M227.5,104.5c-.15.04-1-3-1-3-.62-2.21-.93-3.32-1-4-.2-2.03.33-2.25,0-4-.28-1.48-.68-1.45-1-3-.14-.68-.45-2.24,0-4,.48-1.87,1.25-1.73,2-4,.56-1.71.29-2.29,1-3,.8-.8,1.69-.6,3-1,2-.61,3.03-2,4-3,1.53-1.57,4.02-2.71,9-5,3.29-1.51,7.74-3.55,14-5,5.6-1.29,11.63-2.69,19-1,2.06.47,4.04,1.32,8,3,9.93,4.21,12.27,7.05,13,8,.52.68,1.35,2.45,3,6,4.76,10.21,4.45,11.96,4,13-.48,1.1-1.49,2.32-6,4-2.67,1-9.04,3.09-22,3-6.83-.05-12.24-.67-15-1-1.36-.16-3.79-.45-7-1-5.95-1.01-7.38-1.68-10-2-6.14-.76-6.15,2.14-13,2-1.27-.03-3.17-.15-4,1-1.03,1.41.13,3.97,0,4Z"/>
    <path class="cls-4" d="M154.5,55.5c2.12.42,5.27.9,9,0,2.16-.52,3.85-1.34,5-2,0,0,3.12-.95,7-1,10.35-.13,33.42,10.6,35,8,.05-.08.03-.39,0-1-.11-2.11-.59-3.76-1-5-.34-1.03-1.48-4.33-3-7-5.24-9.2-16-17-16-17-10.1-7.32-19.47-10.3-25-12-7.22-2.23-14.76-4.56-25-4-11.46.62-19.2,4.47-22,6-4.93,2.69-13,8.24-12,11,.21.59.78.88,1,1,7.26,3.84,28.96,19.4,47,23Z"/>
    <path class="cls-1" d="M10.5,143.5c-1.22-1.11,0-4.32,1-7,2.08-5.52,5.2-9.11,6-10,6.84-7.67,15.15-10.98,18-12,6.24-2.24,11.36-2.55,19-3,11.21-.67,12.28-.8,13,0,4.04,4.49-3.01,20.97-13,24-1.13.34-2.76.56-6,1-5.77.78-7.96.57-13,1-5.43.46-8.81.75-13,2-7.3,2.17-10.55,5.32-12,4Z"/>
    <path class="cls-4" d="M53.5,148.5c-1.43.57-2.96,1.72-6,4-3.69,2.77-6.22,5.23-7,6-2.11,2.08-3.23,3.5-9,11-6.6,8.58-6.5,8.52-7,9-6.26,5.98-12.27,6.79-12,9,.21,1.74,4.1,2.59,6,3,2.77.6,9.69,1.69,20-2,1.45-.52,8.36-3.06,16-9,1.46-1.14,9.28-7.34,15-18,2.19-4.07,2.37-5.63,2-7-1.43-5.31-11.41-8.64-18-6Z"/>
    <path class="cls-4" d="M32.5,146.5c-.04-.48,1.6-.56,5-2,4.1-1.74,6.03-3.46,13-7,1.83-.93,3.24-1.59,4-1,.88.68.51,2.74,0,4-1.58,3.92-6.51,5.3-9,6-6.33,1.78-12.91.95-13,0Z"/>
  </g>
  <g id="Lag_3">
    <path class="cls-3" d="M225.5,87.5c0-.07,0-1.6,1-2,.08-.03.55-.21,1,0,.22.11.49.33,1,3,.11.57.14.8,0,1-.33.46-1.34.4-2,0-.97-.59-1-1.83-1-2Z"/>
    <path class="cls-3" d="M229.5,79.5c-.72,1.18-.59,2.81,0,4,.18.37.78,1.59,2,2,1.71.58,3.51-.83,5-2,.75-.59,2.33-1.93,5-6,1.62-2.48,3.58-5.47,3-6-.29-.26-1.01.22-4,2-4.12,2.44-6.18,3.67-7,4-2.35.96-3.32.89-4,2Z"/>
    <path class="cls-3" d="M243.5,80.5c-.31-.46.39-.96,1-3,.75-2.49.3-3.69,1-4,.85-.38,2.32,1.05,3,2,.45.62,1.31,1.81,1,3-.61,2.32-5.31,3.05-6,2Z"/>
    <path class="cls-3" d="M249.5,71.5c-.2.96.53,1.97,2,4,1.62,2.24,2.54,3.51,4,4,3.57,1.21,7.98-3.02,10-6,.27-.4,3.51-5.26,2-7-.61-.7-1.72-.59-8,1-8.29,2.1-9.74,2.78-10,4Z"/>
    <path class="cls-3" d="M267.5,77.5c-.71-.47-.67-2.06,0-3,1.29-1.8,4.74-.95,5,0,.32,1.15-3.7,3.87-5,3Z"/>
    <path class="cls-3" d="M272.5,70.5c-.95-.73-1.01-2.84,0-4,1.32-1.52,3.85-.7,5,0,.53.32.94.58,1,1,.2,1.52-4.35,4.27-6,3Z"/>
    <path class="cls-3" d="M275.5,73.5c-.25-1.51,2.54-3.37,5-4,3.53-.9,7.78.39,8,2,.17,1.21-1.95,2.4-3,3-.71.4-3.63,2-7,1-.88-.26-2.81-.84-3-2Z"/>
    <path class="cls-3" d="M287.5,81.5c-.86-3.22.15-6.14,2-7,1.76-.82,3.93.4,5,1,.69.39,3.15,1.76,3,3-.13,1.06-2.18,2.24-10,3Z"/>
    <path class="cls-7" d="M293.5,94.5c-.14.67,1.74,1.62,3,2,.19.06,2.57.76,3,0,.28-.5-.35-1.46-1-2-1.72-1.41-4.83-.8-5,0Z"/>
    <path class="cls-8" d="M267.5,86.5c.14.77.42,1.83,1,3,.51,1.02,1.97,3.95,5,5,3.74,1.3,8.15-.85,10-4,.34-.58,1.18-2.06,1-4-.38-3.95-4.67-5.86-5-6-3.31-1.41-7.52-.69-10,2-1.34,1.45-1.81,3.09-2,4Z"/>
    <path class="cls-12" d="M268.5,86.5c.53.14,1.29.41,2,1,1.27,1.05,1.16,2.07,2,3,1.77,1.96,5.59,1.1,6,1,2.19-.52,5.12-2.21,5-4-.06-.96-1.04-1.64-3-3-1.62-1.12-2.54-1.76-4-2-2.48-.4-4.45.68-5,1-1.71.98-2.61,2.33-3,3Z"/>
    <path class="cls-2" d="M227.5,99.5c2.7-.77,6.86-1.73,12-2,9.22-.48,13.04,1.74,22,3,15.87,2.22,27.76-1.39,28,0,.13.72-3.05,1.9-6,3-1.56.58-4.4,1.62-8,2-.94.1-3.89.36-11-1-8.22-1.57-8.24-2.68-13-3-4.04-.27-7.25.32-11,1-6.88,1.25-12.25,3.38-13,2-.09-.17-.05-.27,0-1,.12-1.68.07-3.05,0-4Z"/>
    <path class="cls-3" d="M143.5,232.5c-.18-.86.69-1.7,1-2,1.5-1.45,4.01-1.73,6-1,2.59.96,4.63,3.77,4,5-.7,1.37-4.63.52-7,0-1.79-.39-3.76-.84-4-2Z"/>
    <path class="cls-3" d="M157.5,231.5c-1.43-.23-3.03-1.56-3-3,.03-1.65,2.16-2.62,3-3,2.14-.98,5.38-1.22,6,0,.83,1.64-2.75,6.53-6,6Z"/>
    <path class="cls-3" d="M161.5,234.5c-.81-1.58,3.49-5.32,6-7,4.64-3.1,9.03-3.03,10-3,1.9.07,5.75.56,6,2,.23,1.35-2.83,2.91-5,4-6.24,3.12-15.92,6.13-17,4Z"/>
    <path class="cls-3" d="M173.5,220.5c-.91-.22-1.52-.65-2-1-.63-.46-.95-.68-1-1-.13-.79,1.12-1.64,2-2,.49-.2,1.98-.8,3,0,1.21.95,1.04,3.34,0,4-.54.35-1.26.18-2,0Z"/>
    <path class="cls-3" d="M179.5,220.5c-.35-.35-1.22-1.22-1-2,.26-.89,1.64-.65,4-2,1.18-.68,1.65-1.21,2-1,.4.24.03,1.11,0,3-.03,2.09.41,2.52,0,3-.81.96-3.5.49-5-1Z"/>
    <path class="cls-3" d="M187.5,225.5c-.33-.43-.76-1.11-1-2-.74-2.73.88-5.25,2-7,1.03-1.6,2.36-3.68,5-5,2.97-1.49,7.8-2.12,9,0,1.17,2.07-1.82,5.78-2,6-1.35,1.64-2.68,2.2-6,4-1.67.9-4.09,2.25-7,4Z"/>
    <path class="cls-3" d="M194.5,206.5c.68,1.69,4.04,2.54,6,1,1.47-1.15,2.1-3.61,1-5-.97-1.23-2.82-1.02-3-1-2.48.31-4.73,3.2-4,5Z"/>
    <path class="cls-3" d="M202.5,199.5c-.76.05-1.69-.31-2-1-.56-1.26,1.09-3.38,3-4,.41-.13,1.55-.5,2,0,.83.93-.74,4.85-3,5Z"/>
    <path class="cls-3" d="M206.5,210.5c-1.31-.38-1.81-2.29-2-3-.77-2.93.21-6.05,1-8,1.38-3.41,3.6-5.99,8-11,3.04-3.47,4.07-4.27,5-4,1.43.41,2.01,3.19,2,5-.01,1.96-.72,3.44-1,4,0,0-7.95,16.02-12,17-.15.04-.55.13-1,0Z"/>
    <path class="cls-3" d="M211.5,184.5c-1.31-.54-1.25-3.42-1-5,.17-1.04.6-3.76,2-4,1.19-.2,2.58,1.47,3,3,.7,2.54-1.06,5.49-3,6-.25.07-.62.16-1,0Z"/>
    <path class="cls-3" d="M218.5,154.5c-.85.5-2.17,1.42-3,3-1.52,2.86.14,4.83,0,11-.08,3.31-.58,3.98,0,6,.74,2.55,2.64,5.27,4,5,1.34-.26,1.77-3.33,2-5,.47-3.36.03-6.05-1-11-.54-2.59-1.2-5.62-2-9Z"/>
    <path class="cls-3" d="M17.5,189.5c-.23-.25-.11-.74,0-1,.53-1.22,2.94-2.03,4-1,.88.86.59,2.78,0,3-.47.18-.81-.81-2-1-.99-.16-1.67.37-2,0Z"/>
    <path class="cls-3" d="M24.5,190.5c-.26-.5.5-1.34,2-3,1.75-1.94,3.01-3.33,4-3,1.03.34,1.61,2.49,1,4-1.16,2.85-6.45,3.07-7,2Z"/>
    <path class="cls-3" d="M33.5,188.5c-.42-.58.72-2.06,3-5,3.26-4.2,4.89-6.3,6-6,1.59.44,2.62,4.61,1,7-.2.29-.65.87-3,2-1.68.81-6.27,3.01-7,2Z"/>
    <path class="cls-3" d="M32.5,183.5c-.46-.29-.34-1.35,0-2,.87-1.68,3.72-1.61,4-1,.36.79-3.04,3.61-4,3Z"/>
    <path class="cls-3" d="M45.5,177.5c-.74-.12-1.19-1.76-1-3,.27-1.75,1.81-2.74,3-3,.5-.11.8-.17,1,0,.95.84-1.58,6.23-3,6Z"/>
    <path class="cls-3" d="M47.5,169.5c-.43-.54.32-2.51,2-3,1.39-.4,2.96.34,3,1,.07,1.14-4.33,2.85-5,2Z"/>
    <path class="cls-3" d="M56.5,164.5c-.64-1.62,2.04-5.63,5-5,2.27.48,3.72,3.49,3,5-1.07,2.24-7.24,1.93-8,0Z"/>
    <path class="cls-3" d="M47.5,181.5c-1.11-.97,1.13-5.31,2-7,1.44-2.78,2.54-4.92,5-6,2.99-1.32,7.32-.78,8,1,1.43,3.74-12.89,13.85-15,12Z"/>
    <path class="cls-11" d="M11.5,138.5c.56,1.13,3.44,1.13,4,0,.47-.96-.58-3-2-3s-2.47,2.04-2,3Z"/>
    <path class="cls-11" d="M14.5,132.5c0,.42.53.83,1,1,1.33.47,2.2-1,5-2,1.96-.7,2.84-.45,3-1,.26-.91-1.88-2.54-4-3-.9-.19-1.47-.32-2,0-1.21.72-.47,2.72-2,4-.48.4-1,.58-1,1Z"/>
    <path class="cls-11" d="M19.5,125.5c-.15-.73,1.22-.93,7-5,2.12-1.49,2.84-2.1,4-2,2.33.21,4.62,3.15,4,5-.25.76-.99,1.35-3,2-5.07,1.65-11.68,1.58-12,0Z"/>
    <path class="cls-11" d="M25.5,130.5c-.48-.43-.38-1.42,0-2,1.06-1.65,4.85-.83,5,0,.17.92-3.9,2.99-5,2Z"/>
    <path class="cls-11" d="M36.5,121.5c-.34.91,1.11,2.74,3,3,2.39.33,4.31-2.04,4-3-.46-1.44-6.44-1.52-7,0Z"/>
    <path class="cls-11" d="M45.5,124.5c-.43-.61.53-2.39,2-3,.61-.25,1.68-.45,2,0,.43.61-.53,2.39-2,3-.61.25-1.68.45-2,0Z"/>
    <path class="cls-11" d="M52.5,118.5c-1.1-2.01,1.56-6.22,4-6,2.19.2,4.22,3.95,3,6-1.29,2.18-5.95,1.91-7,0Z"/>
    <path class="cls-11" d="M34.5,117.5c.11.57,1.93.09,7,1,5.04.91,6.57,1.99,8,1,1.67-1.15,2.29-4.49,1-6-2.97-3.47-16.3,2.43-16,4Z"/>
    <path class="cls-3" d="M117.5,24.5c-.52-1.18,2.48-3.73,5-5,1.94-.98,5.28-2.05,6-1,.67.96-1,3.56-3,5-2.99,2.15-7.46,2.24-8,1Z"/>
    <path class="cls-3" d="M129.5,24.5c.13,1.23,2.52,1.87,3,2,3.48.93,7.89-.46,8-2,.11-1.48-3.71-3.62-7-3-1.92.36-4.13,1.75-4,3Z"/>
    <path class="cls-3" d="M134.5,17.5c-.24,1.5,6.89,3.66,8,4,4.12,1.25,7.38,2.19,11,1,.39-.13,4.01-1.32,4-3,0-1.36-2.4-2.34-4-3-6.19-2.54-11.56-1.28-17,0-1.01.24-1.92.49-2,1Z"/>
    <path class="cls-3" d="M148.5,30.5c-.5-.73.23-2.2,1-3,.32-.33,1.07-1.1,2-1,1.3.14,2.34,1.89,2,3-.51,1.69-4.24,2.11-5,1Z"/>
    <path class="cls-3" d="M156.5,28.5c-.69-1.21,0-3.02,1-4,.26-.26.95-.94,2-1,1.36-.07,2.5.95,3,2,.05.1.8,1.74,0,3-1.17,1.84-4.98,1.8-6,0Z"/>
    <path class="cls-3" d="M162.5,18.5c-.86.54-.98,1.78-1,2-.14,1.51.83,2.76,2,4,3.36,3.56,5.05,5.35,8,6,4.54,1,9.85-1.05,10-3,.1-1.33-2.2-2.53-5-4-3.49-1.83-3.93-1.14-8-3-3.19-1.46-4.8-2.75-6-2Z"/>
    <path class="cls-3" d="M174.5,34.5c.25-1.6,3.2-2.9,5-2,1.26.63,1.59,2.15,2,4,.31,1.41.55,2.52,0,3-.94.81-3.56-.74-5-2-1.04-.91-2.17-1.9-2-3Z"/>
    <path class="cls-3" d="M183.5,40.5c-.45,1.24,1.8,2.85,2,3,.74.53,2.46,1.52,3,1,.77-.75-.76-4.81-3-5-.78-.07-1.76.33-2,1Z"/>
    <path class="cls-3" d="M183.5,31.5c.03.1.06.17.15.36.67,1.51,1.46,2.99,1.85,3.64,1.25,2.06,4.02,4.83,6,7,4.62,5.07,4.72,6.31,7,7,2.19.66,5.21.46,6-1,.41-.76.11-1.67,0-2-2.32-6.93-16.49-13.51-19-18-.15-.27-.54-1.03-1-1-.75.05-1.61,2.21-1,4Z"/>
    <path class="cls-3" d="M196.5,56.5c-1.32-1.62-1.16-4.38,0-5,1.06-.57,2.73.78,3,1,1.64,1.33,2.89,3.93,2,5-.85,1.01-3.65.65-5-1Z"/>
    <path class="cls-3" d="M204.5,58.5c-.69-.64-1.34-1.81-1-3,.45-1.59,2.46-2.45,4-2,2.07.61,3.07,3.54,2,5-.98,1.35-3.6,1.3-5,0Z"/>
  </g>
  <g id="Lag_4">
    <path class="cls-5" d="M47.5,143.5c.06-.64,1.04-2.43,3-6,.41-.75,1.49-2.99,6-10,5.57-8.65,5.29-9.39,9-15,4.4-6.66,8.55-11.24,11-14,3.69-4.15,9.61-10.34,10-10,.51.44-9.9,10.62-20,28,0,0-1.22,2.11-12,23,1.65,1.9,3.98,4.38,7,7,2.24,1.95,10.03,8.45,22,13,10.85,4.12,19.71,4.57,30,5,17.47.73,30.98-1.84,42-4,11-2.16,18.3-3.59,27-7,23.38-9.15,40.89-28.91,41-29,0,0-1.01-8.77-2-15-1.99-12.55-3.58-12.9-4-19-.72-10.63,2.85-18.26,4-20,.18-.27.48-.68,1-1,1.51-.92,3.46-.2,4,0,.19.07,3.51,1.35,4,4,.36,1.95-1.01,3.55-2,5,0,0-3.4,5.6-4,12-.19,2.08.21,2.17,2,10,1.44,6.29,2.33,11.24,3,15,0,0,.21,1.15,2,12-2.33,2.33-4.67,4.67-7,7-4.84,4.84-6.26,6.54-9,9-1.98,1.78-4.45,3.82-9,7-10.35,7.24-16.8,11.75-25,15-4.66,1.85-12.11,2.9-27,5-9.65,1.36-17.42,2.44-28,3-11.67.62-17.51.93-24,0-11.01-1.58-18.1-5.1-32-12-22.99-11.41-23.13-16.59-23-18Z"/>
  </g>
  <g id="Lag_5">
    <path class="cls-10" d="M86.5,88.5c1.86-1.43,3.28-2.09,7-5,3.01-2.36,3.07-2.7,5-4,2.43-1.63,4.38-2.46,8-4,4.03-1.71,6.05-2.57,8-3,.48-.11,1.62-.34,3-1,1.59-.76,2.59-1.65,3-2,3.01-2.55,7.24-3.78,8-4,3.73-1.08,5.19-.3,9-2,.7-.31.5-.27,2-1,1.43-.69,3.68-1.73,7-3,4.62-1.76,6.93-2.65,9-3,3.69-.63,4.58,0,8-1,2.43-.71,2.79-1.26,5-2,.7-.24,3.75-1.21,9-1,6.12.25,8.69,1.85,20,5,1.58.44,6.62,1.82,13,4,2.85.97,6.7,2.35,9,6,.09.14.28,1.08,1,2,.43.56.87.59,1,1,.25.81-.81,1.81-1,2-2.04,2.01-2.66,7.77-3,11-.15,1.38-.3,3.9,2,15,2.22,10.71,3.94,15.94,4,25,0,.14.11.53,0,1-.3,1.23-1.71,1.86-2,2-2.18,1.05-5.8,5.81-12,11-3.64,3.05-12,10.05-23,15-6.27,2.82-13.85,4.21-29,7-9.92,1.82-17.95,3.27-29,4-7.73.51-14.26.91-23,0-6.68-.69-14.01-1.45-23-5-16.14-6.36-22.93-15.89-27-18-.18-.09-.77-.39-1-1-.53-1.4,1.32-3.27,2-4,.03-.03,2.02-3.69,6-11,3.16-5.8,2.62-5.68,5-10,1.85-3.35,2.09-3.28,11-16,4.81-6.87,5.66-8.2,8-10Z"/>
  </g>
  <g id="Lag_6">
    <path class="cls-9" d="M56.5,137.5c2.01-1.32,5.16-3.4,9-6,7.64-5.16,8.72-6.07,16-11,7.35-4.98,14.99-9.99,15-10,.36,0,1.09-.02,2,0,3.29.07,11.19.22,12,3,.12.42.05.79,0,1-2.23,9.88-9,22-9,22-5.7,10.18-5.9,10.9-6,12-.15,1.57-.25,5.42-2,6-.44.15-.85.04-1,0-7.25-1.94-6.8-.68-12-3-4.5-2.01-13.24-6.71-24-14"/>
    <path class="cls-9" d="M101.5,156.5c-.37-.69.42-3.46,2-9,.55-1.94.82-2.95,1.31-4.32,1.2-3.4,2.44-5.55,5.69-14.68,1.35-3.79,3.44-7.29,5-11,.35-.82.83-1.99,2-3,1.84-1.59,3.87-1.47,7-2,4.51-.77,5.72-2.8,7-2,1.13.71,1.05,2.57,1,5-.3,13.59.99.92,0,14-.79,10.42-.89,8.93-1,12-.37,10.14,1.17,12.81-1,15-1.66,1.67-3.41.99-12,1-11.61,0-15.81,1.25-17-1Z"/>
    <path class="cls-9" d="M137.5,110.5c-2.49,1.9-1.44,6.03-1,13,.49,7.7.75,26.87-1,32-.11.31-.48,1.34,0,2,.83,1.12,3.58.36,5,0,4.89-1.24,10.01-1.25,15-2,7.73-1.16,10.29-1.21,11-3,.55-1.39-.38-2.92-1-4-.11-.19-2.41-6.46-7-19-3.12-8.51-4.68-12.77-5-14-.96-3.68-1.61-7.21-4-8-.9-.3-1.44,0-5,1-5.8,1.64-6.17,1.37-7,2Z"/>
    <path class="cls-9" d="M153.5,105.5c-1.31,3.08,1.72,5.04,8,16,8.78,15.33,13.17,22.99,14,28,.07.45.22,1.48,1,2,2.34,1.58,7.42-3.36,14-8,10.89-7.68,22.69-12.23,28-20,.45-.66,1.11-1.71,1-3-.29-3.44-5.74-5.14-12-8-8.67-3.96-15.47-8.59-19-11-7.92-5.39-10.52-8.68-15-8-1.84.28-2,.93-7,4-9.35,5.76-11.91,5.43-13,8Z"/>
    <path class="cls-9" d="M170.5,64.5c-.72,1.01,1.6,2.68,3,7,1.6,4.93,1,10,1,10-.32,2.71-1.04,4.37,0,6,.88,1.39,2.45,1.83,3,2,3.75,1.15,4.57,3.19,14,9,16.9,10.41,21.23,9.8,26,14,.34.3,1.46,1.31,2,1,.91-.53-.66-4.42-2-9-1.68-5.74-3.08-10.53-3-16,.09-6.79,2.41-10.86,0-13-.98-.87-2.2-.94-3-1-.58-.04-6.72-1.7-19-5-5-1.34-10.06-2.47-15-4-3.27-1.02-6.26-2.04-7-1Z"/>
    <path class="cls-9" d="M169.5,53.5c-.18.17-1.06,1-1,2,.12,2.11,4.34,3.46,6,4,11.93,3.89,24.07,7.1,36,11,1.1.36,4.26,1.43,7,0,.49-.26,1.87-.98,2-2,.09-.69-.26-2.56-11-7-6.81-2.81-12.8-4.59-18-6-.08-.02-6.67-2.71-12-3-.62-.03-1.41-.02-3,0-4.39.06-5.3.34-6,1Z"/>
    <path class="cls-9" d="M141.5,66.5c-1.08,2.89,1.41,4.26,4,12,2.1,6.26,2.81,12.36,3,14,.69,6.09.37,10.57,2,11,.67.17,1.32-.42,2-1,4.81-4.13,3.56-1.52,10-7,4.12-3.5,6.18-5.25,7-7,1.13-2.42,1.09-4.62,1-9-.03-1.5-.2-6.16-2-12-1.81-5.87-3.36-6.72-4-7-1.14-.49-1.83-.19-5,0-4.2.25-4.9-.17-7,0-3.57.29-9.57,2.16-11,6Z"/>
    <path class="cls-9" d="M118.5,73.5c-.54,1.73,1.29,2.29,4,9,.77,1.9,1.48,3.65,2,6,.46,2.08,1.6,7.17,0,13-1.13,4.12-2.85,5.73-2,7,.72,1.07,2.71.98,8,0,6.19-1.15,3.04-.72,13-3,.54-.12,1.36-.31,2-1,1.52-1.65.59-4.71,0-7-1.34-5.18,2.23,5.92-2-12-4.31-18.24-5.69-19.91-7-20-.73-.05-1.21.4-2,1-7.43,5.63-14.91,3.52-16,7Z"/>
    <path class="cls-9" d="M98.5,84.5c.57-.97,3.72-2.99,10-7,4.32-2.76,5.79-3.6,7-3,1.5.74,1.38,3.08,2,7,1.05,6.7,2.29,5.77,3,11,.26,1.89-.16,5.93-1,14-.13,1.23-.24,2.21-1,3-2.24,2.35-7.84.69-11-1-5.01-2.69-7.19-7.25-8-9-.93-2.02-4.32-9.35-1-15Z"/>
    <path class="cls-9" d="M63.5,127.5c-.62-.65,1.59-4.1,6-11,1.16-1.82,6.45-10.05,12-17,.03-.04.02-.02,4-5,1.85-2.31,2.1-4.27,4-5,.26-.1,1.77-.69,3,0,.52.29.82.71,1,1,1.98,3.2,4,15,4,15h0s-7.01,5.26-8,6c-7.05,5.27-24.08,18.01-26,16Z"/>
    <path class="cls-6" d="M277.5,85.5c.65-.65,2.57-.1,3,1,.19.49.02.94,0,1-.29.76-1.27,1.2-2,1-1.21-.32-1.64-2.35-1-3Z"/>
  </g>
</svg>