<svg width="257" height="478" viewBox="0 0 257 478" fill="none" xmlns="http://www.w3.org/2000/svg">
<g clip-path="url(#clip0_197_965)">
<path d="M75.8888 336.393C81.6979 333.649 85.5648 329.294 84.5257 326.666C83.4867 324.038 77.9351 324.131 72.126 326.875C66.3169 329.619 62.45 333.973 63.4891 336.602C64.5282 339.23 70.0797 339.136 75.8888 336.393Z" fill="url(#paint0_radial_197_965)"/>
<path opacity="0.1" d="M4.712 271.511C3.26186 277.543 2.81566 283.586 3.26632 289.472C4.92617 311.36 18.9591 330.736 39.4975 336.638C60.0359 342.539 80.9715 333.204 92.2648 315.037C95.3034 310.151 97.637 304.65 99.0871 298.617C105.936 270.135 90.3595 240.971 64.3016 233.485C38.2437 225.999 11.5611 243.024 4.712 271.506V271.511Z" fill="url(#paint1_radial_197_965)"/>
<path opacity="0.15" d="M77.848 317.002C84.88 316.841 91.8229 311.535 96.1688 303.244C97.5743 300.562 98.7032 297.577 99.4796 294.344C102.554 281.566 99.0959 269.081 91.6533 263.556C95.6825 271.232 96.9273 281.8 94.3439 292.535C93.4069 296.436 92.046 300.026 90.3504 303.264C87.1333 309.409 82.7338 314.183 77.8435 317.002H77.848Z" fill="url(#paint2_radial_197_965)"/>
<path opacity="0.1" d="M39.2297 244.228C30.038 243.745 20.5429 249.978 14.1891 260.366C12.1321 263.726 10.4143 267.511 9.12922 271.651C4.06488 288.018 7.5363 304.649 16.7904 312.598C12.1678 302.186 11.4227 288.272 15.6749 274.524C17.2232 269.525 19.2936 264.975 21.7744 260.917C26.4774 253.217 32.617 247.423 39.2252 244.228H39.2297Z" fill="url(#paint3_radial_197_965)"/>
<path style="mix-blend-mode:overlay" d="M52.1917 342.821C81.009 342.821 104.37 317.287 104.37 285.79C104.37 254.292 81.009 228.759 52.1917 228.759C23.3744 228.759 0.0134277 254.292 0.0134277 285.79C0.0134277 317.287 23.3744 342.821 52.1917 342.821Z" fill="url(#paint4_radial_197_965)"/>
<path d="M74.9492 251.133C76.163 230.28 60.8866 212.244 40.8285 210.849C20.7704 209.454 3.52616 225.229 2.31242 246.083C1.09868 266.936 16.375 284.972 36.4331 286.367C56.4912 287.762 73.7355 271.987 74.9492 251.133Z" fill="url(#paint5_radial_197_965)"/>
<path d="M82.2743 262.541C88.6025 262.541 93.7326 256.934 93.7326 250.017C93.7326 243.1 88.6025 237.493 82.2743 237.493C75.946 237.493 70.8159 243.1 70.8159 250.017C70.8159 256.934 75.946 262.541 82.2743 262.541Z" fill="url(#paint6_radial_197_965)"/>
<path d="M7.136 301.905C9.7222 301.45 11.0029 295.545 9.99662 288.716C8.9903 281.887 6.078 276.72 3.4918 277.176C0.905607 277.631 -0.375136 283.536 0.631183 290.365C1.6375 297.193 4.54981 302.36 7.136 301.905Z" fill="url(#paint7_radial_197_965)"/>
<path d="M213.459 190.122C222.252 185.969 228.105 179.378 226.532 175.4C224.959 171.421 216.556 171.563 207.763 175.716C198.971 179.869 193.118 186.46 194.69 190.439C196.263 194.417 204.666 194.275 213.459 190.122Z" fill="url(#paint8_radial_197_965)"/>
<path opacity="0.1" d="M105.749 91.9257C103.554 101.055 102.88 110.2 103.558 119.115C106.07 152.244 127.309 181.569 158.391 190.499C189.478 199.428 221.162 185.305 238.251 157.808C242.852 150.415 246.381 142.085 248.576 132.96C258.942 89.8579 235.369 45.7166 195.93 34.3923C156.495 23.0631 116.109 48.8281 105.749 91.9355V91.9257Z" fill="url(#paint9_radial_197_965)"/>
<path opacity="0.15" d="M216.437 160.778C227.083 160.53 237.591 152.507 244.164 139.959C246.292 135.901 248.001 131.385 249.174 126.488C253.824 107.151 248.594 88.258 237.332 79.8892C243.427 91.5061 245.31 107.502 241.406 123.748C239.987 129.649 237.926 135.087 235.365 139.988C230.497 149.288 223.835 156.516 216.441 160.778H216.437Z" fill="url(#paint10_radial_197_965)"/>
<path opacity="0.1" d="M157.99 50.6373C144.082 49.9058 129.705 59.3427 120.09 75.0611C116.98 80.1478 114.374 85.8733 112.433 92.1402C104.767 116.91 110.023 142.08 124.03 154.112C117.038 138.354 115.904 117.296 122.343 96.4856C124.686 88.9214 127.822 82.0351 131.57 75.8902C138.692 64.2391 147.981 55.4655 157.985 50.6373H157.99Z" fill="url(#paint11_radial_197_965)"/>
<path style="mix-blend-mode:overlay" d="M177.604 199.848C221.217 199.848 256.572 161.205 256.572 113.536C256.572 65.8665 221.217 27.2231 177.604 27.2231C133.992 27.2231 98.6365 65.8665 98.6365 113.536C98.6365 161.205 133.992 199.848 177.604 199.848Z" fill="url(#paint12_radial_197_965)"/>
<path d="M212.039 61.0949C213.876 29.5347 190.756 2.23891 160.398 0.128073C130.04 -1.98276 103.941 21.8907 102.105 53.4509C100.268 85.0111 123.388 112.307 153.746 114.418C184.104 116.529 210.203 92.6551 212.039 61.0949Z" fill="url(#paint13_radial_197_965)"/>
<path d="M223.134 78.3529C232.713 78.3529 240.478 69.8657 240.478 59.3962C240.478 48.9267 232.713 40.4395 223.134 40.4395C213.556 40.4395 205.791 48.9267 205.791 59.3962C205.791 69.8657 213.556 78.3529 223.134 78.3529Z" fill="url(#paint14_radial_197_965)"/>
<path d="M109.387 137.923C113.301 137.234 115.24 128.296 113.717 117.96C112.193 107.623 107.785 99.8028 103.871 100.492C99.9561 101.181 98.0175 110.119 99.5407 120.455C101.064 130.792 105.472 138.612 109.387 137.923Z" fill="url(#paint15_radial_197_965)"/>
<path d="M170.325 472.86C174.426 470.922 177.156 467.847 176.421 465.99C175.687 464.133 171.768 464.198 167.666 466.135C163.565 468.072 160.836 471.148 161.57 473.005C162.304 474.862 166.224 474.797 170.325 472.86Z" fill="url(#paint16_radial_197_965)"/>
<path opacity="0.1" d="M120.067 427.06C119.045 431.317 118.729 435.584 119.045 439.74C120.219 455.195 130.125 468.875 144.626 473.039C159.127 477.204 173.905 470.616 181.879 457.789C184.025 454.341 185.672 450.454 186.693 446.197C191.53 426.089 180.531 405.499 162.135 400.217C143.738 394.93 124.9 406.952 120.067 427.06Z" fill="url(#paint17_radial_197_965)"/>
<path opacity="0.15" d="M171.701 459.174C176.667 459.057 181.567 455.317 184.636 449.464C185.627 447.572 186.426 445.465 186.974 443.183C189.143 434.161 186.702 425.348 181.451 421.446C184.293 426.865 185.172 434.326 183.351 441.905C182.691 444.661 181.727 447.192 180.531 449.479C178.26 453.815 175.155 457.19 171.701 459.174Z" fill="url(#paint18_radial_197_965)"/>
<path opacity="0.1" d="M144.438 407.801C137.951 407.459 131.244 411.858 126.76 419.193C125.31 421.568 124.092 424.236 123.191 427.157C119.612 438.711 122.066 450.455 128.598 456.068C125.337 448.718 124.806 438.896 127.813 429.186C128.906 425.66 130.37 422.446 132.119 419.579C135.439 414.146 139.776 410.049 144.438 407.796V407.801Z" fill="url(#paint19_radial_197_965)"/>
<path style="mix-blend-mode:overlay" d="M153.586 477.405C173.931 477.405 190.424 459.378 190.424 437.141C190.424 414.904 173.931 396.877 153.586 396.877C133.24 396.877 116.748 414.904 116.748 437.141C116.748 459.378 133.24 477.405 153.586 477.405Z" fill="url(#paint20_radial_197_965)"/>
<path d="M169.647 412.661C170.503 397.939 159.719 385.206 145.558 384.221C131.397 383.237 119.223 394.373 118.366 409.096C117.509 423.818 128.294 436.551 142.455 437.536C156.616 438.52 168.79 427.384 169.647 412.661Z" fill="url(#paint21_radial_197_965)"/>
<path d="M174.829 420.725C179.297 420.725 182.919 416.766 182.919 411.883C182.919 407 179.297 403.041 174.829 403.041C170.361 403.041 166.74 407 166.74 411.883C166.74 416.766 170.361 420.725 174.829 420.725Z" fill="url(#paint22_radial_197_965)"/>
<path d="M121.792 448.503C123.62 448.182 124.525 444.013 123.814 439.192C123.104 434.37 121.047 430.723 119.22 431.045C117.393 431.366 116.487 435.535 117.198 440.356C117.908 445.177 119.965 448.825 121.792 448.503Z" fill="url(#paint23_radial_197_965)"/>
</g>
<defs>
<radialGradient id="paint0_radial_197_965" cx="0" cy="0" r="1" gradientUnits="userSpaceOnUse" gradientTransform="translate(73.6296 330.666) rotate(68.4287) scale(5.0686 11.6081)">
<stop stop-color="white" stop-opacity="0.9"/>
<stop offset="0.06" stop-color="#CAD5DC" stop-opacity="0.71"/>
<stop offset="0.14" stop-color="#8DA6B4" stop-opacity="0.5"/>
<stop offset="0.21" stop-color="#5A7E93" stop-opacity="0.32"/>
<stop offset="0.28" stop-color="#336079" stop-opacity="0.18"/>
<stop offset="0.35" stop-color="#174967" stop-opacity="0.08"/>
<stop offset="0.41" stop-color="#053C5B" stop-opacity="0.02"/>
<stop offset="0.46" stop-color="#003858" stop-opacity="0"/>
</radialGradient>
<radialGradient id="paint1_radial_197_965" cx="0" cy="0" r="1" gradientUnits="userSpaceOnUse" gradientTransform="translate(51.8819 285.041) rotate(-163.968) scale(49.0932 52.9922)">
<stop stop-color="white" stop-opacity="0"/>
<stop offset="0.15" stop-color="white" stop-opacity="0.01"/>
<stop offset="0.28" stop-color="white" stop-opacity="0.05"/>
<stop offset="0.4" stop-color="white" stop-opacity="0.12"/>
<stop offset="0.51" stop-color="white" stop-opacity="0.22"/>
<stop offset="0.63" stop-color="white" stop-opacity="0.35"/>
<stop offset="0.74" stop-color="white" stop-opacity="0.51"/>
<stop offset="0.85" stop-color="white" stop-opacity="0.69"/>
<stop offset="0.95" stop-color="white" stop-opacity="0.9"/>
<stop offset="1" stop-color="white"/>
</radialGradient>
<radialGradient id="paint2_radial_197_965" cx="0" cy="0" r="1" gradientUnits="userSpaceOnUse" gradientTransform="translate(91.8559 292.302) rotate(-163.968) scale(18.9117 20.4137)">
<stop stop-color="white" stop-opacity="0"/>
<stop offset="0.15" stop-color="white" stop-opacity="0.01"/>
<stop offset="0.28" stop-color="white" stop-opacity="0.05"/>
<stop offset="0.4" stop-color="white" stop-opacity="0.12"/>
<stop offset="0.51" stop-color="white" stop-opacity="0.22"/>
<stop offset="0.63" stop-color="white" stop-opacity="0.35"/>
<stop offset="0.74" stop-color="white" stop-opacity="0.51"/>
<stop offset="0.85" stop-color="white" stop-opacity="0.69"/>
<stop offset="0.95" stop-color="white" stop-opacity="0.9"/>
<stop offset="1" stop-color="white"/>
</radialGradient>
<radialGradient id="paint3_radial_197_965" cx="0" cy="0" r="1" gradientUnits="userSpaceOnUse" gradientTransform="translate(19.754 276.02) rotate(-163.968) scale(24.9148 26.8935)">
<stop stop-color="white" stop-opacity="0"/>
<stop offset="0.15" stop-color="white" stop-opacity="0.01"/>
<stop offset="0.28" stop-color="white" stop-opacity="0.05"/>
<stop offset="0.4" stop-color="white" stop-opacity="0.12"/>
<stop offset="0.51" stop-color="white" stop-opacity="0.22"/>
<stop offset="0.63" stop-color="white" stop-opacity="0.35"/>
<stop offset="0.74" stop-color="white" stop-opacity="0.51"/>
<stop offset="0.85" stop-color="white" stop-opacity="0.69"/>
<stop offset="0.95" stop-color="white" stop-opacity="0.9"/>
<stop offset="1" stop-color="white"/>
</radialGradient>
<radialGradient id="paint4_radial_197_965" cx="0" cy="0" r="1" gradientUnits="userSpaceOnUse" gradientTransform="translate(52.1735 285.765) rotate(-163.968) scale(52.5056 56.6756)">
<stop stop-color="white" stop-opacity="0"/>
<stop offset="0.15" stop-color="white" stop-opacity="0.01"/>
<stop offset="0.28" stop-color="white" stop-opacity="0.05"/>
<stop offset="0.4" stop-color="white" stop-opacity="0.12"/>
<stop offset="0.51" stop-color="white" stop-opacity="0.22"/>
<stop offset="0.63" stop-color="white" stop-opacity="0.35"/>
<stop offset="0.74" stop-color="white" stop-opacity="0.51"/>
<stop offset="0.85" stop-color="white" stop-opacity="0.69"/>
<stop offset="0.95" stop-color="white" stop-opacity="0.9"/>
<stop offset="1" stop-color="white"/>
</radialGradient>
<radialGradient id="paint5_radial_197_965" cx="0" cy="0" r="1" gradientUnits="userSpaceOnUse" gradientTransform="translate(39.3184 248.588) rotate(93.331) scale(37.8101 36.4495)">
<stop stop-color="white" stop-opacity="0.9"/>
<stop offset="0.06" stop-color="#CAD5DC" stop-opacity="0.71"/>
<stop offset="0.14" stop-color="#8DA6B4" stop-opacity="0.5"/>
<stop offset="0.21" stop-color="#5A7E93" stop-opacity="0.32"/>
<stop offset="0.28" stop-color="#336079" stop-opacity="0.18"/>
<stop offset="0.35" stop-color="#174967" stop-opacity="0.08"/>
<stop offset="0.41" stop-color="#053C5B" stop-opacity="0.02"/>
<stop offset="0.46" stop-color="#003858" stop-opacity="0"/>
</radialGradient>
<radialGradient id="paint6_radial_197_965" cx="0" cy="0" r="1" gradientUnits="userSpaceOnUse" gradientTransform="translate(82.2585 249.994) rotate(-163.968) scale(11.5302 12.446)">
<stop stop-color="white" stop-opacity="0.9"/>
<stop offset="0.08" stop-color="#CAD5DC" stop-opacity="0.71"/>
<stop offset="0.19" stop-color="#8DA6B4" stop-opacity="0.5"/>
<stop offset="0.29" stop-color="#5A7E93" stop-opacity="0.32"/>
<stop offset="0.39" stop-color="#336079" stop-opacity="0.18"/>
<stop offset="0.49" stop-color="#174967" stop-opacity="0.08"/>
<stop offset="0.57" stop-color="#053C5B" stop-opacity="0.02"/>
<stop offset="0.64" stop-color="#003858" stop-opacity="0"/>
</radialGradient>
<radialGradient id="paint7_radial_197_965" cx="0" cy="0" r="1" gradientUnits="userSpaceOnUse" gradientTransform="translate(7.37809 289.177) rotate(170.015) scale(4.70947 12.4933)">
<stop stop-color="white" stop-opacity="0.9"/>
<stop offset="0.06" stop-color="#CAD5DC" stop-opacity="0.71"/>
<stop offset="0.14" stop-color="#8DA6B4" stop-opacity="0.5"/>
<stop offset="0.21" stop-color="#5A7E93" stop-opacity="0.32"/>
<stop offset="0.28" stop-color="#336079" stop-opacity="0.18"/>
<stop offset="0.35" stop-color="#174967" stop-opacity="0.08"/>
<stop offset="0.41" stop-color="#053C5B" stop-opacity="0.02"/>
<stop offset="0.46" stop-color="#003858" stop-opacity="0"/>
</radialGradient>
<radialGradient id="paint8_radial_197_965" cx="0" cy="0" r="1" gradientUnits="userSpaceOnUse" gradientTransform="translate(210.496 182.616) rotate(68.4287) scale(7.67197 17.5704)">
<stop stop-color="white" stop-opacity="0.9"/>
<stop offset="0.06" stop-color="#CAD5DC" stop-opacity="0.71"/>
<stop offset="0.14" stop-color="#8DA6B4" stop-opacity="0.5"/>
<stop offset="0.21" stop-color="#5A7E93" stop-opacity="0.32"/>
<stop offset="0.28" stop-color="#336079" stop-opacity="0.18"/>
<stop offset="0.35" stop-color="#174967" stop-opacity="0.08"/>
<stop offset="0.41" stop-color="#053C5B" stop-opacity="0.02"/>
<stop offset="0.46" stop-color="#003858" stop-opacity="0"/>
</radialGradient>
<radialGradient id="paint9_radial_197_965" cx="0" cy="0" r="1" gradientUnits="userSpaceOnUse" gradientTransform="translate(177.156 112.428) rotate(-163.968) scale(74.3043 80.2056)">
<stop stop-color="white" stop-opacity="0"/>
<stop offset="0.15" stop-color="white" stop-opacity="0.01"/>
<stop offset="0.28" stop-color="white" stop-opacity="0.05"/>
<stop offset="0.4" stop-color="white" stop-opacity="0.12"/>
<stop offset="0.51" stop-color="white" stop-opacity="0.22"/>
<stop offset="0.63" stop-color="white" stop-opacity="0.35"/>
<stop offset="0.74" stop-color="white" stop-opacity="0.51"/>
<stop offset="0.85" stop-color="white" stop-opacity="0.69"/>
<stop offset="0.95" stop-color="white" stop-opacity="0.9"/>
<stop offset="1" stop-color="white"/>
</radialGradient>
<radialGradient id="paint10_radial_197_965" cx="0" cy="0" r="1" gradientUnits="userSpaceOnUse" gradientTransform="translate(237.659 123.42) rotate(-163.968) scale(28.6235 30.8968)">
<stop stop-color="white" stop-opacity="0"/>
<stop offset="0.15" stop-color="white" stop-opacity="0.01"/>
<stop offset="0.28" stop-color="white" stop-opacity="0.05"/>
<stop offset="0.4" stop-color="white" stop-opacity="0.12"/>
<stop offset="0.51" stop-color="white" stop-opacity="0.22"/>
<stop offset="0.63" stop-color="white" stop-opacity="0.35"/>
<stop offset="0.74" stop-color="white" stop-opacity="0.51"/>
<stop offset="0.85" stop-color="white" stop-opacity="0.69"/>
<stop offset="0.95" stop-color="white" stop-opacity="0.9"/>
<stop offset="1" stop-color="white"/>
</radialGradient>
<radialGradient id="paint11_radial_197_965" cx="0" cy="0" r="1" gradientUnits="userSpaceOnUse" gradientTransform="translate(128.533 98.7736) rotate(-163.968) scale(37.7067 40.7014)">
<stop stop-color="white" stop-opacity="0"/>
<stop offset="0.15" stop-color="white" stop-opacity="0.01"/>
<stop offset="0.28" stop-color="white" stop-opacity="0.05"/>
<stop offset="0.4" stop-color="white" stop-opacity="0.12"/>
<stop offset="0.51" stop-color="white" stop-opacity="0.22"/>
<stop offset="0.63" stop-color="white" stop-opacity="0.35"/>
<stop offset="0.74" stop-color="white" stop-opacity="0.51"/>
<stop offset="0.85" stop-color="white" stop-opacity="0.69"/>
<stop offset="0.95" stop-color="white" stop-opacity="0.9"/>
<stop offset="1" stop-color="white"/>
</radialGradient>
<radialGradient id="paint12_radial_197_965" cx="0" cy="0" r="1" gradientUnits="userSpaceOnUse" gradientTransform="translate(177.599 113.523) rotate(-163.968) scale(79.4633 85.7743)">
<stop stop-color="white" stop-opacity="0"/>
<stop offset="0.15" stop-color="white" stop-opacity="0.01"/>
<stop offset="0.28" stop-color="white" stop-opacity="0.05"/>
<stop offset="0.4" stop-color="white" stop-opacity="0.12"/>
<stop offset="0.51" stop-color="white" stop-opacity="0.22"/>
<stop offset="0.63" stop-color="white" stop-opacity="0.35"/>
<stop offset="0.74" stop-color="white" stop-opacity="0.51"/>
<stop offset="0.85" stop-color="white" stop-opacity="0.69"/>
<stop offset="0.95" stop-color="white" stop-opacity="0.9"/>
<stop offset="1" stop-color="white"/>
</radialGradient>
<radialGradient id="paint13_radial_197_965" cx="0" cy="0" r="1" gradientUnits="userSpaceOnUse" gradientTransform="translate(157.897 57.2998) rotate(93.331) scale(57.2305 55.171)">
<stop stop-color="white" stop-opacity="0.9"/>
<stop offset="0.06" stop-color="#CAD5DC" stop-opacity="0.71"/>
<stop offset="0.14" stop-color="#8DA6B4" stop-opacity="0.5"/>
<stop offset="0.21" stop-color="#5A7E93" stop-opacity="0.32"/>
<stop offset="0.28" stop-color="#336079" stop-opacity="0.18"/>
<stop offset="0.35" stop-color="#174967" stop-opacity="0.08"/>
<stop offset="0.41" stop-color="#053C5B" stop-opacity="0.02"/>
<stop offset="0.46" stop-color="#003858" stop-opacity="0"/>
</radialGradient>
<radialGradient id="paint14_radial_197_965" cx="0" cy="0" r="1" gradientUnits="userSpaceOnUse" gradientTransform="translate(223.133 59.3838) rotate(-163.968) scale(17.4525 18.8386)">
<stop stop-color="white" stop-opacity="0.9"/>
<stop offset="0.08" stop-color="#CAD5DC" stop-opacity="0.71"/>
<stop offset="0.19" stop-color="#8DA6B4" stop-opacity="0.5"/>
<stop offset="0.29" stop-color="#5A7E93" stop-opacity="0.32"/>
<stop offset="0.39" stop-color="#336079" stop-opacity="0.18"/>
<stop offset="0.49" stop-color="#174967" stop-opacity="0.08"/>
<stop offset="0.57" stop-color="#053C5B" stop-opacity="0.02"/>
<stop offset="0.64" stop-color="#003858" stop-opacity="0"/>
</radialGradient>
<radialGradient id="paint15_radial_197_965" cx="0" cy="0" r="1" gradientUnits="userSpaceOnUse" gradientTransform="translate(107.533 119.053) rotate(170.015) scale(7.12839 18.9102)">
<stop stop-color="white" stop-opacity="0.9"/>
<stop offset="0.06" stop-color="#CAD5DC" stop-opacity="0.71"/>
<stop offset="0.14" stop-color="#8DA6B4" stop-opacity="0.5"/>
<stop offset="0.21" stop-color="#5A7E93" stop-opacity="0.32"/>
<stop offset="0.28" stop-color="#336079" stop-opacity="0.18"/>
<stop offset="0.35" stop-color="#174967" stop-opacity="0.08"/>
<stop offset="0.41" stop-color="#053C5B" stop-opacity="0.02"/>
<stop offset="0.46" stop-color="#003858" stop-opacity="0"/>
</radialGradient>
<radialGradient id="paint16_radial_197_965" cx="0" cy="0" r="1" gradientUnits="userSpaceOnUse" gradientTransform="translate(168.041 467.082) rotate(68.4287) scale(3.5784 8.19529)">
<stop stop-color="white" stop-opacity="0.9"/>
<stop offset="0.06" stop-color="#CAD5DC" stop-opacity="0.71"/>
<stop offset="0.14" stop-color="#8DA6B4" stop-opacity="0.5"/>
<stop offset="0.21" stop-color="#5A7E93" stop-opacity="0.32"/>
<stop offset="0.28" stop-color="#336079" stop-opacity="0.18"/>
<stop offset="0.35" stop-color="#174967" stop-opacity="0.08"/>
<stop offset="0.41" stop-color="#053C5B" stop-opacity="0.02"/>
<stop offset="0.46" stop-color="#003858" stop-opacity="0"/>
</radialGradient>
<radialGradient id="paint17_radial_197_965" cx="0" cy="0" r="1" gradientUnits="userSpaceOnUse" gradientTransform="translate(153.352 436.609) rotate(-163.968) scale(34.658 37.4106)">
<stop stop-color="white" stop-opacity="0"/>
<stop offset="0.15" stop-color="white" stop-opacity="0.01"/>
<stop offset="0.28" stop-color="white" stop-opacity="0.05"/>
<stop offset="0.4" stop-color="white" stop-opacity="0.12"/>
<stop offset="0.51" stop-color="white" stop-opacity="0.22"/>
<stop offset="0.63" stop-color="white" stop-opacity="0.35"/>
<stop offset="0.74" stop-color="white" stop-opacity="0.51"/>
<stop offset="0.85" stop-color="white" stop-opacity="0.69"/>
<stop offset="0.95" stop-color="white" stop-opacity="0.9"/>
<stop offset="1" stop-color="white"/>
</radialGradient>
<radialGradient id="paint18_radial_197_965" cx="0" cy="0" r="1" gradientUnits="userSpaceOnUse" gradientTransform="translate(181.576 441.739) rotate(-163.968) scale(13.3531 14.4137)">
<stop stop-color="white" stop-opacity="0"/>
<stop offset="0.15" stop-color="white" stop-opacity="0.01"/>
<stop offset="0.28" stop-color="white" stop-opacity="0.05"/>
<stop offset="0.4" stop-color="white" stop-opacity="0.12"/>
<stop offset="0.51" stop-color="white" stop-opacity="0.22"/>
<stop offset="0.63" stop-color="white" stop-opacity="0.35"/>
<stop offset="0.74" stop-color="white" stop-opacity="0.51"/>
<stop offset="0.85" stop-color="white" stop-opacity="0.69"/>
<stop offset="0.95" stop-color="white" stop-opacity="0.9"/>
<stop offset="1" stop-color="white"/>
</radialGradient>
<radialGradient id="paint19_radial_197_965" cx="0" cy="0" r="1" gradientUnits="userSpaceOnUse" gradientTransform="translate(130.671 430.243) rotate(-163.968) scale(17.5917 18.9888)">
<stop stop-color="white" stop-opacity="0"/>
<stop offset="0.15" stop-color="white" stop-opacity="0.01"/>
<stop offset="0.28" stop-color="white" stop-opacity="0.05"/>
<stop offset="0.4" stop-color="white" stop-opacity="0.12"/>
<stop offset="0.51" stop-color="white" stop-opacity="0.22"/>
<stop offset="0.63" stop-color="white" stop-opacity="0.35"/>
<stop offset="0.74" stop-color="white" stop-opacity="0.51"/>
<stop offset="0.85" stop-color="white" stop-opacity="0.69"/>
<stop offset="0.95" stop-color="white" stop-opacity="0.9"/>
<stop offset="1" stop-color="white"/>
</radialGradient>
<radialGradient id="paint20_radial_197_965" cx="0" cy="0" r="1" gradientUnits="userSpaceOnUse" gradientTransform="translate(153.557 437.123) rotate(-163.968) scale(37.0691 40.0131)">
<stop stop-color="white" stop-opacity="0"/>
<stop offset="0.15" stop-color="white" stop-opacity="0.01"/>
<stop offset="0.28" stop-color="white" stop-opacity="0.05"/>
<stop offset="0.4" stop-color="white" stop-opacity="0.12"/>
<stop offset="0.51" stop-color="white" stop-opacity="0.22"/>
<stop offset="0.63" stop-color="white" stop-opacity="0.35"/>
<stop offset="0.74" stop-color="white" stop-opacity="0.51"/>
<stop offset="0.85" stop-color="white" stop-opacity="0.69"/>
<stop offset="0.95" stop-color="white" stop-opacity="0.9"/>
<stop offset="1" stop-color="white"/>
</radialGradient>
<radialGradient id="paint21_radial_197_965" cx="0" cy="0" r="1" gradientUnits="userSpaceOnUse" gradientTransform="translate(144.86 410.841) rotate(93.331) scale(26.6938 25.7332)">
<stop stop-color="white" stop-opacity="0.9"/>
<stop offset="0.06" stop-color="#CAD5DC" stop-opacity="0.71"/>
<stop offset="0.14" stop-color="#8DA6B4" stop-opacity="0.5"/>
<stop offset="0.21" stop-color="#5A7E93" stop-opacity="0.32"/>
<stop offset="0.28" stop-color="#336079" stop-opacity="0.18"/>
<stop offset="0.35" stop-color="#174967" stop-opacity="0.08"/>
<stop offset="0.41" stop-color="#053C5B" stop-opacity="0.02"/>
<stop offset="0.46" stop-color="#003858" stop-opacity="0"/>
</radialGradient>
<radialGradient id="paint22_radial_197_965" cx="0" cy="0" r="1" gradientUnits="userSpaceOnUse" gradientTransform="translate(174.801 411.866) rotate(-163.968) scale(8.1403 8.7868)">
<stop stop-color="white" stop-opacity="0.9"/>
<stop offset="0.08" stop-color="#CAD5DC" stop-opacity="0.71"/>
<stop offset="0.19" stop-color="#8DA6B4" stop-opacity="0.5"/>
<stop offset="0.29" stop-color="#5A7E93" stop-opacity="0.32"/>
<stop offset="0.39" stop-color="#336079" stop-opacity="0.18"/>
<stop offset="0.49" stop-color="#174967" stop-opacity="0.08"/>
<stop offset="0.57" stop-color="#053C5B" stop-opacity="0.02"/>
<stop offset="0.64" stop-color="#003858" stop-opacity="0"/>
</radialGradient>
<radialGradient id="paint23_radial_197_965" cx="0" cy="0" r="1" gradientUnits="userSpaceOnUse" gradientTransform="translate(121.716 439.566) rotate(170.015) scale(3.32487 8.82024)">
<stop stop-color="white" stop-opacity="0.9"/>
<stop offset="0.06" stop-color="#CAD5DC" stop-opacity="0.71"/>
<stop offset="0.14" stop-color="#8DA6B4" stop-opacity="0.5"/>
<stop offset="0.21" stop-color="#5A7E93" stop-opacity="0.32"/>
<stop offset="0.28" stop-color="#336079" stop-opacity="0.18"/>
<stop offset="0.35" stop-color="#174967" stop-opacity="0.08"/>
<stop offset="0.41" stop-color="#053C5B" stop-opacity="0.02"/>
<stop offset="0.46" stop-color="#003858" stop-opacity="0"/>
</radialGradient>
<clipPath id="clip0_197_965">
<rect width="256.59" height="477.41" fill="white"/>
</clipPath>
</defs>
</svg>
