<svg version="1.1" id="Layer_1" xmlns="http://www.w3.org/2000/svg" xmlns:xlink="http://www.w3.org/1999/xlink" x="0px" y="0px"
	 width="100%" viewBox="0 0 299 288" enable-background="new 0 0 299 288" xml:space="preserve">
<path fill="#FEFFFF" opacity="1.000000" stroke="none" 
	d="
M163.000000,289.000000 
	C108.666664,289.000000 54.833332,289.000000 1.000000,289.000000 
	C1.000000,193.000000 1.000000,97.000000 1.000000,1.000000 
	C100.666664,1.000000 200.333328,1.000000 300.000000,1.000000 
	C300.000000,97.000000 300.000000,193.000000 300.000000,289.000000 
	C254.500000,289.000000 209.000000,289.000000 163.000000,289.000000 
M205.993912,263.551941 
	C263.775238,237.609863 293.960083,178.671204 281.021118,117.054436 
	C266.357605,47.224964 194.284897,2.211721 125.010864,19.617687 
	C59.912804,35.974388 18.984285,96.296967 27.970222,162.967728 
	C32.484222,196.459152 48.028816,224.221466 74.445625,245.027328 
	C114.172241,276.315979 158.160324,282.016113 205.993912,263.551941 
z"/>
<path fill="#033755" opacity="1.000000" stroke="none" 
	d="
M205.645538,263.717224 
	C158.160324,282.016113 114.172241,276.315979 74.445625,245.027328 
	C48.028816,224.221466 32.484222,196.459152 27.970222,162.967728 
	C18.984285,96.296967 59.912804,35.974388 125.010864,19.617687 
	C194.284897,2.211721 266.357605,47.224964 281.021118,117.054436 
	C293.960083,178.671204 263.775238,237.609863 205.645538,263.717224 
M148.154007,115.408264 
	C154.520920,111.553185 157.728043,111.864807 163.842407,116.932686 
	C175.031921,126.207100 185.741058,126.704117 195.838547,118.417656 
	C205.375656,110.591080 207.496857,110.603745 217.231689,118.785378 
	C221.482666,122.358086 226.273956,124.285500 231.868744,124.120628 
	C235.270477,124.020378 237.343109,122.091667 237.503784,118.943222 
	C237.672867,115.630302 235.815552,113.679558 232.269012,112.776253 
	C229.047958,111.955833 226.067307,110.097824 223.065002,108.535210 
	C218.994049,106.416374 215.234268,103.328636 210.929474,102.108833 
	C202.470016,99.711792 195.457809,103.351814 189.095963,108.947235 
	C182.798721,114.485840 178.542831,114.305351 172.376633,109.021561 
	C160.311157,98.682693 149.968338,98.726387 137.692566,109.168076 
	C131.666367,114.293915 127.495842,114.281731 121.367668,109.120338 
	C109.007919,98.710457 99.253212,98.771904 86.607773,108.990318 
	C84.389381,110.782936 81.512825,112.204781 78.734352,112.751472 
	C75.025169,113.481270 72.704918,115.096283 72.923302,118.847366 
	C73.164925,122.997543 76.261856,124.964317 79.897545,123.967010 
	C84.567062,122.686119 89.472008,121.046776 93.327873,118.253632 
	C103.302765,111.027939 105.053253,110.692421 114.467674,118.422333 
	C119.164040,122.278374 124.329033,124.307976 130.498077,124.182175 
	C137.557938,124.038223 142.685410,120.281784 148.154007,115.408264 
M128.262878,142.241577 
	C124.431114,140.666275 120.599350,139.090958 116.602890,137.447937 
	C116.602890,141.214539 117.582764,144.496765 116.360359,146.171692 
	C114.752090,148.375336 111.394905,149.286377 108.822182,150.808090 
	C107.135223,151.805908 105.505615,152.900711 104.311539,153.659149 
	C101.285309,151.021667 98.651535,148.521652 95.774292,146.343201 
	C94.910454,145.689148 93.368149,145.931229 92.136650,145.762772 
	C92.168427,146.974976 91.843544,148.341324 92.289948,149.374359 
	C95.161247,156.018967 95.198746,162.586121 92.331940,169.230423 
	C91.874214,170.291275 91.867088,171.546539 91.651657,172.711929 
	C92.115837,173.096878 92.580009,173.481827 93.044182,173.866776 
	C96.758888,171.117371 100.473587,168.367981 104.335129,165.509888 
	C107.518806,167.213074 111.443031,169.019821 114.998413,171.381760 
	C116.157898,172.152054 116.666756,174.327530 116.885948,175.940155 
	C117.036087,177.044785 116.170799,178.287430 115.426834,180.423248 
	C117.967804,179.995575 119.777527,180.012741 121.316574,179.375824 
	C127.719955,176.725876 134.246002,174.254044 140.311127,170.952774 
	C143.555756,169.186707 145.954544,165.866669 149.559113,162.471786 
	C145.701935,161.280884 143.413300,160.574265 140.318436,159.618729 
	C143.454971,158.499191 145.798508,157.662704 149.167282,156.460281 
	C146.424606,153.512665 144.676712,150.701202 142.155289,149.135086 
	C137.998154,146.552979 133.340973,144.775925 128.262878,142.241577 
M200.705521,161.259567 
	C202.375900,158.189774 205.624207,154.924057 205.274155,152.105148 
	C204.922119,149.270248 201.360092,145.357925 198.534668,144.670120 
	C194.785446,143.757416 190.729919,146.302155 189.135605,150.490829 
	C187.609024,154.501541 185.056381,156.880005 181.077759,158.585236 
	C174.413742,161.441452 173.994186,164.999908 179.104660,170.073975 
	C179.457535,170.424332 179.840790,170.743988 180.195358,171.092728 
	C186.013123,176.814774 188.793289,176.075089 192.678802,168.920166 
	C194.257462,166.013168 197.560455,164.042587 200.705521,161.259567 
M151.321838,135.631119 
	C152.749786,137.417664 153.864365,139.819687 155.720703,140.764893 
	C156.874146,141.352203 159.769196,140.218002 160.751328,138.967789 
	C161.744873,137.703094 162.054855,134.995514 161.353485,133.560699 
	C160.655441,132.132614 158.038315,130.426208 156.782181,130.765457 
	C154.776398,131.307190 153.200439,133.440491 151.321838,135.631119 
M206.905960,138.399170 
	C206.281296,138.307587 205.490692,137.923904 205.057800,138.169861 
	C201.016846,140.465668 201.470779,143.208206 206.762177,147.034271 
	C207.529541,147.589127 209.675552,147.501175 210.165009,146.892136 
	C210.980408,145.877457 211.626068,143.903351 211.157440,142.872040 
	C210.448151,141.311096 208.721588,140.212402 206.905960,138.399170 
M166.793243,146.066177 
	C163.373734,143.406433 160.694000,143.648071 160.037445,146.849716 
	C159.776108,148.124146 160.096024,150.023804 160.930588,150.873108 
	C161.747421,151.704376 164.281784,152.242386 164.782959,151.708420 
	C165.942505,150.472961 166.328430,148.511414 166.793243,146.066177 
M153.159561,153.631607 
	C153.052948,155.207977 152.707947,156.832687 153.010864,158.325989 
	C153.084656,158.689682 155.552917,159.101898 156.434433,158.614029 
	C157.280045,158.146042 158.169067,155.854416 157.865555,155.555466 
	C156.795410,154.501328 155.221313,153.958817 153.159561,153.631607 
z"/>
<path fill="#DEF2FA" opacity="1.000000" stroke="none" 
	d="
M147.884491,115.668144 
	C142.685410,120.281784 137.557938,124.038223 130.498077,124.182175 
	C124.329033,124.307976 119.164040,122.278374 114.467674,118.422333 
	C105.053253,110.692421 103.302765,111.027939 93.327873,118.253632 
	C89.472008,121.046776 84.567062,122.686119 79.897545,123.967010 
	C76.261856,124.964317 73.164925,122.997543 72.923302,118.847366 
	C72.704918,115.096283 75.025169,113.481270 78.734352,112.751472 
	C81.512825,112.204781 84.389381,110.782936 86.607773,108.990318 
	C99.253212,98.771904 109.007919,98.710457 121.367668,109.120338 
	C127.495842,114.281731 131.666367,114.293915 137.692566,109.168076 
	C149.968338,98.726387 160.311157,98.682693 172.376633,109.021561 
	C178.542831,114.305351 182.798721,114.485840 189.095963,108.947235 
	C195.457809,103.351814 202.470016,99.711792 210.929474,102.108833 
	C215.234268,103.328636 218.994049,106.416374 223.065002,108.535210 
	C226.067307,110.097824 229.047958,111.955833 232.269012,112.776253 
	C235.815552,113.679558 237.672867,115.630302 237.503784,118.943222 
	C237.343109,122.091667 235.270477,124.020378 231.868744,124.120628 
	C226.273956,124.285500 221.482666,122.358086 217.231689,118.785378 
	C207.496857,110.603745 205.375656,110.591080 195.838547,118.417656 
	C185.741058,126.704117 175.031921,126.207100 163.842407,116.932686 
	C157.728043,111.864807 154.520920,111.553185 147.884491,115.668144 
z"/>
<path fill="#DEF2FA" opacity="1.000000" stroke="none" 
	d="
M128.578720,142.450562 
	C133.340973,144.775925 137.998154,146.552979 142.155289,149.135086 
	C144.676712,150.701202 146.424606,153.512665 149.167282,156.460281 
	C145.798508,157.662704 143.454971,158.499191 140.318436,159.618729 
	C143.413300,160.574265 145.701935,161.280884 149.559113,162.471786 
	C145.954544,165.866669 143.555756,169.186707 140.311127,170.952774 
	C134.246002,174.254044 127.719955,176.725876 121.316574,179.375824 
	C119.777527,180.012741 117.967804,179.995575 115.426834,180.423248 
	C116.170799,178.287430 117.036087,177.044785 116.885948,175.940155 
	C116.666756,174.327530 116.157898,172.152054 114.998413,171.381760 
	C111.443031,169.019821 107.518806,167.213074 104.335129,165.509888 
	C100.473587,168.367981 96.758888,171.117371 93.044182,173.866776 
	C92.580009,173.481827 92.115837,173.096878 91.651657,172.711929 
	C91.867088,171.546539 91.874214,170.291275 92.331940,169.230423 
	C95.198746,162.586121 95.161247,156.018967 92.289948,149.374359 
	C91.843544,148.341324 92.168427,146.974976 92.136658,145.762772 
	C93.368149,145.931229 94.910454,145.689148 95.774292,146.343201 
	C98.651535,148.521652 101.285309,151.021667 104.311539,153.659149 
	C105.505615,152.900711 107.135223,151.805908 108.822182,150.808090 
	C111.394905,149.286377 114.752090,148.375336 116.360359,146.171692 
	C117.582764,144.496765 116.602890,141.214539 116.602890,137.447937 
	C120.599350,139.090958 124.431114,140.666275 128.578720,142.450562 
z"/>
<path fill="#DEF2FA" opacity="1.000000" stroke="none" 
	d="
M200.392197,161.452744 
	C197.560455,164.042587 194.257462,166.013168 192.678802,168.920166 
	C188.793289,176.075089 186.013123,176.814774 180.195358,171.092728 
	C179.840790,170.743988 179.457535,170.424332 179.104660,170.073975 
	C173.994186,164.999908 174.413742,161.441452 181.077759,158.585236 
	C185.056381,156.880005 187.609024,154.501541 189.135605,150.490829 
	C190.729919,146.302155 194.785446,143.757416 198.534668,144.670120 
	C201.360092,145.357925 204.922119,149.270248 205.274155,152.105148 
	C205.624207,154.924057 202.375900,158.189774 200.392197,161.452744 
z"/>
<path fill="#D7EEF6" opacity="1.000000" stroke="none" 
	d="
M151.382294,135.265991 
	C153.200439,133.440491 154.776398,131.307190 156.782181,130.765457 
	C158.038315,130.426208 160.655441,132.132614 161.353485,133.560699 
	C162.054855,134.995514 161.744873,137.703094 160.751328,138.967789 
	C159.769196,140.218002 156.874146,141.352203 155.720703,140.764893 
	C153.864365,139.819687 152.749786,137.417664 151.382294,135.265991 
z"/>
<path fill="#CFE9F5" opacity="1.000000" stroke="none" 
	d="
M207.166611,138.658234 
	C208.721588,140.212402 210.448151,141.311096 211.157440,142.872040 
	C211.626068,143.903351 210.980408,145.877457 210.165009,146.892136 
	C209.675552,147.501175 207.529541,147.589127 206.762177,147.034271 
	C201.470779,143.208206 201.016846,140.465668 205.057800,138.169861 
	C205.490692,137.923904 206.281296,138.307587 207.166611,138.658234 
z"/>
<path fill="#D4EEF7" opacity="1.000000" stroke="none" 
	d="
M166.910645,146.455231 
	C166.328430,148.511414 165.942505,150.472961 164.782959,151.708420 
	C164.281784,152.242386 161.747421,151.704376 160.930588,150.873108 
	C160.096024,150.023804 159.776108,148.124146 160.037445,146.849716 
	C160.694000,143.648071 163.373734,143.406433 166.910645,146.455231 
z"/>
<path fill="#CAE6F2" opacity="1.000000" stroke="none" 
	d="
M153.498962,153.426926 
	C155.221313,153.958817 156.795410,154.501328 157.865555,155.555466 
	C158.169067,155.854416 157.280045,158.146042 156.434433,158.614029 
	C155.552917,159.101898 153.084656,158.689682 153.010864,158.325989 
	C152.707947,156.832687 153.052948,155.207977 153.498962,153.426926 
z"/>
</svg>