<svg width="50" height="51" viewBox="0 0 50 51" fill="none" xmlns="http://www.w3.org/2000/svg">
<path d="M14.5 0.5H35.5C43.5 0.5 50 7 50 15V36C50 39.8456 48.4723 43.5338 45.7531 46.2531C43.0338 48.9723 39.3456 50.5 35.5 50.5H14.5C6.5 50.5 0 44 0 36V15C0 11.1544 1.52767 7.46623 4.24695 4.74695C6.96623 2.02767 10.6544 0.5 14.5 0.5ZM14 5.5C11.6131 5.5 9.32387 6.44821 7.63604 8.13604C5.94821 9.82387 5 12.1131 5 14.5V36.5C5 41.475 9.025 45.5 14 45.5H36C38.3869 45.5 40.6761 44.5518 42.364 42.864C44.0518 41.1761 45 38.8869 45 36.5V14.5C45 9.525 40.975 5.5 36 5.5H14ZM38.125 9.25C38.9538 9.25 39.7487 9.57924 40.3347 10.1653C40.9208 10.7513 41.25 11.5462 41.25 12.375C41.25 13.2038 40.9208 13.9987 40.3347 14.5847C39.7487 15.1708 38.9538 15.5 38.125 15.5C37.2962 15.5 36.5013 15.1708 35.9153 14.5847C35.3292 13.9987 35 13.2038 35 12.375C35 11.5462 35.3292 10.7513 35.9153 10.1653C36.5013 9.57924 37.2962 9.25 38.125 9.25ZM25 13C28.3152 13 31.4946 14.317 33.8388 16.6612C36.183 19.0054 37.5 22.1848 37.5 25.5C37.5 28.8152 36.183 31.9946 33.8388 34.3388C31.4946 36.683 28.3152 38 25 38C21.6848 38 18.5054 36.683 16.1612 34.3388C13.817 31.9946 12.5 28.8152 12.5 25.5C12.5 22.1848 13.817 19.0054 16.1612 16.6612C18.5054 14.317 21.6848 13 25 13ZM25 18C23.0109 18 21.1032 18.7902 19.6967 20.1967C18.2902 21.6032 17.5 23.5109 17.5 25.5C17.5 27.4891 18.2902 29.3968 19.6967 30.8033C21.1032 32.2098 23.0109 33 25 33C26.9891 33 28.8968 32.2098 30.3033 30.8033C31.7098 29.3968 32.5 27.4891 32.5 25.5C32.5 23.5109 31.7098 21.6032 30.3033 20.1967C28.8968 18.7902 26.9891 18 25 18Z" fill="white"/>
</svg>
