<svg width="50" height="51" viewBox="0 0 50 51" fill="none" xmlns="http://www.w3.org/2000/svg">
<path d="M10.4932 6.05803C10.4925 7.53137 9.93905 8.94408 8.95463 9.98537C7.97022 11.0267 6.63545 11.6112 5.24397 11.6105C3.85248 11.6098 2.51827 11.0238 1.53484 9.98144C0.551401 8.93911 -0.000695084 7.52581 6.56772e-07 6.05247C0.000696398 4.57913 0.554128 3.16642 1.53855 2.12513C2.52296 1.08384 3.85773 0.499264 5.24921 0.500001C6.6407 0.500737 7.97491 1.08673 8.95834 2.12906C9.94178 3.17139 10.4939 4.58468 10.4932 6.05803ZM10.6506 15.7242H0.157398V50.5H10.6506V15.7242ZM27.2298 15.7242H16.7891V50.5H27.1249V32.251C27.1249 22.0849 39.638 21.1405 39.638 32.251V50.5H50V28.4734C50 11.3355 31.4795 11.9744 27.1249 20.3906L27.2298 15.7242Z" fill="white"/>
</svg>
