<svg width="70" height="51" viewBox="0 0 70 51" fill="none" xmlns="http://www.w3.org/2000/svg">
<path d="M70 25.2845C70 25.1153 70 24.9229 69.9922 24.6998C69.9844 24.0765 69.9688 23.3763 69.9531 22.6299C69.8906 20.4831 69.7812 18.344 69.6094 16.3279C69.375 13.5502 69.0312 11.2341 68.5625 9.49507C68.0678 7.68028 67.0982 6.02515 65.7505 4.69511C64.4029 3.36507 62.7244 2.40671 60.8828 1.91582C58.6719 1.33102 54.3438 0.969375 48.25 0.746229C45.3516 0.638504 42.25 0.569252 39.1484 0.530778C38.0625 0.515389 37.0547 0.507695 36.1484 0.5H33.8516C32.9453 0.507695 31.9375 0.515389 30.8516 0.530778C27.75 0.569252 24.6484 0.638504 21.75 0.746229C15.6562 0.97707 11.3203 1.33872 9.11719 1.91582C7.27501 2.4055 5.59585 3.36346 4.248 4.69369C2.90015 6.02391 1.93094 7.67969 1.4375 9.49507C0.960938 11.2341 0.625 13.5502 0.390625 16.3279C0.21875 18.344 0.109375 20.4831 0.0468749 22.6299C0.0234374 23.3763 0.0156249 24.0765 0.00781238 24.6998C0.00781238 24.9229 0 25.1153 0 25.2845V25.7154C0 25.8847 -1.19326e-07 26.0771 0.00781238 26.3002C0.0156249 26.9235 0.0312499 27.6237 0.0468749 28.3701C0.109375 30.5169 0.21875 32.656 0.390625 34.6721C0.625 37.4498 0.96875 39.7659 1.4375 41.5049C2.4375 45.1907 5.375 48.0993 9.11719 49.0842C11.3203 49.669 15.6562 50.0306 21.75 50.2538C24.6484 50.3615 27.75 50.4307 30.8516 50.4692C31.9375 50.4846 32.9453 50.4923 33.8516 50.5H36.1484C37.0547 50.4923 38.0625 50.4846 39.1484 50.4692C42.25 50.4307 45.3516 50.3615 48.25 50.2538C54.3438 50.0229 58.6797 49.6613 60.8828 49.0842C64.625 48.0993 67.5625 45.1984 68.5625 41.5049C69.0391 39.7659 69.375 37.4498 69.6094 34.6721C69.7812 32.656 69.8906 30.5169 69.9531 28.3701C69.9766 27.6237 69.9844 26.9235 69.9922 26.3002C69.9922 26.0771 70 25.8847 70 25.7154V25.2845ZM64.375 25.6847C64.375 25.8463 64.375 26.0232 64.3672 26.231C64.3594 26.8312 64.3438 27.4929 64.3281 28.2085C64.2734 30.2553 64.1641 32.3021 64 34.2027C63.7891 36.6804 63.4922 38.7118 63.125 40.0737C62.6406 41.8512 61.2188 43.2593 59.4219 43.7287C57.7812 44.1596 53.6484 44.5058 48.0312 44.7136C45.1875 44.8213 42.125 44.8906 39.0703 44.9291C38 44.9444 37.0078 44.9521 36.1172 44.9521H33.8828L30.9297 44.9291C27.875 44.8906 24.8203 44.8213 21.9688 44.7136C16.3516 44.4981 12.2109 44.1596 10.5781 43.7287C8.78125 43.2516 7.35938 41.8512 6.875 40.0737C6.50781 38.7118 6.21094 36.6804 6 34.2027C5.83594 32.3021 5.73438 30.2553 5.67188 28.2085C5.64844 27.4929 5.64063 26.8235 5.63281 26.231C5.63281 26.0232 5.625 25.8386 5.625 25.6847V25.3153C5.625 25.1537 5.625 24.9768 5.63281 24.769C5.64063 24.1688 5.65625 23.5071 5.67188 22.7915C5.72656 20.7447 5.83594 18.6979 6 16.7973C6.21094 14.3196 6.50781 12.2882 6.875 10.9263C7.35938 9.14882 8.78125 7.74069 10.5781 7.27131C12.2188 6.84041 16.3516 6.49415 21.9688 6.28639C24.8125 6.17867 27.875 6.10942 30.9297 6.07094C32 6.05555 32.9922 6.04786 33.8828 6.04786H36.1172L39.0703 6.07094C42.125 6.10942 45.1797 6.17867 48.0312 6.28639C53.6484 6.50184 57.7891 6.84041 59.4219 7.27131C61.2188 7.74838 62.6406 9.14882 63.125 10.9263C63.4922 12.2882 63.7891 14.3196 64 16.7973C64.1641 18.6979 64.2656 20.7447 64.3281 22.7915C64.3516 23.5071 64.3594 24.1765 64.3672 24.769C64.3672 24.9768 64.375 25.1614 64.375 25.3153V25.6847ZM28.0469 35.8109L46.1719 25.4231L28.0469 15.1891V35.8109Z" fill="white"/>
</svg>
